<mxfile host="app.diagrams.net" modified="2024-02-08T20:30:35.463Z" agent="Mozilla/5.0 (Windows NT 10.0; Win64; x64) AppleWebKit/537.36 (KHTML, like Gecko) Chrome/121.0.0.0 Safari/537.36" etag="qcA8i2L_YB6vZV1h0-sF" version="23.1.1" type="device">
  <diagram name="Page-1" id="z6x_sgUEtquyw34I1nYC">
    <mxGraphModel dx="1434" dy="786" grid="1" gridSize="10" guides="1" tooltips="1" connect="1" arrows="1" fold="1" page="1" pageScale="1" pageWidth="850" pageHeight="1100" math="0" shadow="0">
      <root>
        <mxCell id="0" />
        <mxCell id="1" parent="0" />
        <mxCell id="uIATgTCMKuDsSCNxfTma-2" value="" style="shape=image;verticalLabelPosition=bottom;verticalAlign=top;imageAspect=0;aspect=fixed;image=data:image/webp,UklGRnY1AABXRUJQVlA4WAoAAAA4AAAA7gIAKQMASUNDUEgMAAAAAAxITGlubwIQAABtbnRyUkdCIFhZWiAHzgACAAkABgAxAABhY3NwTVNGVAAAAABJRUMgc1JHQgAAAAAAAAAAAAAAAAAA9tYAAQAAAADTLUhQICAAAAAAAAAAAAAAAAAAAAAAAAAAAAAAAAAAAAAAAAAAAAAAAAAAAAAAAAAAAAAAABFjcHJ0AAABUAAAADNkZXNjAAABhAAAAGx3dHB0AAAB8AAAABRia3B0AAACBAAAABRyWFlaAAACGAAAABRnWFlaAAACLAAAABRiWFlaAAACQAAAABRkbW5kAAACVAAAAHBkbWRkAAACxAAAAIh2dWVkAAADTAAAAIZ2aWV3AAAD1AAAACRsdW1pAAAD+AAAABRtZWFzAAAEDAAAACR0ZWNoAAAEMAAAAAxyVFJDAAAEPAAACAxnVFJDAAAEPAAACAxiVFJDAAAEPAAACAx0ZXh0AAAAAENvcHlyaWdodCAoYykgMTk5OCBIZXdsZXR0LVBhY2thcmQgQ29tcGFueQAAZGVzYwAAAAAAAAASc1JHQiBJRUM2MTk2Ni0yLjEAAAAAAAAAAAAAABJzUkdCIElFQzYxOTY2LTIuMQAAAAAAAAAAAAAAAAAAAAAAAAAAAAAAAAAAAAAAAAAAAAAAAAAAAAAAAAAAAAAAAAAAWFlaIAAAAAAAAPNRAAEAAAABFsxYWVogAAAAAAAAAAAAAAAAAAAAAFhZWiAAAAAAAABvogAAOPUAAAOQWFlaIAAAAAAAAGKZAAC3hQAAGNpYWVogAAAAAAAAJKAAAA+EAAC2z2Rlc2MAAAAAAAAAFklFQyBodHRwOi8vd3d3LmllYy5jaAAAAAAAAAAAAAAAFklFQyBodHRwOi8vd3d3LmllYy5jaAAAAAAAAAAAAAAAAAAAAAAAAAAAAAAAAAAAAAAAAAAAAAAAAAAAAAAAAAAAAABkZXNjAAAAAAAAAC5JRUMgNjE5NjYtMi4xIERlZmF1bHQgUkdCIGNvbG91ciBzcGFjZSAtIHNSR0IAAAAAAAAAAAAAAC5JRUMgNjE5NjYtMi4xIERlZmF1bHQgUkdCIGNvbG91ciBzcGFjZSAtIHNSR0IAAAAAAAAAAAAAAAAAAAAAAAAAAAAAZGVzYwAAAAAAAAAsUmVmZXJlbmNlIFZpZXdpbmcgQ29uZGl0aW9uIGluIElFQzYxOTY2LTIuMQAAAAAAAAAAAAAALFJlZmVyZW5jZSBWaWV3aW5nIENvbmRpdGlvbiBpbiBJRUM2MTk2Ni0yLjEAAAAAAAAAAAAAAAAAAAAAAAAAAAAAAAAAAHZpZXcAAAAAABOk/gAUXy4AEM8UAAPtzAAEEwsAA1yeAAAAAVhZWiAAAAAAAEwJVgBQAAAAVx/nbWVhcwAAAAAAAAABAAAAAAAAAAAAAAAAAAAAAAAAAo8AAAACc2lnIAAAAABDUlQgY3VydgAAAAAAAAQAAAAABQAKAA8AFAAZAB4AIwAoAC0AMgA3ADsAQABFAEoATwBUAFkAXgBjAGgAbQByAHcAfACBAIYAiwCQAJUAmgCfAKQAqQCuALIAtwC8AMEAxgDLANAA1QDbAOAA5QDrAPAA9gD7AQEBBwENARMBGQEfASUBKwEyATgBPgFFAUwBUgFZAWABZwFuAXUBfAGDAYsBkgGaAaEBqQGxAbkBwQHJAdEB2QHhAekB8gH6AgMCDAIUAh0CJgIvAjgCQQJLAlQCXQJnAnECegKEAo4CmAKiAqwCtgLBAssC1QLgAusC9QMAAwsDFgMhAy0DOANDA08DWgNmA3IDfgOKA5YDogOuA7oDxwPTA+AD7AP5BAYEEwQgBC0EOwRIBFUEYwRxBH4EjASaBKgEtgTEBNME4QTwBP4FDQUcBSsFOgVJBVgFZwV3BYYFlgWmBbUFxQXVBeUF9gYGBhYGJwY3BkgGWQZqBnsGjAadBq8GwAbRBuMG9QcHBxkHKwc9B08HYQd0B4YHmQesB78H0gflB/gICwgfCDIIRghaCG4IggiWCKoIvgjSCOcI+wkQCSUJOglPCWQJeQmPCaQJugnPCeUJ+woRCicKPQpUCmoKgQqYCq4KxQrcCvMLCwsiCzkLUQtpC4ALmAuwC8gL4Qv5DBIMKgxDDFwMdQyODKcMwAzZDPMNDQ0mDUANWg10DY4NqQ3DDd4N+A4TDi4OSQ5kDn8Omw62DtIO7g8JDyUPQQ9eD3oPlg+zD88P7BAJECYQQxBhEH4QmxC5ENcQ9RETETERTxFtEYwRqhHJEegSBxImEkUSZBKEEqMSwxLjEwMTIxNDE2MTgxOkE8UT5RQGFCcUSRRqFIsUrRTOFPAVEhU0FVYVeBWbFb0V4BYDFiYWSRZsFo8WshbWFvoXHRdBF2UXiReuF9IX9xgbGEAYZRiKGK8Y1Rj6GSAZRRlrGZEZtxndGgQaKhpRGncanhrFGuwbFBs7G2MbihuyG9ocAhwqHFIcexyjHMwc9R0eHUcdcB2ZHcMd7B4WHkAeah6UHr4e6R8THz4faR+UH78f6iAVIEEgbCCYIMQg8CEcIUghdSGhIc4h+yInIlUigiKvIt0jCiM4I2YjlCPCI/AkHyRNJHwkqyTaJQklOCVoJZclxyX3JicmVyaHJrcm6CcYJ0kneierJ9woDSg/KHEooijUKQYpOClrKZ0p0CoCKjUqaCqbKs8rAis2K2krnSvRLAUsOSxuLKIs1y0MLUEtdi2rLeEuFi5MLoIuty7uLyQvWi+RL8cv/jA1MGwwpDDbMRIxSjGCMbox8jIqMmMymzLUMw0zRjN/M7gz8TQrNGU0njTYNRM1TTWHNcI1/TY3NnI2rjbpNyQ3YDecN9c4FDhQOIw4yDkFOUI5fzm8Ofk6Njp0OrI67zstO2s7qjvoPCc8ZTykPOM9Ij1hPaE94D4gPmA+oD7gPyE/YT+iP+JAI0BkQKZA50EpQWpBrEHuQjBCckK1QvdDOkN9Q8BEA0RHRIpEzkUSRVVFmkXeRiJGZ0arRvBHNUd7R8BIBUhLSJFI10kdSWNJqUnwSjdKfUrESwxLU0uaS+JMKkxyTLpNAk1KTZNN3E4lTm5Ot08AT0lPk0/dUCdQcVC7UQZRUFGbUeZSMVJ8UsdTE1NfU6pT9lRCVI9U21UoVXVVwlYPVlxWqVb3V0RXklfgWC9YfVjLWRpZaVm4WgdaVlqmWvVbRVuVW+VcNVyGXNZdJ114XcleGl5sXr1fD19hX7NgBWBXYKpg/GFPYaJh9WJJYpxi8GNDY5dj62RAZJRk6WU9ZZJl52Y9ZpJm6Gc9Z5Nn6Wg/aJZo7GlDaZpp8WpIap9q92tPa6dr/2xXbK9tCG1gbbluEm5rbsRvHm94b9FwK3CGcOBxOnGVcfByS3KmcwFzXXO4dBR0cHTMdSh1hXXhdj52m3b4d1Z3s3gReG54zHkqeYl553pGeqV7BHtje8J8IXyBfOF9QX2hfgF+Yn7CfyN/hH/lgEeAqIEKgWuBzYIwgpKC9INXg7qEHYSAhOOFR4Wrhg6GcobXhzuHn4gEiGmIzokziZmJ/opkisqLMIuWi/yMY4zKjTGNmI3/jmaOzo82j56QBpBukNaRP5GokhGSepLjk02TtpQglIqU9JVflcmWNJaflwqXdZfgmEyYuJkkmZCZ/JpomtWbQpuvnByciZz3nWSd0p5Anq6fHZ+Ln/qgaaDYoUehtqImopajBqN2o+akVqTHpTilqaYapoum/adup+CoUqjEqTepqaocqo+rAqt1q+msXKzQrUStuK4trqGvFq+LsACwdbDqsWCx1rJLssKzOLOutCW0nLUTtYq2AbZ5tvC3aLfguFm40blKucK6O7q1uy67p7whvJu9Fb2Pvgq+hL7/v3q/9cBwwOzBZ8Hjwl/C28NYw9TEUcTOxUvFyMZGxsPHQce/yD3IvMk6ybnKOMq3yzbLtsw1zLXNNc21zjbOts83z7jQOdC60TzRvtI/0sHTRNPG1EnUy9VO1dHWVdbY11zX4Nhk2OjZbNnx2nba+9uA3AXcit0Q3ZbeHN6i3ynfr+A24L3hROHM4lPi2+Nj4+vkc+T85YTmDeaW5x/nqegy6LzpRunQ6lvq5etw6/vshu0R7ZzuKO6070DvzPBY8OXxcvH/8ozzGfOn9DT0wvVQ9d72bfb794r4Gfio+Tj5x/pX+uf7d/wH/Jj9Kf26/kv+3P9t//9WUDhM8SgAAC/uQsoQ3zCm8z89Ctu2bVPZO2kD8A/EA+HAWHwoGoaCIxEIJBwfHwPBgnEgPI6Dto0EKeYPe2Z37x9BRExAq6/7Q+UJekdn1x15snjql5QrG10qhCtdHlhcHE/KXTLKebDcS8ar0soLjHtGKzefm1+Y3Sq3F86NovCQzObIh519CwBTR5JtW2ZSTGjaRTOApmn8/z9amRW2QRISc861IvoPC5KtqtEBFkXExLiK917efEmSJEmRJLzhief/H4XdjnSKiqGM6L8kSHLjhpm87qxB+AIpAqT4Ona7+v/+Y/vP9p/tP9t/tv/sbGhrw5fy1m7vfV3I9fqseglO7WmYM/frqarB7Ga41K+XqgW9j2F/uQxR2e5h+HaNU8Xu4qVtvmDvlgYFo/ctVL7mqLBtXfs1S9U9u9N5zVRB7Veka65qu9VRpWu6Smqrmu8COfvc8ePy3CA3u7muskl9hQuOasyX0DQ+li+VmSM26C5IqvNdK38jJu45k3SkX7C047qc+C157mAMvkIX3qI67yWsInM8CU+r8CBW4FnzWnUBVE1xe+mJ4Y0bRJW5vfRgK2/cYCrH7CVGhXboSZGkUmL4plIplfFOvl/sMkcZL1Ef/ZMXYOtCuv0CnsOJIirH4q92tMup3+b89MlrZbvgbFV8tLMdmwWU5i43q/OMFmeBpgs0Z7kuy1vX+IbTwkU7jhccYe0f/ZhmzZ97mxlovJAS7p/ska6XmfFvUm2yJ+rZh+EUkqmKPb/YuKRRsjCcEwjMw6BFYVj36B+2HoVkMoMoC8NsK4kDXW/cFIPSgcsrFN1fir6ycUuSAyrzqBjtkpaXwL1L47qEZZkhucZxMUGJFYTbW/lLPkphiifTf3/wCXIi+av+yj64BFE5hXc2Q9GVbGw+QVB+/LtQGAVB+WnvaP08xeXFQuvPB1PRDeeRWHj7u35pMQXQX0Gx6reTUgCehxdDmVFiK9uReUi6+MoTSEgBqJeXAr8ezQPq1XVMvBLMnPJvtDj2vphIZ7CYROUw+gd7i+jOLOdtcRFeSvUtONkINa28J36HyscEzJmE4lr5l3Tfcmt1Qv/A6zgtt1YFFICFeQ1o+12dIfz2CfQaV6fpk9/MLRiiacrabyWSvomUlZJDsIYjNUqxvE4dO3z1afmjbXB5vdHbteVgJhoh5DDzEjD2V3gTaw1T02n4UDR9YXdYw2UxzX3rBubdTvNiNikJ1e6tDH6DU9aH0qDVEyY5xYG6vllB4GopfKlYygVWZa+WX4uarviM0Qq0w+J/xSwigItNmUVkhCAcqn+4SFF1Ad7b1LqOcRqUeI/U83391HsMl7M/oEclvWrrClyW1WHmwjn1fBsm53/AzAXVZ6IpHsvZU7WgCH8JE45TogpXD0t+TBvBeVx4uwjSJZsANSassq1W+hKOUyVN95N2BrlQMjQ7L9pU0autJ3/h8So3HZtwKhpcLupUVmsVCGmKzTszkjSkL+Hs0tFgoVK59ZLNLuEXmOnrnM3I5q+8DoXWVc1KqQ52B1hXtwsVgCqCtpZRPlWUj0WjiuskstVNYF2pz3UMefFJMKy3bZHzORwCFVDrLulAE49lL2bqIh8rMlOX65JOIKqSqbtZIwp/LdNZqcslH+vwFyd1g0Hs5S+Ti5MaxMnVHM78g4/aAuFdb1QdYJzaY6PqCkYUb5fuoKFIajA5521CD6rX92zWTK5YTeUfX1eDErTmsS/26Qwn54eDy0oX3mkHsi3n/BXMLFTq1SXRSbzuIza2pauqoKgA3O5ki8oyDezu5NjdQrMzsytjswg1UTCrY1NnbozKB8SDy5WT781O9CEVsoIzSyMdG+63hcVaH0IuhStiDBCpCkEQDa/89qDhBdlfZSwUXu7381JqXCD7a6D0MyWSnmglgFKaiOmxCZCByiPYtPrjqQg8P06ReM/ItcV+l2mQxTPkolxHLnWP3BWykk2P+TX9j7tG1ONyvJfYplUJaYdjW+iTtr3mVn1vW2w0uDt5CrxHuRwRdWBNIV6izONo849kXPeTz0uEeZxulVnnkth5Xjz9B71CIWSPSyQvHPKxFufHxE5tzHC22QMTLVJ4Eebsm29JlA52n5YiJe8e4lEZeZoqoE42fG/uBc2Ybradsp5sIIx8Bh5iKTL3JhKQyY+Vj1WXkQO3jl+ZPmwQxGsJTsqTkXlbkNCGBTiZr2GU2CYw+HO8UTDYtRsFBwE1hAMwjBKbBQTEth08cWLik4cNuODVNs/ppKgEuCIgBApiHhPD2bS49KySgTYNPAkX55xhZVgXRlxilptwkM2LNr5Iz92LKwx2pQ1SYufSydNVhbxKuQqInUvr9enIq2xF2Ca49LCaLG5jpEH1WNzIuDSUWizSnypszosiSmuow6KVUEBUXqLx2s5Ib6UViITeKbj0CipbfGwVpBVULVpG45FGiTXIrEt2YeBFwyXyzZU3C7p6a/YQdyvTcplSby4nIRRS0N6YdZL7h702S/fYbKSwDuJIKolYUw8ppSohJeBHZi/taUmjqfiLWgQphUWWZ3v9wnbymei5VO/Kzt9PPulJYp1uQt9PPg+CpLtehrB/sj8wFHFE4YUw/0oM0gVd4m+eKIaWkqQOTTtXik2TkFEESaqXbwxdV0qjF2mjrJcSw2ntA7njb7WFLoVKnBtkvZRwjulcTPXrKLmSB7Mz1ttXeGpGjehj2TtbHM4nSfR2ev2467bZkhD6NVCehi7WLUPtx0R1aQA7yVP51HYLtV+j2ZbgjjGgCZWQLbsgVPhdn6p93ieCOglBuEiyBFA0ODjxb2nRrLVtFxIyCpcLjrpK4k4eK3lqf5/oQnmVak65J4/NDjeNC693LVZBnXwnJ0T5hjS9oMh9Fio4mrZgDFXiyWOTWXk7eY2IMnIio3d29Tdp+hDLZ/XbZJmZ+WUSNlausHm5fc60wjB2UJKRr385a6hbSIeI9gS1NGUK2MyQzHeGrgUn6un3MHhJza73dYmDpdxMQVPymaDzLUt6rHQ8wg63txXJupjDKgMveAssIUjPAw/jG4p1IYfV3MAUICCZrDXaYZX6RLAuY/Sg8IsF91GSzbpsAN7WYZD0R+3vIvDoHVyDztuSL3eruSk1HEct+akiaN6WgBHVmMlugayP+RH3oU2QEoB3Q60eUXV9hKJCQbYyx5Avuqioqhlw9Tibt10O4aJZyup83YJCGKQXLpIiroLjPWpsFaDsSrTojsLavCeNq+Mh0iFZVD2m6vrkLUDzZSSLiLI1/POiemh81UOu6I7Udhr0oJCQ/r1cUfWIRHrELHgU/eTSlaAAixKEqiVBUGb+RgTmW6BJZM+3s4CL4nFz8JA4uQIVXuiW7Jqj9vBqOmfB4OTKFNVQXnP9akHXVNvJFPVVGApLJ5ABlRpVFZDIsSiz2U5UNEpiruDoCw0lZFkmGowj6ntNuKPKs0OWKPy47iKiLkgDMpOfcMgKZbo5F1EdtzTVlie6G9NwJjr7IR6cTvKcxVvdEOgN3GkBTWtp4Zxq/EWzCo+1jO3DDjGDXyyD3/mSJGL70OMN5qoWwp88ZWmOLS/12pDc6fCYL/1gtBYYyiTjKDISY0qrgO0jzjH+ol8lEBHDLhl7DlnHDx4dh8CRfwA6HBKDeWOIPiR7aKnusxm5kmv/hCdfFI3Vb2f6aFuOHtMrwufatJ0gXy8u8YUJZnXaD5Wvl+OGqkaafgL/cWTKWDFuaG/McpSfRwKwckN+ROh/Y5aoVR3J2ZIhxd+9MavUfewh5CedFlZipkWHzIjqX0lO1VEVV7sxiznOhMCrJOeKaH2Trm6pOg3IR16Kq928MIvV9TUfV4yr/rk02tpUU2MDaL/2EeNqmiBp3Nc4NfOS1C+81fee7LU+lUemlo+H/FT+4AlHCkFIMD3QkM4kS9DtbRzpfEroh5uNzcrLNkrtH53v9yFKT14nU0HoN1j7EdYO8hMEOSVQu0J7wBbKAwF2j/F4+omf54wtGXp2eEN3z4hSjYbAswRTgT9/dGS8razsdwwFf39HTwFPAAP8uEOKsI/dFIrQy13iRXP/je0REWd7Y26PJUdVnt4wC8ZWgn54j/kdYGNUo8g9QVQpp5R9oPTzzU9fnVHlBXzevoSq9gkOsxRDkY5wvf5txra8IlvWUmLwQ2psbc0ij+X21m0+/t8VnFzdu6ddN8J4gkwZDZ6ag3u1q2pmmHuCuv/0f+cxc7mcOLI8UBNmbMv93Fq3yFsU+iFuEu/5R/7TY6ZhpvonQSScMj6WDvNeiutOfhc/D3c5HH8BmVWfPlwT/98N3Ij2os7LiQtZg8r7XdGq4b62MwUduys8eXVivzFnBvY/4BEe6zlZ8XxQT4jQPjzjEB8qct7YT4ItwO3zwoPXlFh1/GYhdWL/0wQoExOf2zMWKV5qLMOlLdHWu/0t26ZQdFFnTDKZjAo38tJnA75C58eIez1/0GWHQuy/8B4OfG+2a+xjLW9H/gDf7gkKhXaPHmmt5HBa9j5wHILaWSf0XVYwOnFjuL0H4IlXmps2qbOV+oOjJuIae44H9RisIxZaaHydmKwEy0/+VWgI6Y9oaI39YzwoDaeJoaGF6hG3nnJy8jAuY46yBwxRcp3nJkw6cd59ysOGHi8i2E7XedpwkvrPr7t0nslLUjhvP/ZF06bZtxQ68lIEEpr3BH3mMq3tlRnn/ae8+IinktLS1RXSfeZHPTzOG5B7R1azzFtCLTlQLhL5Rw2n1V5+TM/AJZwhu+tigxWGf9kWCAn6+5RSs78U8qcdPe0pKCju11AzNC0II5hD+GqdggVzpvJkWp2dFAVnUFYXz+G6XQPLKkZ3lFYcMtGG6GL9l2Bo2SviLC0DmQ0tIzCPw3rcyyo4DyexGLCGcKZWUVPtpIBTAhNO/hkRxe8yifBawcZYNJafURwNrpmM7nJQndTBoUwYbgXT6AdJUTaMo80S5Io476Lzupih/bQ4Zj+RIQyfBUQ0hEmDb2wkqQTg8kL4UhUQX8taa9MJa56XAf1JKPRODRTf4VuPugSJHMdzUhPDVjzrDuJTm9iNpqJjiBS883xFrUav7mZB8WMv5nxcPM1zNydg+3E8Mdfy1BSU53qHzRZS5SKE11JMQVvN02SZ50jahZsQhtGJqaGpxdtiMgC0btiRPzU5HlAV/AuXIE1WjWY1IV0I2LyiTMrpnCa6Jzkb/TPuDKHao6+eKS3D1NCTo2uhze94ag87Ck6ojvgrQ0XOieh5urgg3PG2s/OpGpGyF86E6ZDo8ViqFr3XUrKdKq+Cw7NDezEDjfOGZZqMtu4o0CXVdUIhjzklwqoIi5V4NIae9UrJEjkLHsLtvCrC3jgNEkPPuqFkirrRQ//PD67wOZou2nnXSzSZonPRPV0CIfo+dx0CtGqUjtJ7oqkVEAT4roYwvuEJI75ZFdQQ6As80dQdm341E1vMAhfzCBd6fYJ7f0TC1aJFTiejRyKOm6Lv36+wawMv+qpJM5phXkWDgRaphr3a52myBBoLAZ0wbjeclghDmFMG8wzOdMkBOMiylzTQ1WEQ++PFJApocvGJ+35icQgkhXr702ltjf2fXhH4/Pa33wmXsMBjIRMSd8lk1ZX9JCBGR56VAJGLE4hrl0wr0NUrxJmC13XqNndIP1RVAEgsVFqOkJr2jtw7e+5UWIEYSI/hZmjKkrPCg+50IM7dO2msOUIO1OKV0qgURWUDrqrAkbIeQCfKBB3o9Psc0GOhPRcBK29X0+R08kXeYNO5Xr1/O02nZAm9AuxFCBopp8TR2T+rFtpNs7t50XAiV1WnrI2oAfc+dOKE95qVFDnR8LCsMb7wlLzMWEKRxzHPlGe8TjO7qVLZEdWSKaiPZfVuqdZlO9jyHhgzbjunxSEGdjM14W5gczpibMKe5PoZr9jqn/QgyppzDclVkC9SUAghVVVas8tygxMHCU4/b+bdyUbmU3yuye2KhGzxkHOfDgArRhce0RUw7WQ6hnxdEpgfnZou2PB0bOnEpswscKnGPSjIidz10H/YAoixRZpPi5qRS2vazP6AdwZ7AZJc/0jdFzWKTIRQ+6FnrGI79NME7X84aKDlQdpjrF7TiHhVOk5LJjfXfgv9VStZiL3TV0c/cTXopzkdV3fH7JtaHSDdnqAFCNkC8qcNj4OiYh9tb9FU+I54jWZCEfls0am7SXMB9actcBEucuDIIM6mA4VukHcMkIdYJnyrEkqIFbAssepQoTs9sGTcBhy9pW51gpvbqIezoCwMujN1e2bM6/TqaUjVWZ5hQl/0odK1Lt2TDkUOgMi+NxjsZCmfMsC4LrsVrQPOzMROGIPCbNMGBYiwF30wKxxWmgyWltYI7umd2/MGEIUiRCr2zKiKRG9YCP6BYiETGFGWBFt+QCEt8dl48zoViECexLuCQyEJJxVic5rk+l0UYrswIMygHpgF2O8flIWwBCVi1+PDPFmBQmL/8M2fhhFikk0iKvI3F3IDpBVlihjZB5mPRrj9+kG5oMSxZ3jWUomGGc5fyiZYnyScNDxGLhmExwWFGn6vwr6GaKkpXdQQrrM8PEOcRMHQF4mw9IVKbe7i4G22lEovpFEvU4/+Ne0sXntiDU7Y5J+H416SlodpxJ30uPHVEzaoi0Y4tBcBHup++HCC8SJdxM0+gJ11ZQQi45JhSVKY7WEZHauFn/MjxY+iHucqJhx4oQEZFbWzGUjUaEcnuprzI4WPkaEyGv5iDU7g0PeVEAN0hgOdSJN+JPv5/0UNRqUSicwt6DZ/ps+1wkziwerPYqt+NGuLSpQ1JaCK1yNtl4o6KfrTb+L+eXDIvEFGIHn5QK8WfhLlMt8lu1BjQ14jgpUBez3ReJHwXbt8vhzOSf+rJ3Ng4KM8quKwx4mM4/7Oz1vipGd/Yw6Q1hq/rhR6OAHtppMnpqy6izcoE0Fu94UizSKgnd+4VHPiupk0rjYFCAhgFg87noD2kSM2jK5Eac4niOC9nWFrR5n1DA5POINmmG/u4MCAum5MEpH/ZNs5sbHGHFSgQHI6LYlos36l89mpVKM4ucxBXAcC6fZpA6bjGcIgTi6tWFUufQE3AhfYZT9UBfqcwSdTnTgY/FDMRZj0Mz0/lX4EPK1ZuCWUcVrKYe5iD0TZwH6vhiq+uqo7YyIdFF5gYf7vNd7SF3Vw6OF5i67mY7wVyENAD40kM0oc6AuyjzLhmzRi4VZVNk7BwSddkX2U8V/FUdud+XZV+clXFNArso/y5h2P7I6cLdhxIgERd6jIwbYyXLRK0VsMHEJ2A5JyE8DetMkjdHugqAOk0khl51K+xbH1T+poIRXsu1aEHFntJXypVDoaVIRbSBfVoS4xhYVLSbNQ0zPUU9/0LlpD8WsUurdYfpLVxJH7C2A+SVcgfRf7bJYxwOdvxSVtCTREP0N3pITBleFWECuzaGKHzt+iZ0uy2kYacWEF2C9bCdztLKp3XaKzEDJept0utIXVFBRS2ljdwNas21fITBr6t8SAp1klgbY9HZhcbIdqP8+YIY2ehRuRoX+Lu5rH0qwST9qeBQFfsKgH9lSDakEhJmx0sOSf5nE0Isa+lsnqYa0BdWRjFsI8M+x6CgtIWJKAyuV8HjxwC1o8kjS2/YlEhDWom/owTTP4WsR5IuY/e+BCxgX6FP1p43xmn1TCj6tnpaooeHCuE7+jhgmPlJoVaHEzgGAGXLTezB3DZT++R10ACqfRn7ONRkpQz0tw4wU1e+mIYtGuw5PWoT9nm45TFKaTEiK69GdAmiqFKkiLVnzBQkXGAvWOl9vICpAcRWcoAHvoevolFwLKGKAnhbEF7hlN0RmyHZRHTb/kgkVJvE3EJAIFtkrSGVIV1KtqIz+rD4XlrL1gbnWz5lJD1BlKkPi5if5c+hpC4q1ezbGQsPdnnyEPKPLmMZWNQ7nHRtUWRyj/JMyPKncwlEhFfwKqsPAtgdCHdIEQu+tgNlTysy2zCLf0t0gfdHBQqbSotbqj+JNfWIjGd5MwxISQ8bc98rd3d0cEoD8xeEd3kwjk8LUC/iMZ++tMxMj+11Rk8CHSUHVFoeu8jEAfXhwPJEaTyC/4LGKTu1BrCl37dcTiJ1dpfPnHnrBxYpO78OTlzKfxbRQc3Qq99rer1JcEZbGFmukx6YL+hYIzktGtZujZlSG4qF+u95TgP8LyRIDutyReHDdB0ndU5BQdkEhtXICh4Ynnbq9T6nMtK7ieiWltBmBWEp6IGF66XaX+ukiLZeUGUmufHoG+I/b5jU+iPgfWsNZ1T2pP/yW4p2T6ld+Ir22EQ7WeKTCE6go5ijf76XYSf2VYTIwkRUG3ZqHShPUFlkqzWzlLffbaqHhbBEgsINOU9XzXOXnnTPwrXSeZt0XbelRCdVW0nJOEKNr9dW2QHpQhJLlgVqR2KG1CcJJUnhq1abRTpxOe9/tzWYRPwYPIEOkp2tGj8YwjmhvwCNU1zGHg7QbpMOlNnqCHXsZS3aFCaI+BDinuztAchuMWsVZD0k1AI5FWt0jK515fWvCAvff1STtJpsw6G5pY2yd+a0BX+Cvp9nbrNK17H5EE2SdVVSEBtikn+Jd7Yj/iLhomc6FYlE+9NIfkb4DaWNCQMKILZlcSFs42oqNxDWkjIpAxUM0tGpSFFVkcFS3jz/Tu980e9SmydYJnC9amnOB/4vddDEWDRpbKw0Hbo3CAJyL8ezOit6UANmQMvqkeww9rffhdWUvGg8+X95cRdCthahrokioK1INi2Eg5vV04YVo4xw7TYrCPxqgl7NO2EW/XjJ0HJiyn4uQ9ac4NI1IdmOIjk92yZ4XBzlh9cM17G/WvoCEegnD+VgAf8mG8j0j1AoTamP+FRHY7tht8O+IheXpODj5ieUiRB0rlawoZCkh7VMjwpvojM5WL5a0VALlhA0QbYcjZcXUc785U3zBcGzC34P1bJ0xhoBmsf0bGqFxIpT26/TsobuSjHajsnljrchcXthpmfAShiMkJDu7hKwnYflzi/njgQmJsBe/fKgcW1lY+WfJOnPcDST7ohzkwsLYqi8ZiMGPBm1WhfRTC5VVokNuc4vt/VdFQbtHIx9kbnEwdaAH78n0b3019coQ8m9JPPxxcu+XTimA6ZQRQPF20zPcGax+Qdsvhe/IL7iM9JFi6qXwtrCiQi8E2w/sQ88347smB+lMVGKd0LAAnnHFJ7yUFx/59H3Mp4wMnas2RcSRjty7E8v4otZQQvDUimYE8n64YB8Mpo2ZSIKvRg7FfiaLvlH81FJNiIOy/StAa5xD6UQOsW/CSnIkNLyXu65StqAHVzVyFl4jimQ8qnE+rOSxUt4qTf8FVcfvXAirHOdwsAe7RnShLDQNoPm3uoc5jCUgPv4yWIfIjgs5EGbXuCSBuwRAYUw/PexAhzjGPBjNy2BUIUCA8madSC02C0B3UqMIUdawB/jnLw8nxWAP8pId4QEpaA+LTO5EMPYeBrPtKZ6kW4zKg4VhcCdXteiiDPLwIabJl09o7braXqNvzCLJ5X6juItBfil4X6YU4+ILzLwcfeBlwbyu2oITH2BotYBZfhbkM+GeCSmJcTUBG466HlWRTkp6faRHubGck/KsPC15cCNKI7yC6qW0FIU5xfZXhshBUNSJJjZPjPqBeXd3vlyjCTDOk/kVRcPvMygWg01c61znRjPllqtgQJ95qySuwyMIxHyKZIgxUD7z8CiN7fy/XYjHo+qFAthw3lJlkEvdVEt1y0M046nAU5CGQjrUeVDMwjllEamfvwrSTMigZKaghMrjrWphWwI3QMkJoEwS2SFUAjfzEdfyMN8iVIY02VxSZPUOvC2n8TaiIzJ6iV4Vzwq/SJWZP0ktC91PuQRKzweq814Q3M+dHsfKy5+nl8DKKmnQLcvJi5E7Ui0Gc9sAN4mLkLk+XiblopkugsLNnxsQ6UM0rI8qg0vR8G1eB+LDdAxKFBpBPKZkYn/mUrpdIESHkVLoAZDW7XTAiSxk7NxMY6tHd/GE5lBtra2LiadIfnFkBeNYKj7U1O9ERuTl+NAeiU3mEFvLs41KNoJ7O1m2xIkOqPjPNRUNoKKPpqQQb8trc2uSiOTgTAMaKCQFY9b0MregnpDbkWUn6Bg9SJxQ9qOdNPJIlaqukXKCv8GgJWDd/KVmJ6SzQV3hQ1/z3ffwlyN0QtFM5kIcW1JsJbDRcPNimPZKG4l/N4JzxUsFWh/qkC8kcQOfqtrSI/SCDJAnVK7g9cydmYv87oQBq0KKB3C13RdbE/uesUlLejaJ53W2aYwVXO5WLppJOoPBqk2WEuJSmbWKfjT9B5Os4y+2GMTF5xoxZWgs38fV1rJTWsSzYBc5BPCvm9XGN+V7ehNsT0/rCFzSw2eXXBcfbgszf9ZS9GM843F9RzkouKtIWFIB0XkHK6egdQQMCXhVOkK9KXihA1K8rhE3bRnfXsP5R/82MuKNLvKKivcfD/pu4ux8Jg/fXg5wgcJ8Ofc/6B43ZReQ+IwUdD3pqVLNfFjaclFi5K3RQHsksaZVSqEQ4BAN3m4sVS4RQoFkf5F3Xsr7fBnyLgEPNtjhUe+bbGKJIt7Rw159r9Hr6dN4OGWUX0SpxSWHSEqEqwek5+57vp3+1gKn9lA+6U0lhWPMLjT1Dwd7pv+dW2DK9EanPWx1prAuhFCKiglqYW1Ic/L8Sv2UPZUMspVHzpnPIegs2MqN9eD72x/pJMap69DjcJuuZYhiyzlg7JCiok+yjiqcHeUekF5Sq9UDRg7AdZOzlKj1I5MAJScae2oA0ZbcIIyEUcmFhvO9sq+Sx+tNpxO3N3Iq0vd+X/eQzERcFjBJCIN4cbruElUk+IF2enYj2pNVAkjSSezZ9tBr6Bh3dCAiKVEPgS4+EbEsnsqJQ1mgfhCVeAmjaKgikGvqsJnX4JeJIm4GZG9JF5zb2X9OB3UHuF9p+kbRZIbBrEXonIwx689knoC8MO4pJ17cpZLZfJOw6GBdz2zYwiiaXK922Drqj+F1fsEhUL5nZuiiG6Hx6tDzhWigZnUewWwb9JLyYTidG+G7cPLm7hO2Cdira81BOmyVT+erJTzRQhSaalrxipro/girUhU0u0d/uEfRolpEG8twghSi0BIxsWHdHmVBhOfWmMbtjw4l5W3RqQfcNJ8/cywLuBnfdGxR/Q0919sife6RK2OxcGkZry++NnduKqqKat0ZKqkJPRYPJnyezXkAEfwoGd2Yph+rS2XyuaTyWzo0RiF3U4EPljeG0qFZpqbovioYCf0FmjZWP0VH7kY1Oq2qdk0ee7Zpk4JeVaDRiz55H4uIL1aw8CUFzctF9WfkBKOwy94VNC/bBQtHNFEEcAHIP0ciZwVUVE8pmbtFpEW9IZLz+k1E/7tMa2Qpjep6U31lKCsFZK1CKv2dPNXFayeG0mu1wSxNWUZW4GtGfRoCBDmNl0it0P8l7C5dBCyJSebwAq1FjtvwCNDFzjunrKl5oVWWqjKsrTvMS27lr8qXvhCzf40Dld8E6fRUtrJ3bcXBP91NW+SBQFu1NlFZtjsXQcPIy4qCuWk65OsWDh7obMZH8zbFRdQfSyxQbVQcY9YhhpFYi8hwORuqqJMTRDQcndZJQ2sFwsFKfAgo48LLRF12zFxZeRTPYJ7cjHysczNSneKx0kKm3waHW2Yd4hspmTkfxWAc7tZaORSnPXdU9QPQ3C32pU3kPWGmlNLu4BSzdV1oTAd93gBWWWrajoTCIwN+sbtpSa4mkEoE0fwYnpwLw0GemL89fXRb70Nfk+crCEUBuJCcfk77nI0CoBBgrD3YeDN5lveKyZxf96mEXXO8GnSnT0ilWIZF9a2kvIOAK3qoO452OjbTQIJ2MtyPhN5dA1EI5hOPU1cHMhXYcwnEKx8HMBfGUI9Kpv8H4Rg4Mj3VcuXyJK4zcMepldUuP5erYxI3DrF580CVp4ziXT7NTPs/FkKnyEUoTRUNCMgduhC41eOHl4K36KBcnCKjOg6TM5swdUI8f6ik/LqMrXmP5IB1uJveVZy/x174T46pWQtUjC2uaUkYhDaeMtkEztqUNoffz2Q8/OO7aniGXOuL11w2sBVMYyc0VTBITt8CcgJ5M2ZZz1oxt0SvMBKHBSUsTIys7XQ4ZVSlI8TGHxCikVlJ4FgDIBi+kisVnPj649RdEEAAj3+zsiFQlEgrAcRFJTDXpj1x09mJq1FPlIpSc6hbPxB81HzyHqqxNDtEGrMsogJOHlSVVgmq1WWAhASJLqq0UhYWyC571telnK/oAHqGUAuDgejxYr3TnKcoIOR0pBcDAbITKwX0VOIr0kmPCflX4CT3LnsmUN/yzzSEA5YaCfduTEBqiyEx6f3ldBTIROLESbkiyHDkFGFiUHPOtmxAsTuaBEMfUtVkYR+AdQcO+roqtsFY769y6EViHFmTWkfq9JIxj4xY3y8xlcifNuFSYXmSdFZH5lmihW5l1aJdn292qGZk17r+z7fcrrKXzGwW4vo+BayEE7oqZ1WCA1iSpK56F0CyHXwB6PgdtMpmPeduozvXuRjGfZyH2y99YfZsy1UNtjoVeZ7oerFkRP3r1D3e1E+Y9aWCY6Z7tGcbXkn8vrDGEkOaMaF3j1wF7UIJI4s3NPIfTwyXZdflP5o15tiSQTqHh4z5pcUtNr7XQcepHbutc6mwrWSKjTPY8lySuwFAVl+gR5XOHochnI9OSu6nz+2Cc1t+ZiXzXTPU04h1388cmVaYBQTq2qVJ5V5ul450Cxexzx3BsV2XnVtJxc4bGO3g7rxPub3PHqI5tq0Kf4WqPnat0mtOzWpt3YfzSBl4YFUx2xy5WytcBLn6HvRjHOHkYJW6+/ZVPqkR51HuP+5YCBDwNByF8a5OJt/rY7er/+4/tP9t/tv/8ic2Pn/9et+rfnz8ejGydEoWHFOw+3pXaA/OpyOKEEDPFcr4/nl5RfzAA5fZADG8nbIQ/n19Pf3IF1594Ye6EbfDj3xfX0w+u4PqBFu5O2AV/XS/wF1vwF1q4O2EX/P0Gf7MFf6OFuxMaEMCr2IILLdyd0ADnJmQBFlsApUrshNt/dhaQennj+tb1vv9o16CPxmH2eZWRtip0wDn/x5t5rJuJ4H1lFxZsYgN44/oAeqF8NApTzytT2goom0MDwEwE76u6sGIT68Mb14fUe/x8/tF+DvloDGaeVylpEKGfzghCvF0TvK/owpJNvM7P72oeeOP6kHp/XJM/GoGZ51VKGlLoj3+HAuaEEDMRWkfMhUF+9u5eMw+8cX0QvSM+2n+GfDQCE88rW1oVTLPMwpo0iJkIrVNzYc0mVoc3rg+p9583+GfIRyMw8bxqSUMK/RspHgitU3NhzSZWhzeuD6IXykejg+/8MGwOEppmqrmwpq3VgUizfUgqIDo/Yjano2kmAz/77cQQsu2Qj/aFCpRL5u9Hig/l+4G/v9r5q31epyG4eGddmgmQca6swBuJ3aPAP6/SEACkqULwMRbhz+Mo8Nf15p8IIW1O/HGwAT9e4OUKIm1I/EpLDQfBBx4PSBH4dg+RNiT+89+vL8UWGZHm+QEibUw/+ckA3ORoMfGjzemP/AQD1CXhtADKRXJccIjXsiz/QwVUK4sfpx61Kf/5auefr3auAEj7GESv/HBKjIgL/8riYdLuhzgl7UuXOWfrtzzISCpEDFjax3g8lM+LNAwPZBDalunnXCWsTrCBgCFv8fw9PttmqN4l5nyln+PPluBITKTp3fl7PCCWhCA90TYbas4CaK6DJV5+JQQ/X31riDQeSNO789d4QCwJQTqNgg4//h1e5ApWb5nn3xqr900qKoQ0iyQ5tswrJAdiSQjaSXJkOP4cXqAWVm85Bdnzbw3V+8eLdJUQaRYp0GyZVwQaxJIQtFOgsWGmilRIMfnz+bcG6CW0gEtf5hVwibAkBvEEl1youYIFcgxfP59/JbDe/3r2rS8g0izSFzsyPQUZwJIg9NMXMxnyD0Zccr+4Weju2PT4Z7fjr92OH5sdfx57HX8c+xrVGv//h10dAEVYSUYOAAAATU0AKgAAAAgAAAAAAAA=" vertex="1" parent="1">
          <mxGeometry x="295" y="50" width="259.61" height="280" as="geometry" />
        </mxCell>
        <mxCell id="uIATgTCMKuDsSCNxfTma-3" value="" style="rounded=0;whiteSpace=wrap;html=1;" vertex="1" parent="1">
          <mxGeometry x="310" y="610" width="230" height="160" as="geometry" />
        </mxCell>
        <mxCell id="uIATgTCMKuDsSCNxfTma-4" value="" style="rounded=0;whiteSpace=wrap;html=1;" vertex="1" parent="1">
          <mxGeometry width="850" height="50" as="geometry" />
        </mxCell>
        <mxCell id="uIATgTCMKuDsSCNxfTma-5" value="" style="shape=image;verticalLabelPosition=bottom;verticalAlign=top;imageAspect=0;aspect=fixed;image=data:image/webp,UklGRnY1AABXRUJQVlA4WAoAAAA4AAAA7gIAKQMASUNDUEgMAAAAAAxITGlubwIQAABtbnRyUkdCIFhZWiAHzgACAAkABgAxAABhY3NwTVNGVAAAAABJRUMgc1JHQgAAAAAAAAAAAAAAAAAA9tYAAQAAAADTLUhQICAAAAAAAAAAAAAAAAAAAAAAAAAAAAAAAAAAAAAAAAAAAAAAAAAAAAAAAAAAAAAAABFjcHJ0AAABUAAAADNkZXNjAAABhAAAAGx3dHB0AAAB8AAAABRia3B0AAACBAAAABRyWFlaAAACGAAAABRnWFlaAAACLAAAABRiWFlaAAACQAAAABRkbW5kAAACVAAAAHBkbWRkAAACxAAAAIh2dWVkAAADTAAAAIZ2aWV3AAAD1AAAACRsdW1pAAAD+AAAABRtZWFzAAAEDAAAACR0ZWNoAAAEMAAAAAxyVFJDAAAEPAAACAxnVFJDAAAEPAAACAxiVFJDAAAEPAAACAx0ZXh0AAAAAENvcHlyaWdodCAoYykgMTk5OCBIZXdsZXR0LVBhY2thcmQgQ29tcGFueQAAZGVzYwAAAAAAAAASc1JHQiBJRUM2MTk2Ni0yLjEAAAAAAAAAAAAAABJzUkdCIElFQzYxOTY2LTIuMQAAAAAAAAAAAAAAAAAAAAAAAAAAAAAAAAAAAAAAAAAAAAAAAAAAAAAAAAAAAAAAAAAAWFlaIAAAAAAAAPNRAAEAAAABFsxYWVogAAAAAAAAAAAAAAAAAAAAAFhZWiAAAAAAAABvogAAOPUAAAOQWFlaIAAAAAAAAGKZAAC3hQAAGNpYWVogAAAAAAAAJKAAAA+EAAC2z2Rlc2MAAAAAAAAAFklFQyBodHRwOi8vd3d3LmllYy5jaAAAAAAAAAAAAAAAFklFQyBodHRwOi8vd3d3LmllYy5jaAAAAAAAAAAAAAAAAAAAAAAAAAAAAAAAAAAAAAAAAAAAAAAAAAAAAAAAAAAAAABkZXNjAAAAAAAAAC5JRUMgNjE5NjYtMi4xIERlZmF1bHQgUkdCIGNvbG91ciBzcGFjZSAtIHNSR0IAAAAAAAAAAAAAAC5JRUMgNjE5NjYtMi4xIERlZmF1bHQgUkdCIGNvbG91ciBzcGFjZSAtIHNSR0IAAAAAAAAAAAAAAAAAAAAAAAAAAAAAZGVzYwAAAAAAAAAsUmVmZXJlbmNlIFZpZXdpbmcgQ29uZGl0aW9uIGluIElFQzYxOTY2LTIuMQAAAAAAAAAAAAAALFJlZmVyZW5jZSBWaWV3aW5nIENvbmRpdGlvbiBpbiBJRUM2MTk2Ni0yLjEAAAAAAAAAAAAAAAAAAAAAAAAAAAAAAAAAAHZpZXcAAAAAABOk/gAUXy4AEM8UAAPtzAAEEwsAA1yeAAAAAVhZWiAAAAAAAEwJVgBQAAAAVx/nbWVhcwAAAAAAAAABAAAAAAAAAAAAAAAAAAAAAAAAAo8AAAACc2lnIAAAAABDUlQgY3VydgAAAAAAAAQAAAAABQAKAA8AFAAZAB4AIwAoAC0AMgA3ADsAQABFAEoATwBUAFkAXgBjAGgAbQByAHcAfACBAIYAiwCQAJUAmgCfAKQAqQCuALIAtwC8AMEAxgDLANAA1QDbAOAA5QDrAPAA9gD7AQEBBwENARMBGQEfASUBKwEyATgBPgFFAUwBUgFZAWABZwFuAXUBfAGDAYsBkgGaAaEBqQGxAbkBwQHJAdEB2QHhAekB8gH6AgMCDAIUAh0CJgIvAjgCQQJLAlQCXQJnAnECegKEAo4CmAKiAqwCtgLBAssC1QLgAusC9QMAAwsDFgMhAy0DOANDA08DWgNmA3IDfgOKA5YDogOuA7oDxwPTA+AD7AP5BAYEEwQgBC0EOwRIBFUEYwRxBH4EjASaBKgEtgTEBNME4QTwBP4FDQUcBSsFOgVJBVgFZwV3BYYFlgWmBbUFxQXVBeUF9gYGBhYGJwY3BkgGWQZqBnsGjAadBq8GwAbRBuMG9QcHBxkHKwc9B08HYQd0B4YHmQesB78H0gflB/gICwgfCDIIRghaCG4IggiWCKoIvgjSCOcI+wkQCSUJOglPCWQJeQmPCaQJugnPCeUJ+woRCicKPQpUCmoKgQqYCq4KxQrcCvMLCwsiCzkLUQtpC4ALmAuwC8gL4Qv5DBIMKgxDDFwMdQyODKcMwAzZDPMNDQ0mDUANWg10DY4NqQ3DDd4N+A4TDi4OSQ5kDn8Omw62DtIO7g8JDyUPQQ9eD3oPlg+zD88P7BAJECYQQxBhEH4QmxC5ENcQ9RETETERTxFtEYwRqhHJEegSBxImEkUSZBKEEqMSwxLjEwMTIxNDE2MTgxOkE8UT5RQGFCcUSRRqFIsUrRTOFPAVEhU0FVYVeBWbFb0V4BYDFiYWSRZsFo8WshbWFvoXHRdBF2UXiReuF9IX9xgbGEAYZRiKGK8Y1Rj6GSAZRRlrGZEZtxndGgQaKhpRGncanhrFGuwbFBs7G2MbihuyG9ocAhwqHFIcexyjHMwc9R0eHUcdcB2ZHcMd7B4WHkAeah6UHr4e6R8THz4faR+UH78f6iAVIEEgbCCYIMQg8CEcIUghdSGhIc4h+yInIlUigiKvIt0jCiM4I2YjlCPCI/AkHyRNJHwkqyTaJQklOCVoJZclxyX3JicmVyaHJrcm6CcYJ0kneierJ9woDSg/KHEooijUKQYpOClrKZ0p0CoCKjUqaCqbKs8rAis2K2krnSvRLAUsOSxuLKIs1y0MLUEtdi2rLeEuFi5MLoIuty7uLyQvWi+RL8cv/jA1MGwwpDDbMRIxSjGCMbox8jIqMmMymzLUMw0zRjN/M7gz8TQrNGU0njTYNRM1TTWHNcI1/TY3NnI2rjbpNyQ3YDecN9c4FDhQOIw4yDkFOUI5fzm8Ofk6Njp0OrI67zstO2s7qjvoPCc8ZTykPOM9Ij1hPaE94D4gPmA+oD7gPyE/YT+iP+JAI0BkQKZA50EpQWpBrEHuQjBCckK1QvdDOkN9Q8BEA0RHRIpEzkUSRVVFmkXeRiJGZ0arRvBHNUd7R8BIBUhLSJFI10kdSWNJqUnwSjdKfUrESwxLU0uaS+JMKkxyTLpNAk1KTZNN3E4lTm5Ot08AT0lPk0/dUCdQcVC7UQZRUFGbUeZSMVJ8UsdTE1NfU6pT9lRCVI9U21UoVXVVwlYPVlxWqVb3V0RXklfgWC9YfVjLWRpZaVm4WgdaVlqmWvVbRVuVW+VcNVyGXNZdJ114XcleGl5sXr1fD19hX7NgBWBXYKpg/GFPYaJh9WJJYpxi8GNDY5dj62RAZJRk6WU9ZZJl52Y9ZpJm6Gc9Z5Nn6Wg/aJZo7GlDaZpp8WpIap9q92tPa6dr/2xXbK9tCG1gbbluEm5rbsRvHm94b9FwK3CGcOBxOnGVcfByS3KmcwFzXXO4dBR0cHTMdSh1hXXhdj52m3b4d1Z3s3gReG54zHkqeYl553pGeqV7BHtje8J8IXyBfOF9QX2hfgF+Yn7CfyN/hH/lgEeAqIEKgWuBzYIwgpKC9INXg7qEHYSAhOOFR4Wrhg6GcobXhzuHn4gEiGmIzokziZmJ/opkisqLMIuWi/yMY4zKjTGNmI3/jmaOzo82j56QBpBukNaRP5GokhGSepLjk02TtpQglIqU9JVflcmWNJaflwqXdZfgmEyYuJkkmZCZ/JpomtWbQpuvnByciZz3nWSd0p5Anq6fHZ+Ln/qgaaDYoUehtqImopajBqN2o+akVqTHpTilqaYapoum/adup+CoUqjEqTepqaocqo+rAqt1q+msXKzQrUStuK4trqGvFq+LsACwdbDqsWCx1rJLssKzOLOutCW0nLUTtYq2AbZ5tvC3aLfguFm40blKucK6O7q1uy67p7whvJu9Fb2Pvgq+hL7/v3q/9cBwwOzBZ8Hjwl/C28NYw9TEUcTOxUvFyMZGxsPHQce/yD3IvMk6ybnKOMq3yzbLtsw1zLXNNc21zjbOts83z7jQOdC60TzRvtI/0sHTRNPG1EnUy9VO1dHWVdbY11zX4Nhk2OjZbNnx2nba+9uA3AXcit0Q3ZbeHN6i3ynfr+A24L3hROHM4lPi2+Nj4+vkc+T85YTmDeaW5x/nqegy6LzpRunQ6lvq5etw6/vshu0R7ZzuKO6070DvzPBY8OXxcvH/8ozzGfOn9DT0wvVQ9d72bfb794r4Gfio+Tj5x/pX+uf7d/wH/Jj9Kf26/kv+3P9t//9WUDhM8SgAAC/uQsoQ3zCm8z89Ctu2bVPZO2kD8A/EA+HAWHwoGoaCIxEIJBwfHwPBgnEgPI6Dto0EKeYPe2Z37x9BRExAq6/7Q+UJekdn1x15snjql5QrG10qhCtdHlhcHE/KXTLKebDcS8ar0soLjHtGKzefm1+Y3Sq3F86NovCQzObIh519CwBTR5JtW2ZSTGjaRTOApmn8/z9amRW2QRISc861IvoPC5KtqtEBFkXExLiK917efEmSJEmRJLzhief/H4XdjnSKiqGM6L8kSHLjhpm87qxB+AIpAqT4Ona7+v/+Y/vP9p/tP9t/tv/sbGhrw5fy1m7vfV3I9fqseglO7WmYM/frqarB7Ga41K+XqgW9j2F/uQxR2e5h+HaNU8Xu4qVtvmDvlgYFo/ctVL7mqLBtXfs1S9U9u9N5zVRB7Veka65qu9VRpWu6Smqrmu8COfvc8ePy3CA3u7muskl9hQuOasyX0DQ+li+VmSM26C5IqvNdK38jJu45k3SkX7C047qc+C157mAMvkIX3qI67yWsInM8CU+r8CBW4FnzWnUBVE1xe+mJ4Y0bRJW5vfRgK2/cYCrH7CVGhXboSZGkUmL4plIplfFOvl/sMkcZL1Ef/ZMXYOtCuv0CnsOJIirH4q92tMup3+b89MlrZbvgbFV8tLMdmwWU5i43q/OMFmeBpgs0Z7kuy1vX+IbTwkU7jhccYe0f/ZhmzZ97mxlovJAS7p/ska6XmfFvUm2yJ+rZh+EUkqmKPb/YuKRRsjCcEwjMw6BFYVj36B+2HoVkMoMoC8NsK4kDXW/cFIPSgcsrFN1fir6ycUuSAyrzqBjtkpaXwL1L47qEZZkhucZxMUGJFYTbW/lLPkphiifTf3/wCXIi+av+yj64BFE5hXc2Q9GVbGw+QVB+/LtQGAVB+WnvaP08xeXFQuvPB1PRDeeRWHj7u35pMQXQX0Gx6reTUgCehxdDmVFiK9uReUi6+MoTSEgBqJeXAr8ezQPq1XVMvBLMnPJvtDj2vphIZ7CYROUw+gd7i+jOLOdtcRFeSvUtONkINa28J36HyscEzJmE4lr5l3Tfcmt1Qv/A6zgtt1YFFICFeQ1o+12dIfz2CfQaV6fpk9/MLRiiacrabyWSvomUlZJDsIYjNUqxvE4dO3z1afmjbXB5vdHbteVgJhoh5DDzEjD2V3gTaw1T02n4UDR9YXdYw2UxzX3rBubdTvNiNikJ1e6tDH6DU9aH0qDVEyY5xYG6vllB4GopfKlYygVWZa+WX4uarviM0Qq0w+J/xSwigItNmUVkhCAcqn+4SFF1Ad7b1LqOcRqUeI/U83391HsMl7M/oEclvWrrClyW1WHmwjn1fBsm53/AzAXVZ6IpHsvZU7WgCH8JE45TogpXD0t+TBvBeVx4uwjSJZsANSassq1W+hKOUyVN95N2BrlQMjQ7L9pU0autJ3/h8So3HZtwKhpcLupUVmsVCGmKzTszkjSkL+Hs0tFgoVK59ZLNLuEXmOnrnM3I5q+8DoXWVc1KqQ52B1hXtwsVgCqCtpZRPlWUj0WjiuskstVNYF2pz3UMefFJMKy3bZHzORwCFVDrLulAE49lL2bqIh8rMlOX65JOIKqSqbtZIwp/LdNZqcslH+vwFyd1g0Hs5S+Ti5MaxMnVHM78g4/aAuFdb1QdYJzaY6PqCkYUb5fuoKFIajA5521CD6rX92zWTK5YTeUfX1eDErTmsS/26Qwn54eDy0oX3mkHsi3n/BXMLFTq1SXRSbzuIza2pauqoKgA3O5ki8oyDezu5NjdQrMzsytjswg1UTCrY1NnbozKB8SDy5WT781O9CEVsoIzSyMdG+63hcVaH0IuhStiDBCpCkEQDa/89qDhBdlfZSwUXu7381JqXCD7a6D0MyWSnmglgFKaiOmxCZCByiPYtPrjqQg8P06ReM/ItcV+l2mQxTPkolxHLnWP3BWykk2P+TX9j7tG1ONyvJfYplUJaYdjW+iTtr3mVn1vW2w0uDt5CrxHuRwRdWBNIV6izONo849kXPeTz0uEeZxulVnnkth5Xjz9B71CIWSPSyQvHPKxFufHxE5tzHC22QMTLVJ4Eebsm29JlA52n5YiJe8e4lEZeZoqoE42fG/uBc2Ybradsp5sIIx8Bh5iKTL3JhKQyY+Vj1WXkQO3jl+ZPmwQxGsJTsqTkXlbkNCGBTiZr2GU2CYw+HO8UTDYtRsFBwE1hAMwjBKbBQTEth08cWLik4cNuODVNs/ppKgEuCIgBApiHhPD2bS49KySgTYNPAkX55xhZVgXRlxilptwkM2LNr5Iz92LKwx2pQ1SYufSydNVhbxKuQqInUvr9enIq2xF2Ca49LCaLG5jpEH1WNzIuDSUWizSnypszosiSmuow6KVUEBUXqLx2s5Ib6UViITeKbj0CipbfGwVpBVULVpG45FGiTXIrEt2YeBFwyXyzZU3C7p6a/YQdyvTcplSby4nIRRS0N6YdZL7h702S/fYbKSwDuJIKolYUw8ppSohJeBHZi/taUmjqfiLWgQphUWWZ3v9wnbymei5VO/Kzt9PPulJYp1uQt9PPg+CpLtehrB/sj8wFHFE4YUw/0oM0gVd4m+eKIaWkqQOTTtXik2TkFEESaqXbwxdV0qjF2mjrJcSw2ntA7njb7WFLoVKnBtkvZRwjulcTPXrKLmSB7Mz1ttXeGpGjehj2TtbHM4nSfR2ev2467bZkhD6NVCehi7WLUPtx0R1aQA7yVP51HYLtV+j2ZbgjjGgCZWQLbsgVPhdn6p93ieCOglBuEiyBFA0ODjxb2nRrLVtFxIyCpcLjrpK4k4eK3lqf5/oQnmVak65J4/NDjeNC693LVZBnXwnJ0T5hjS9oMh9Fio4mrZgDFXiyWOTWXk7eY2IMnIio3d29Tdp+hDLZ/XbZJmZ+WUSNlausHm5fc60wjB2UJKRr385a6hbSIeI9gS1NGUK2MyQzHeGrgUn6un3MHhJza73dYmDpdxMQVPymaDzLUt6rHQ8wg63txXJupjDKgMveAssIUjPAw/jG4p1IYfV3MAUICCZrDXaYZX6RLAuY/Sg8IsF91GSzbpsAN7WYZD0R+3vIvDoHVyDztuSL3eruSk1HEct+akiaN6WgBHVmMlugayP+RH3oU2QEoB3Q60eUXV9hKJCQbYyx5Avuqioqhlw9Tibt10O4aJZyup83YJCGKQXLpIiroLjPWpsFaDsSrTojsLavCeNq+Mh0iFZVD2m6vrkLUDzZSSLiLI1/POiemh81UOu6I7Udhr0oJCQ/r1cUfWIRHrELHgU/eTSlaAAixKEqiVBUGb+RgTmW6BJZM+3s4CL4nFz8JA4uQIVXuiW7Jqj9vBqOmfB4OTKFNVQXnP9akHXVNvJFPVVGApLJ5ABlRpVFZDIsSiz2U5UNEpiruDoCw0lZFkmGowj6ntNuKPKs0OWKPy47iKiLkgDMpOfcMgKZbo5F1EdtzTVlie6G9NwJjr7IR6cTvKcxVvdEOgN3GkBTWtp4Zxq/EWzCo+1jO3DDjGDXyyD3/mSJGL70OMN5qoWwp88ZWmOLS/12pDc6fCYL/1gtBYYyiTjKDISY0qrgO0jzjH+ol8lEBHDLhl7DlnHDx4dh8CRfwA6HBKDeWOIPiR7aKnusxm5kmv/hCdfFI3Vb2f6aFuOHtMrwufatJ0gXy8u8YUJZnXaD5Wvl+OGqkaafgL/cWTKWDFuaG/McpSfRwKwckN+ROh/Y5aoVR3J2ZIhxd+9MavUfewh5CedFlZipkWHzIjqX0lO1VEVV7sxiznOhMCrJOeKaH2Trm6pOg3IR16Kq928MIvV9TUfV4yr/rk02tpUU2MDaL/2EeNqmiBp3Nc4NfOS1C+81fee7LU+lUemlo+H/FT+4AlHCkFIMD3QkM4kS9DtbRzpfEroh5uNzcrLNkrtH53v9yFKT14nU0HoN1j7EdYO8hMEOSVQu0J7wBbKAwF2j/F4+omf54wtGXp2eEN3z4hSjYbAswRTgT9/dGS8razsdwwFf39HTwFPAAP8uEOKsI/dFIrQy13iRXP/je0REWd7Y26PJUdVnt4wC8ZWgn54j/kdYGNUo8g9QVQpp5R9oPTzzU9fnVHlBXzevoSq9gkOsxRDkY5wvf5txra8IlvWUmLwQ2psbc0ij+X21m0+/t8VnFzdu6ddN8J4gkwZDZ6ag3u1q2pmmHuCuv/0f+cxc7mcOLI8UBNmbMv93Fq3yFsU+iFuEu/5R/7TY6ZhpvonQSScMj6WDvNeiutOfhc/D3c5HH8BmVWfPlwT/98N3Ij2os7LiQtZg8r7XdGq4b62MwUduys8eXVivzFnBvY/4BEe6zlZ8XxQT4jQPjzjEB8qct7YT4ItwO3zwoPXlFh1/GYhdWL/0wQoExOf2zMWKV5qLMOlLdHWu/0t26ZQdFFnTDKZjAo38tJnA75C58eIez1/0GWHQuy/8B4OfG+2a+xjLW9H/gDf7gkKhXaPHmmt5HBa9j5wHILaWSf0XVYwOnFjuL0H4IlXmps2qbOV+oOjJuIae44H9RisIxZaaHydmKwEy0/+VWgI6Y9oaI39YzwoDaeJoaGF6hG3nnJy8jAuY46yBwxRcp3nJkw6cd59ysOGHi8i2E7XedpwkvrPr7t0nslLUjhvP/ZF06bZtxQ68lIEEpr3BH3mMq3tlRnn/ae8+IinktLS1RXSfeZHPTzOG5B7R1azzFtCLTlQLhL5Rw2n1V5+TM/AJZwhu+tigxWGf9kWCAn6+5RSs78U8qcdPe0pKCju11AzNC0II5hD+GqdggVzpvJkWp2dFAVnUFYXz+G6XQPLKkZ3lFYcMtGG6GL9l2Bo2SviLC0DmQ0tIzCPw3rcyyo4DyexGLCGcKZWUVPtpIBTAhNO/hkRxe8yifBawcZYNJafURwNrpmM7nJQndTBoUwYbgXT6AdJUTaMo80S5Io476Lzupih/bQ4Zj+RIQyfBUQ0hEmDb2wkqQTg8kL4UhUQX8taa9MJa56XAf1JKPRODRTf4VuPugSJHMdzUhPDVjzrDuJTm9iNpqJjiBS883xFrUav7mZB8WMv5nxcPM1zNydg+3E8Mdfy1BSU53qHzRZS5SKE11JMQVvN02SZ50jahZsQhtGJqaGpxdtiMgC0btiRPzU5HlAV/AuXIE1WjWY1IV0I2LyiTMrpnCa6Jzkb/TPuDKHao6+eKS3D1NCTo2uhze94ag87Ck6ojvgrQ0XOieh5urgg3PG2s/OpGpGyF86E6ZDo8ViqFr3XUrKdKq+Cw7NDezEDjfOGZZqMtu4o0CXVdUIhjzklwqoIi5V4NIae9UrJEjkLHsLtvCrC3jgNEkPPuqFkirrRQ//PD67wOZou2nnXSzSZonPRPV0CIfo+dx0CtGqUjtJ7oqkVEAT4roYwvuEJI75ZFdQQ6As80dQdm341E1vMAhfzCBd6fYJ7f0TC1aJFTiejRyKOm6Lv36+wawMv+qpJM5phXkWDgRaphr3a52myBBoLAZ0wbjeclghDmFMG8wzOdMkBOMiylzTQ1WEQ++PFJApocvGJ+35icQgkhXr702ltjf2fXhH4/Pa33wmXsMBjIRMSd8lk1ZX9JCBGR56VAJGLE4hrl0wr0NUrxJmC13XqNndIP1RVAEgsVFqOkJr2jtw7e+5UWIEYSI/hZmjKkrPCg+50IM7dO2msOUIO1OKV0qgURWUDrqrAkbIeQCfKBB3o9Psc0GOhPRcBK29X0+R08kXeYNO5Xr1/O02nZAm9AuxFCBopp8TR2T+rFtpNs7t50XAiV1WnrI2oAfc+dOKE95qVFDnR8LCsMb7wlLzMWEKRxzHPlGe8TjO7qVLZEdWSKaiPZfVuqdZlO9jyHhgzbjunxSEGdjM14W5gczpibMKe5PoZr9jqn/QgyppzDclVkC9SUAghVVVas8tygxMHCU4/b+bdyUbmU3yuye2KhGzxkHOfDgArRhce0RUw7WQ6hnxdEpgfnZou2PB0bOnEpswscKnGPSjIidz10H/YAoixRZpPi5qRS2vazP6AdwZ7AZJc/0jdFzWKTIRQ+6FnrGI79NME7X84aKDlQdpjrF7TiHhVOk5LJjfXfgv9VStZiL3TV0c/cTXopzkdV3fH7JtaHSDdnqAFCNkC8qcNj4OiYh9tb9FU+I54jWZCEfls0am7SXMB9actcBEucuDIIM6mA4VukHcMkIdYJnyrEkqIFbAssepQoTs9sGTcBhy9pW51gpvbqIezoCwMujN1e2bM6/TqaUjVWZ5hQl/0odK1Lt2TDkUOgMi+NxjsZCmfMsC4LrsVrQPOzMROGIPCbNMGBYiwF30wKxxWmgyWltYI7umd2/MGEIUiRCr2zKiKRG9YCP6BYiETGFGWBFt+QCEt8dl48zoViECexLuCQyEJJxVic5rk+l0UYrswIMygHpgF2O8flIWwBCVi1+PDPFmBQmL/8M2fhhFikk0iKvI3F3IDpBVlihjZB5mPRrj9+kG5oMSxZ3jWUomGGc5fyiZYnyScNDxGLhmExwWFGn6vwr6GaKkpXdQQrrM8PEOcRMHQF4mw9IVKbe7i4G22lEovpFEvU4/+Ne0sXntiDU7Y5J+H416SlodpxJ30uPHVEzaoi0Y4tBcBHup++HCC8SJdxM0+gJ11ZQQi45JhSVKY7WEZHauFn/MjxY+iHucqJhx4oQEZFbWzGUjUaEcnuprzI4WPkaEyGv5iDU7g0PeVEAN0hgOdSJN+JPv5/0UNRqUSicwt6DZ/ps+1wkziwerPYqt+NGuLSpQ1JaCK1yNtl4o6KfrTb+L+eXDIvEFGIHn5QK8WfhLlMt8lu1BjQ14jgpUBez3ReJHwXbt8vhzOSf+rJ3Ng4KM8quKwx4mM4/7Oz1vipGd/Yw6Q1hq/rhR6OAHtppMnpqy6izcoE0Fu94UizSKgnd+4VHPiupk0rjYFCAhgFg87noD2kSM2jK5Eac4niOC9nWFrR5n1DA5POINmmG/u4MCAum5MEpH/ZNs5sbHGHFSgQHI6LYlos36l89mpVKM4ucxBXAcC6fZpA6bjGcIgTi6tWFUufQE3AhfYZT9UBfqcwSdTnTgY/FDMRZj0Mz0/lX4EPK1ZuCWUcVrKYe5iD0TZwH6vhiq+uqo7YyIdFF5gYf7vNd7SF3Vw6OF5i67mY7wVyENAD40kM0oc6AuyjzLhmzRi4VZVNk7BwSddkX2U8V/FUdud+XZV+clXFNArso/y5h2P7I6cLdhxIgERd6jIwbYyXLRK0VsMHEJ2A5JyE8DetMkjdHugqAOk0khl51K+xbH1T+poIRXsu1aEHFntJXypVDoaVIRbSBfVoS4xhYVLSbNQ0zPUU9/0LlpD8WsUurdYfpLVxJH7C2A+SVcgfRf7bJYxwOdvxSVtCTREP0N3pITBleFWECuzaGKHzt+iZ0uy2kYacWEF2C9bCdztLKp3XaKzEDJept0utIXVFBRS2ljdwNas21fITBr6t8SAp1klgbY9HZhcbIdqP8+YIY2ehRuRoX+Lu5rH0qwST9qeBQFfsKgH9lSDakEhJmx0sOSf5nE0Isa+lsnqYa0BdWRjFsI8M+x6CgtIWJKAyuV8HjxwC1o8kjS2/YlEhDWom/owTTP4WsR5IuY/e+BCxgX6FP1p43xmn1TCj6tnpaooeHCuE7+jhgmPlJoVaHEzgGAGXLTezB3DZT++R10ACqfRn7ONRkpQz0tw4wU1e+mIYtGuw5PWoT9nm45TFKaTEiK69GdAmiqFKkiLVnzBQkXGAvWOl9vICpAcRWcoAHvoevolFwLKGKAnhbEF7hlN0RmyHZRHTb/kgkVJvE3EJAIFtkrSGVIV1KtqIz+rD4XlrL1gbnWz5lJD1BlKkPi5if5c+hpC4q1ezbGQsPdnnyEPKPLmMZWNQ7nHRtUWRyj/JMyPKncwlEhFfwKqsPAtgdCHdIEQu+tgNlTysy2zCLf0t0gfdHBQqbSotbqj+JNfWIjGd5MwxISQ8bc98rd3d0cEoD8xeEd3kwjk8LUC/iMZ++tMxMj+11Rk8CHSUHVFoeu8jEAfXhwPJEaTyC/4LGKTu1BrCl37dcTiJ1dpfPnHnrBxYpO78OTlzKfxbRQc3Qq99rer1JcEZbGFmukx6YL+hYIzktGtZujZlSG4qF+u95TgP8LyRIDutyReHDdB0ndU5BQdkEhtXICh4Ynnbq9T6nMtK7ieiWltBmBWEp6IGF66XaX+ukiLZeUGUmufHoG+I/b5jU+iPgfWsNZ1T2pP/yW4p2T6ld+Ir22EQ7WeKTCE6go5ijf76XYSf2VYTIwkRUG3ZqHShPUFlkqzWzlLffbaqHhbBEgsINOU9XzXOXnnTPwrXSeZt0XbelRCdVW0nJOEKNr9dW2QHpQhJLlgVqR2KG1CcJJUnhq1abRTpxOe9/tzWYRPwYPIEOkp2tGj8YwjmhvwCNU1zGHg7QbpMOlNnqCHXsZS3aFCaI+BDinuztAchuMWsVZD0k1AI5FWt0jK515fWvCAvff1STtJpsw6G5pY2yd+a0BX+Cvp9nbrNK17H5EE2SdVVSEBtikn+Jd7Yj/iLhomc6FYlE+9NIfkb4DaWNCQMKILZlcSFs42oqNxDWkjIpAxUM0tGpSFFVkcFS3jz/Tu980e9SmydYJnC9amnOB/4vddDEWDRpbKw0Hbo3CAJyL8ezOit6UANmQMvqkeww9rffhdWUvGg8+X95cRdCthahrokioK1INi2Eg5vV04YVo4xw7TYrCPxqgl7NO2EW/XjJ0HJiyn4uQ9ac4NI1IdmOIjk92yZ4XBzlh9cM17G/WvoCEegnD+VgAf8mG8j0j1AoTamP+FRHY7tht8O+IheXpODj5ieUiRB0rlawoZCkh7VMjwpvojM5WL5a0VALlhA0QbYcjZcXUc785U3zBcGzC34P1bJ0xhoBmsf0bGqFxIpT26/TsobuSjHajsnljrchcXthpmfAShiMkJDu7hKwnYflzi/njgQmJsBe/fKgcW1lY+WfJOnPcDST7ohzkwsLYqi8ZiMGPBm1WhfRTC5VVokNuc4vt/VdFQbtHIx9kbnEwdaAH78n0b3019coQ8m9JPPxxcu+XTimA6ZQRQPF20zPcGax+Qdsvhe/IL7iM9JFi6qXwtrCiQi8E2w/sQ88347smB+lMVGKd0LAAnnHFJ7yUFx/59H3Mp4wMnas2RcSRjty7E8v4otZQQvDUimYE8n64YB8Mpo2ZSIKvRg7FfiaLvlH81FJNiIOy/StAa5xD6UQOsW/CSnIkNLyXu65StqAHVzVyFl4jimQ8qnE+rOSxUt4qTf8FVcfvXAirHOdwsAe7RnShLDQNoPm3uoc5jCUgPv4yWIfIjgs5EGbXuCSBuwRAYUw/PexAhzjGPBjNy2BUIUCA8madSC02C0B3UqMIUdawB/jnLw8nxWAP8pId4QEpaA+LTO5EMPYeBrPtKZ6kW4zKg4VhcCdXteiiDPLwIabJl09o7braXqNvzCLJ5X6juItBfil4X6YU4+ILzLwcfeBlwbyu2oITH2BotYBZfhbkM+GeCSmJcTUBG466HlWRTkp6faRHubGck/KsPC15cCNKI7yC6qW0FIU5xfZXhshBUNSJJjZPjPqBeXd3vlyjCTDOk/kVRcPvMygWg01c61znRjPllqtgQJ95qySuwyMIxHyKZIgxUD7z8CiN7fy/XYjHo+qFAthw3lJlkEvdVEt1y0M046nAU5CGQjrUeVDMwjllEamfvwrSTMigZKaghMrjrWphWwI3QMkJoEwS2SFUAjfzEdfyMN8iVIY02VxSZPUOvC2n8TaiIzJ6iV4Vzwq/SJWZP0ktC91PuQRKzweq814Q3M+dHsfKy5+nl8DKKmnQLcvJi5E7Ui0Gc9sAN4mLkLk+XiblopkugsLNnxsQ6UM0rI8qg0vR8G1eB+LDdAxKFBpBPKZkYn/mUrpdIESHkVLoAZDW7XTAiSxk7NxMY6tHd/GE5lBtra2LiadIfnFkBeNYKj7U1O9ERuTl+NAeiU3mEFvLs41KNoJ7O1m2xIkOqPjPNRUNoKKPpqQQb8trc2uSiOTgTAMaKCQFY9b0MregnpDbkWUn6Bg9SJxQ9qOdNPJIlaqukXKCv8GgJWDd/KVmJ6SzQV3hQ1/z3ffwlyN0QtFM5kIcW1JsJbDRcPNimPZKG4l/N4JzxUsFWh/qkC8kcQOfqtrSI/SCDJAnVK7g9cydmYv87oQBq0KKB3C13RdbE/uesUlLejaJ53W2aYwVXO5WLppJOoPBqk2WEuJSmbWKfjT9B5Os4y+2GMTF5xoxZWgs38fV1rJTWsSzYBc5BPCvm9XGN+V7ehNsT0/rCFzSw2eXXBcfbgszf9ZS9GM843F9RzkouKtIWFIB0XkHK6egdQQMCXhVOkK9KXihA1K8rhE3bRnfXsP5R/82MuKNLvKKivcfD/pu4ux8Jg/fXg5wgcJ8Ofc/6B43ZReQ+IwUdD3pqVLNfFjaclFi5K3RQHsksaZVSqEQ4BAN3m4sVS4RQoFkf5F3Xsr7fBnyLgEPNtjhUe+bbGKJIt7Rw159r9Hr6dN4OGWUX0SpxSWHSEqEqwek5+57vp3+1gKn9lA+6U0lhWPMLjT1Dwd7pv+dW2DK9EanPWx1prAuhFCKiglqYW1Ic/L8Sv2UPZUMspVHzpnPIegs2MqN9eD72x/pJMap69DjcJuuZYhiyzlg7JCiok+yjiqcHeUekF5Sq9UDRg7AdZOzlKj1I5MAJScae2oA0ZbcIIyEUcmFhvO9sq+Sx+tNpxO3N3Iq0vd+X/eQzERcFjBJCIN4cbruElUk+IF2enYj2pNVAkjSSezZ9tBr6Bh3dCAiKVEPgS4+EbEsnsqJQ1mgfhCVeAmjaKgikGvqsJnX4JeJIm4GZG9JF5zb2X9OB3UHuF9p+kbRZIbBrEXonIwx689knoC8MO4pJ17cpZLZfJOw6GBdz2zYwiiaXK922Drqj+F1fsEhUL5nZuiiG6Hx6tDzhWigZnUewWwb9JLyYTidG+G7cPLm7hO2Cdira81BOmyVT+erJTzRQhSaalrxipro/girUhU0u0d/uEfRolpEG8twghSi0BIxsWHdHmVBhOfWmMbtjw4l5W3RqQfcNJ8/cywLuBnfdGxR/Q0919sife6RK2OxcGkZry++NnduKqqKat0ZKqkJPRYPJnyezXkAEfwoGd2Yph+rS2XyuaTyWzo0RiF3U4EPljeG0qFZpqbovioYCf0FmjZWP0VH7kY1Oq2qdk0ee7Zpk4JeVaDRiz55H4uIL1aw8CUFzctF9WfkBKOwy94VNC/bBQtHNFEEcAHIP0ciZwVUVE8pmbtFpEW9IZLz+k1E/7tMa2Qpjep6U31lKCsFZK1CKv2dPNXFayeG0mu1wSxNWUZW4GtGfRoCBDmNl0it0P8l7C5dBCyJSebwAq1FjtvwCNDFzjunrKl5oVWWqjKsrTvMS27lr8qXvhCzf40Dld8E6fRUtrJ3bcXBP91NW+SBQFu1NlFZtjsXQcPIy4qCuWk65OsWDh7obMZH8zbFRdQfSyxQbVQcY9YhhpFYi8hwORuqqJMTRDQcndZJQ2sFwsFKfAgo48LLRF12zFxZeRTPYJ7cjHysczNSneKx0kKm3waHW2Yd4hspmTkfxWAc7tZaORSnPXdU9QPQ3C32pU3kPWGmlNLu4BSzdV1oTAd93gBWWWrajoTCIwN+sbtpSa4mkEoE0fwYnpwLw0GemL89fXRb70Nfk+crCEUBuJCcfk77nI0CoBBgrD3YeDN5lveKyZxf96mEXXO8GnSnT0ilWIZF9a2kvIOAK3qoO452OjbTQIJ2MtyPhN5dA1EI5hOPU1cHMhXYcwnEKx8HMBfGUI9Kpv8H4Rg4Mj3VcuXyJK4zcMepldUuP5erYxI3DrF580CVp4ziXT7NTPs/FkKnyEUoTRUNCMgduhC41eOHl4K36KBcnCKjOg6TM5swdUI8f6ik/LqMrXmP5IB1uJveVZy/x174T46pWQtUjC2uaUkYhDaeMtkEztqUNoffz2Q8/OO7aniGXOuL11w2sBVMYyc0VTBITt8CcgJ5M2ZZz1oxt0SvMBKHBSUsTIys7XQ4ZVSlI8TGHxCikVlJ4FgDIBi+kisVnPj649RdEEAAj3+zsiFQlEgrAcRFJTDXpj1x09mJq1FPlIpSc6hbPxB81HzyHqqxNDtEGrMsogJOHlSVVgmq1WWAhASJLqq0UhYWyC571telnK/oAHqGUAuDgejxYr3TnKcoIOR0pBcDAbITKwX0VOIr0kmPCflX4CT3LnsmUN/yzzSEA5YaCfduTEBqiyEx6f3ldBTIROLESbkiyHDkFGFiUHPOtmxAsTuaBEMfUtVkYR+AdQcO+roqtsFY769y6EViHFmTWkfq9JIxj4xY3y8xlcifNuFSYXmSdFZH5lmihW5l1aJdn292qGZk17r+z7fcrrKXzGwW4vo+BayEE7oqZ1WCA1iSpK56F0CyHXwB6PgdtMpmPeduozvXuRjGfZyH2y99YfZsy1UNtjoVeZ7oerFkRP3r1D3e1E+Y9aWCY6Z7tGcbXkn8vrDGEkOaMaF3j1wF7UIJI4s3NPIfTwyXZdflP5o15tiSQTqHh4z5pcUtNr7XQcepHbutc6mwrWSKjTPY8lySuwFAVl+gR5XOHochnI9OSu6nz+2Cc1t+ZiXzXTPU04h1388cmVaYBQTq2qVJ5V5ul450Cxexzx3BsV2XnVtJxc4bGO3g7rxPub3PHqI5tq0Kf4WqPnat0mtOzWpt3YfzSBl4YFUx2xy5WytcBLn6HvRjHOHkYJW6+/ZVPqkR51HuP+5YCBDwNByF8a5OJt/rY7er/+4/tP9t/tv/8ic2Pn/9et+rfnz8ejGydEoWHFOw+3pXaA/OpyOKEEDPFcr4/nl5RfzAA5fZADG8nbIQ/n19Pf3IF1594Ye6EbfDj3xfX0w+u4PqBFu5O2AV/XS/wF1vwF1q4O2EX/P0Gf7MFf6OFuxMaEMCr2IILLdyd0ADnJmQBFlsApUrshNt/dhaQennj+tb1vv9o16CPxmH2eZWRtip0wDn/x5t5rJuJ4H1lFxZsYgN44/oAeqF8NApTzytT2goom0MDwEwE76u6sGIT68Mb14fUe/x8/tF+DvloDGaeVylpEKGfzghCvF0TvK/owpJNvM7P72oeeOP6kHp/XJM/GoGZ51VKGlLoj3+HAuaEEDMRWkfMhUF+9u5eMw+8cX0QvSM+2n+GfDQCE88rW1oVTLPMwpo0iJkIrVNzYc0mVoc3rg+p9583+GfIRyMw8bxqSUMK/RspHgitU3NhzSZWhzeuD6IXykejg+/8MGwOEppmqrmwpq3VgUizfUgqIDo/Yjano2kmAz/77cQQsu2Qj/aFCpRL5u9Hig/l+4G/v9r5q31epyG4eGddmgmQca6swBuJ3aPAP6/SEACkqULwMRbhz+Mo8Nf15p8IIW1O/HGwAT9e4OUKIm1I/EpLDQfBBx4PSBH4dg+RNiT+89+vL8UWGZHm+QEibUw/+ckA3ORoMfGjzemP/AQD1CXhtADKRXJccIjXsiz/QwVUK4sfpx61Kf/5auefr3auAEj7GESv/HBKjIgL/8riYdLuhzgl7UuXOWfrtzzISCpEDFjax3g8lM+LNAwPZBDalunnXCWsTrCBgCFv8fw9PttmqN4l5nyln+PPluBITKTp3fl7PCCWhCA90TYbas4CaK6DJV5+JQQ/X31riDQeSNO789d4QCwJQTqNgg4//h1e5ApWb5nn3xqr900qKoQ0iyQ5tswrJAdiSQjaSXJkOP4cXqAWVm85Bdnzbw3V+8eLdJUQaRYp0GyZVwQaxJIQtFOgsWGmilRIMfnz+bcG6CW0gEtf5hVwibAkBvEEl1youYIFcgxfP59/JbDe/3r2rS8g0izSFzsyPQUZwJIg9NMXMxnyD0Zccr+4Weju2PT4Z7fjr92OH5sdfx57HX8c+xrVGv//h10dAEVYSUYOAAAATU0AKgAAAAgAAAAAAAA=" vertex="1" parent="1">
          <mxGeometry width="46.36" height="50" as="geometry" />
        </mxCell>
        <mxCell id="uIATgTCMKuDsSCNxfTma-6" value="Our Games" style="rounded=1;html=1;shadow=0;dashed=0;whiteSpace=wrap;fontSize=10;fillColor=#666666;align=center;strokeColor=#4D4D4D;fontColor=#ffffff;" vertex="1" parent="1">
          <mxGeometry x="70" y="17" width="90" height="16.88" as="geometry" />
        </mxCell>
        <mxCell id="uIATgTCMKuDsSCNxfTma-10" value="Other" style="html=1;shadow=0;dashed=0;shape=mxgraph.bootstrap.rrect;rSize=5;strokeColor=none;strokeWidth=1;fillColor=#6C767D;fontColor=#ffffff;whiteSpace=wrap;align=right;verticalAlign=middle;fontStyle=0;fontSize=14;spacingRight=20;" vertex="1" parent="1">
          <mxGeometry x="170" y="17" width="100" height="17.06" as="geometry" />
        </mxCell>
        <mxCell id="uIATgTCMKuDsSCNxfTma-11" value="" style="shape=triangle;direction=south;fillColor=#ffffff;strokeColor=none;perimeter=none;" vertex="1" parent="uIATgTCMKuDsSCNxfTma-10">
          <mxGeometry x="1" y="0.5" width="10" height="5" relative="1" as="geometry">
            <mxPoint x="-17" y="-2.5" as="offset" />
          </mxGeometry>
        </mxCell>
        <mxCell id="uIATgTCMKuDsSCNxfTma-12" value="" style="shape=image;verticalLabelPosition=bottom;verticalAlign=top;imageAspect=0;aspect=fixed;image=data:image/png,iVBORw0KGgoAAAANSUhEUgAABHAAAAFgCAYAAADTmI7mAAAACXBIWXMAAA3XAAAN1wFCKJt4AAAT+0lEQVR4nO3dQYgk13kH8KmkbUUkWFESl4xgkQhCCUsu3tU4dlrIwQEhlIM8l8gnM1phCMHoJFZ2brkkuNlDMHswGC+DTzYYBl+EEDgQYRGj0a5vIhFCKFGwk+oEE9nCjn2oHINBeu2dNzXvX92/3/XrevXVe1XV038eTDeO4x7ALur7vvgCXC3X59VKpMPjsZtyfPM/rU3r13r+p76/Wtv1+W19/bXMX5n5KUt//6ZrfX9Bsl9r3QAAAAAAZQIcAAAAgHACHAAAAIBwAhwAAACAcAIcAAAAgHACHAAAAIBwAhwAAACAcIvWDQCQ6eigG0v1w+OxO69e2D5zv7/6vi/2v1quz6uVJrb9+ud+f8Kcef7g/dmBAwAAABBOgAMAAAAQToADAAAAEE6AAwAAABBOgAMAAAAQToADAAAAEE6AAwAAABCuG8exdQ8As9T3ffEFulquq8Y/PB67muOn7m+T2v43SZ//TfRfNnX/tbb9+uf+/ph7/7VaX/8m6evbev02Sb/+1vdf+vpBDTtwAAAAAMIJcAAAAADCCXAAAAAAwglwAAAAAMIJcAAAAADCCXAAAAAAwglwAAAAAMItWjcAwDSGYehK9b7vx1J9tVyfbUNwG44OuuL9eXg8Fu/vWp6PaU29ft5/0I7nD6ZjBw4AAABAOAEOAAAAQDgBDgAAAEA4AQ4AAABAOAEOAAAAQDgBDgAAAEA4AQ4AAABAuEXrBgBgFw3D0LXuocam/vu+H0v11XJ9tg3NzOHx2HT9rc+0jg664vy2Xn/YZp4/tpkdOAAAAADhBDgAAAAA4QQ4AAAAAOEEOAAAAADhBDgAAAAA4QQ4AAAAAOEEOAAAAADhFq0bANhWd9/R9vx934+l+lc/ta4a/4lvjF3VABNrPf+7bhiG4v1Re39++zNd8fhN9+euPx+b1D4/6dc/9f2ZrnZ9P/cPHy7Wp35+N9n193/69e/68wc17MABAAAACCfAAQAAAAgnwAEAAAAIJ8ABAAAACCfAAQAAAAgnwAEAAAAIJ8ABAAAACLdo3QDAtnrivsoBnuvGmsOHpyrP/6WxqxyhqdbzP/f5a23q9at+PrZc9fxvubnPT23/n5t4/Fqtz9/atl//tl8flNiBAwAAABBOgAMAAAAQToADAAAAEE6AAwAAABBOgAMAAAAQToADAAAAEE6AAwAAABBu0boBgG310g9bd1Dps91YKj/y9bE7r1ZOo/X8P9L29PGGYSjeP33fF++/bz22PtuGblP6/V+r9vnZ9vt/7vMz9fux9fy0Pn9r23792359UGIHDgAAAEA4AQ4AAABAOAEOAAAAQDgBDgAAAEA4AQ4AAABAOAEOAAAAQDgBDgAAAEC4ResGALbVmz+uO/7weOxqju/7fizVV8t1zfB7bx50xfFr+6/Vev6pMwxDcf6nvr93ff1rn59HzqaNWHOfn9r+p34+N32/7O19uHz8zNen1rZf/7ZfH5TYgQMAAAAQToADAAAAEE6AAwAAABBOgAMAAAAQToADAAAAEE6AAwAAABBOgAMAAAAQbtG6AQCmMQxDV6r3fT+W6qvl+mwbAgAATs0OHAAAAIBwAhwAAACAcAIcAAAAgHACHAAAAIBwAhwAAACAcAIcAAAAgHACHAAAAIBwi9YNwC47uXF5bN1Djf0rN7vWPQAAAOwCO3AAAAAAwglwAAAAAMIJcAAAAADCCXAAAAAAwglwAAAAAMIJcAAAAADCCXAAAAAAwi1aNwCc3mMf+nKx/sI7z5xTJwDw/44OurFUPzweu/Pq5b30fV/sb7Vcn1crW2kYhuL61s6/9Zk3zx+cnh04AAAAAOEEOAAAAADhBDgAAAAA4QQ4AAAAAOEEOAAAAADhBDgAAAAA4QQ4AAAAAOEWrRsATu8Xt14r1h+79OVi/YV3njnLdoDb0Pf9WKqvluuq8Q+Px65qALbaMAzF+2Pq+3Pbef6gHc8f28wOHAAAAIBwAhwAAACAcAIcAAAAgHACHAAAAIBwAhwAAACAcAIcAAAAgHACHAAAAIBwi9YNAKf3i1uvFevfeeAr59QJifq+H0v11XJ9Xq0A/JKjg674fjo8Hrua8b3/oB3PH0zHDhwAAACAcAIcAAAAgHACHAAAAIBwAhwAAACAcAIcAAAAgHACHAAAAIBwAhwAAACAcN04jq17gJ11cuPyrB/A/Ss3u9Y91Oj7vjj/q+X6vFqZpcPjsWr9zf+0atdnatu+/unzX2vb12+Tqdc3fX5b399zn5/0/tO1vv+gJTtwAAAAAMIJcAAAAADCCXAAAAAAwglwAAAAAMIJcAAAAADCCXAAAAAAwglwAAAAAMItWjcAnN7HXr9V/sBHy+VX3r10ds2wdQ6Px651D0CmYRiK74e+78dSfbVcn21DZ8z7D9rx/MH7swMHAAAAIJwABwAAACCcAAcAAAAgnAAHAAAAIJwABwAAACCcAAcAAAAgnAAHAAAAINyidQNAhe9XHv/gmXQxW8MwdK172GXmf7dZ/+1mfeuYv7K5z8/c+wfasQMHAAAAIJwABwAAACCcAAcAAAAgnAAHAAAAIJwABwAAACCcAAcAAAAgnAAHAAAAINxi0wdOblwez6ORudq/crNr3QO765UnL7VuwfsBAAA4Lzv9+9sOHAAAAIBwAhwAAACAcAIcAAAAgHACHAAAAIBwAhwAAACAcAIcAAAAgHACHAAAAIBwi5Mbl8eaAfb/9+ZZ9RLp5I7L5fqG+du/cnOn/08909r/p49XHX/yie+dUScAAACTq8ov9vb2Zv373A4cAAAAgHACHAAAAIBwAhwAAACAcAIcAAAAgHACHAAAAIBwAhwAAACAcAIcAAAAgHCLTR/44tN3Fuuf/tO/L9b3L37stho6b3f91m8X6/v33yzWT+64XKxf+v37iv+n/iO/c1fx+IsX7i3W7/zgB4v1//zR/xTrr77xVrGuv2n7+5u/+kCxfvL0rWJ979Kvl+sb7O99vHz+T3yvavxaz35+1fT8AHN17Xf/dtLxn/3vv550fAC207XrV1u3UPx9/ivozqSLU7IDBwAAACCcAAcAAAAgnAAHAAAAIJwABwAAACCcAAcAAAAgnAAHAAAAIJwABwAAACDconaAH/7XD4r1f/nXf649xaT+4L4/nHT8hx64v1h/9Y23qsa/eOHeYv2eu+8q1vXXur/f21DP9uLzLxfrjz6+LNaf/fyq6vybxgfYVo/+48PlD/ysXH7xk9+tGv/abz5XNT4A22nT74NNf/9fu371LNuZwlh5fFdzsB04AAAAAOEEOAAAAADhBDgAAAAA4QQ4AAAAAOEEOAAAAADhBDgAAAAA4QQ4AAAAAOEWrRvYdvfcfVex/tAD9xfrr77xVtX5L164t1jXX9nU/e3t/eT2GpqZF59/uVi/dv1q1fEA2+o3vvFwsf7ShuN/9pnvVp3/xU+Wj9/U36Z6bX8AZHr08WVVfQf+/h9rDrYDBwAAACCcAAcAAAAgnAAHAAAAIJwABwAAACCcAAcAAAAgnAAHAAAAIJwABwAAACDconUD2+6nP/95sX7P3XcV6w89cH+x/uobb91mR7/s4oV7i3X9ldX2t7f3k6rzp3vx+ZeL9UcfX1bVN40PkOqnX3+4XK89wYbxa03d352f/W7tGQBoYNPf75ts+9/3165f7WqOtwMHAAAAIJwABwAAACCcAAcAAAAgnAAHAAAAIJwABwAAACCcAAcAAAAgnAAHAAAAINyidoB/H/7tLPpo5p133ynW//iP/qRq/Nfe/kGxfvHCvcX6PXffVaw/9MD9xfqrb7xVrG+iv7dus6Nftqm/uXvx+Zerjn/286ti/dr1q8X6o48vq84PMJWjg67q+MPj8Yw6ybRpfn701YeL9W2fH4Bttenv/3TXrl+t+4KvZAcOAAAAQDgBDgAAAEA4AQ4AAABAOAEOAAAAQDgBDgAAAEA4AQ4AAABAOAEOAAAAQLjula9dGmsG+OLTd55VL5H+7ms/rTp+/8rNpv8nnmwnNy5XPX8nT9+qOv/+1y5VHf/NW09WHQ8wVx95/bmq4//jwS+dUSfbyfwCMIVr16/O+ve5HTgAAAAA4QQ4AAAAAOEEOAAAAADhBDgAAAAA4QQ4AAAAAOEEOAAAAADhBDgAAAAA4bpxHIsfOLlxufyBHbd/5eas/488bc39+frmrSdbtwAAAOyIa9ev7vTvbztwAAAAAMIJcAAAAADCCXAAAAAAwglwAAAAAMIJcAAAAADCCXAAAAAAwglwAAAAAMJ14zi27gF21smNy1UP4Mdev1X+wEfL5VfevVRz+r39Kze7qgGAWEfdhdYtTOpwfLt1CzTk/gZgjuzAAQAAAAgnwAEAAAAIJ8ABAAAACCfAAQAAAAgnwAEAAAAIJ8ABAAAACCfAAQAAAAi3aN0AUOH7lcc/eCZdAMQ5HN9u3QLBNt0fR92Fc+oEAH51duAAAAAAhBPgAAAAAIQT4AAAAACEE+AAAAAAhBPgAAAAAIQT4AAAAACEE+AAAAAAhFu0bgA4vVeevNS6hSp934+l+mq5Pq9WJnF4PHZTjm/+ysxP5fjj21MOX23T+u4d1E3P1PObbtufn40+XS5v+/0x9/VvvT7p89d6ftJZP5LZgQMAAAAQToADAAAAEE6AAwAAABBOgAMAAAAQToADAAAAEE6AAwAAABBOgAMAAAAQbtG6AeD0HvvQl4v1F9555pw6eW9934+l+mq5Pq9Wmjg66IrXf3g8dufVC8xN6/eH55eSud8frZ+vqc19fQDejx04AAAAAOEEOAAAAADhBDgAAAAA4QQ4AAAAAOEEOAAAAADhBDgAAAAA4QQ4AAAAAOG6cRxb9wA76+TG5aoH8M/e+Mti/QOXLhbrL7zzTM3p9/78C28X66vlumr8TQ6Px27K8fu+L66P6yubuv+pmZ9ptZ7f1uffdunz6/2efX1z779W+vOz7cw/yezAAQAAAAgnwAEAAAAIJ8ABAAAACCfAAQAAAAgnwAEAAAAIJ8ABAAAACCfAAQAAAAi3aN0AcHq/uPVasf6dB75yTp1M4/B47FqefxiG4vn7vh9L9dVyfbYNAXAmvN/rTP39bH0A3psdOAAAAADhBDgAAAAA4QQ4AAAAAOEEOAAAAADhBDgAAAAA4QQ4AAAAAOEEOAAAAADhFq0bAE7vpb94qXULAO+p7/uxVF8t11XjHx6PXc3xwzAUj6/t/+igKx5f2z/zVnt/TP187TrPL5DKDhwAAACAcAIcAAAAgHACHAAAAIBwAhwAAACAcAIcAAAAgHACHAAAAIBwAhwAAACAcIvWDcAu279ys2vdQ5Uv9GOpfPcddcN/+zNdcfwnvjE2nb9hGOa9fhvUrt+2Mz915j5/c++/tfT52/R+7/vy999XP7U+24ZuU+38tv5+3WTu61Mr/fnZduafluzAAQAAAAgnwAEAAAAIJ8ABAAAACCfAAQAAAAgnwAEAAAAIJ8ABAAAACCfAAQAAAAi3aN0AMF/DMHSlet/3Y/H4p9Z1DTzXFcdv7ktjcX7SPXFf5QDp67PB8FTrDrZb+v1l/adVvf7hWl9f6/Onm/v8zL3/uTP/tGQHDgAAAEA4AQ4AAABAOAEOAAAAQDgBDgAAAEA4AQ4AAABAOAEOAAAAQDgBDgAAAEC4ResGgO01DENXqvd9P5bq33psfbYNnbfPdsXre+TrY3F+Wnvph6072G6PtG6gsV2/v6x/3fHp89f6+lqfP93c52fu/c+d+aclO3AAAAAAwglwAAAAAMIJcAAAAADCCXAAAAAAwglwAAAAAMIJcAAAAADCCXAAAAAAwi1aNwDsrmEYutY9lPR9P5bqq+W6avw3D7ri+IfHY9P5efPHdce37r/W1Ov/SNXR7dXOz6b7K/3+qb7+8Od/arXvl/Tnp/X1tT5/uvT52fT3kfdPnV3//mLe7MABAAAACCfAAQAAAAgnwAEAAAAIJ8ABAAAACCfAAQAAAAgnwAEAAAAIJ8ABAAAACLdo3QBAqmEYulK97/uxVF8t12fbEAAAsLPswAEAAAAIJ8ABAAAACCfAAQAAAAgnwAEAAAAIJ8ABAAAACCfAAQAAAAgnwAEAAAAIJ8ABAAAACCfAAQAAAAgnwAEAAAAIJ8ABAAAACCfAAQAAAAgnwAEAAAAIJ8ABAAAACCfAAQAAAAi3aN0AMF9934+l+mq5rhr/8HjsqgYAgFOY+vst3dFBV7z+1t/Pu74+wO6yAwcAAAAgnAAHAAAAIJwABwAAACCcAAcAAAAgnAAHAAAAIJwABwAAACCcAAcAAAAg3KJ1AwBAnr7vx1J9tVxXjX94PHZVAzQ2DEOx/9r5OzroisfPff52Xe36TX3/7br05yv9/dP6+6P1+WFKduAAAAAAhBPgAAAAAIQT4AAAAACEE+AAAAAAhBPgAAAAAIQT4AAAAACEE+AAAAAAhFu0bgDg/RwddGOpfng8dlOev+/74vlXy/WUpwdgIt7vdab+frY+AO/NDhwAAACAcAIcAAAAgHACHAAAAIBwAhwAAACAcAIcAAAAgHACHAAAAIBwAhwAAACAcN04jq17ALZU3/fFF8xquT6vViIdHo9dzfHbPr/mp2zT/KRff+36ppv7/Kf3ny79/t719U1fn9amvj9av3+sP3NmBw4AAABAOAEOAAAAQDgBDgAAAEA4AQ4AAABAOAEOAAAAQDgBDgAAAEA4AQ4AAABAuEXrBoDtNQxDV6r3fT+W6qvl+mwbOmeHx2Px+gGYp7m/37f9+3nu6wPwfuzAAQAAAAgnwAEAAAAIJ8ABAAAACCfAAQAAAAgnwAEAAAAIJ8ABAAAACCfAAQAAAAj3f7bSkEnDQGDFAAAADmVYSWZNTQAqAAAACAAAAAAAAADSU5MAAAAASUVORK5CYII=" vertex="1" parent="1">
          <mxGeometry x="115" y="390.00000000000006" width="620" height="192.11" as="geometry" />
        </mxCell>
        <mxCell id="uIATgTCMKuDsSCNxfTma-13" value="" style="rounded=0;whiteSpace=wrap;html=1;" vertex="1" parent="1">
          <mxGeometry x="332.31" y="330" width="185" height="40" as="geometry" />
        </mxCell>
        <mxCell id="uIATgTCMKuDsSCNxfTma-16" value="" style="shape=image;verticalLabelPosition=bottom;verticalAlign=top;imageAspect=0;aspect=fixed;image=data:image/png,iVBORw0KGgoAAAANSUhEUgAAA/QAAAGrCAYAAABuYtxpAAAACXBIWXMAAA3XAAAN1wFCKJt4AACH90lEQVR4nO3df2xe1Zkv+u+yLE8a2a4dIUR9x/XFXNnqMWJ063SulMIhPRid0EtoxW3IIZwpoLlxVKnTUJqWVBZJgWNN0jEMdEaqnGgEdE7DDUHoDOkMuRcjwoTxHzNxpYPiqWwJI9eVQQjFxrbS1LK87h97bXu/2+v9vfdea+31/UhR8u449s777r3XetbzrLWElBJERERERERE5JYG0ydARERERERERNVjQE9ERERERETkIAb0RERERERERA5iQE9ERERERETkIAb0RERERERERA5iQE9ERERERETkIAb0RERERERERA5iQE9ERERERETkIAb0RERERERERA5iQE9ERERERETkIAb0RERERERERA5iQE9ERERERETkIAb0RERERERERA5iQE9ERERERETkIAb0RERERERERA5iQE9ERERERETkIAb0RERERERERA5iQE9ERERERETkIAb0RERERERERA5iQE9ERERERETkIAb0RERERERERA5iQE9ERERERETkIAb0RERERERERA5iQE9ERERERETkIAb0RERERERERA5iQE9ERERERETkIAb0RERERERERA5iQE9ERERERETkIAb0RERERERERA5iQG+Z6ZEuafociIiIiIiIyH6Npk+AtrIxqO85MitMnwMRERERERFtYkBPFSk3yMCAn4iIiIiIKFtCSuuSwbkkhLgFwE0A7gDQDqBb/YJ63R758rZqv//UX32xzjNMD4N9IiIisoEQYqf6Yz82+2H92OyHxftkobYaf+Si5tiC+hWaUb/CP0+Ef5ZSXq3x5xKRJxjQJ0QIsQPAlxAE7GEj0Y3aG4DMmRoUYMBPRERE9VLJk7Av1o3C5EmbodNKyqL6PQz8JxAMClwC8LGU8rKJkyIi8xjQ10AI8WUAt2MzeG+H+w1FxbIM/BnsExERUZQQ4qvY7IN51w8rYxGbFQATCAYALgH4DbP9RPnEgL4CQoi7UBjAtxk9IculFfAzuCci20TKd6OipbxR3UWOR//ehHj5b3hsIvb6EoA/AACzgZQFIcTNKOx/OVX5aKlFBEF+eI9fAjDOYJ/IXQzoNYQQbQD2YbMRubne79nZ0YjWlgbs6t+Gz7c0oLOjEZ1fCNYkbG1pwOdbNncQbG2pfjfBpeX1Lcc+W14vOH5lenXj9fjl6/hsJfjz5NRq1T+vVvUE+/UG9EKIv0Twmd5e5ksX6/k5lmgrcvw99euclPLX2Z2O/dTA3QAqu0byLrxOxqSUb9f6TUrcc4tVfJuZ8l+SiGLzZkNtGZ2HixbV7/FS4DA7yHnAVJEsEih9vU0AgFt7mtDZ0bhx7PPNQd8r3icL1dI3Ayrrn819tIa5+bXgz/NruDK9uvFn3b9P0SI25/BPALgkpfz3LE8gaVX0/XQWkz0byqm2Gv7NewDek1L+OIkTYEAfIYQ4iOCG/xqAzmr+basK0nf1b8OtvU3o/ELjRhDvirDRCBuaz1bWMTm1utG4pNWwVBrk1xrQCyF2Afg5gNtq+fc59j0p5d+YPgkbCCGOAXjK9HlY6riU8ulq/5EQ4p8RdMqJQovIWbBA9Uk6gA/7Xffs3r6ROAmDdpf6Yzph/ysM/MMkTZigSTk5s4jNezfM6H+Q5g9MAtshcsAlKeV/rPebeB/QR7JyewH0VfJvwkz7PV/bjr6eJny+pcH5hqIa0UYlHFV+8+I1LC2vbzQ0tSgX2NcR0P9PMJgvpt/3TL16BoyZPg/LDVSTqVcZkaMpng/ly4cIgoSwKuRDw+dDKVEl9GElVM0VkH29TRsJFB/7YaUsLa9vJGbCZMz4xPW0kjIfYnOO/nv1VHQlje0QOeREvZl6bwN6IcSPEDQoe8t9bTjau+dr23FrTxMbjTLCxmTuozVMTq1i/PL1gnKyUooF9XUE819F0EkkvcNSyp+ZPgmThBDHAfzE9HlY7idSyoorGIQQl+DJtIWwfDcqWsobFZ1qpaP7N1mIl/8C2JLx+2x5HeMT1zdep5wNjAb456SUi2n+MEpXLAv/fwBorubf7+rfttH/cq3y0UZh8iW8x9+8eC3pYH8Rm5l8Y0G+T+0QOe89KWVdlSTeBfQqkP86gDtLfV1rSwMGD7RijyrbomSEDcmV6dUg2FejxlG6oL6OgP4ogL8MXx880Iojh9rKnqPrinV4Lly8hsPHP40eek1KuS+Tk7KUEGIMwF3h6xefuxG7+rcZPCPzxieu49HHP4keeltKOVDpvxdCFDQsU+8W3tPV3GP1VP1Uo9i82ejfk16xUuArU6sbg7l1PFcXURjcM3vvALUbUJiJL5s4CXV2NGLP7u3YtXMbEygGVNJHq8HvAfxcSvmDBE6xYuXaoUrkoT9I6avlOdV7528LXksp61onzJtIVQXyD6FE6XVrSwP2723G/r3NDOJT0trSgL7epiCrpZr4YyNXcfb8Slo/sj/64lZNNi0uzx0ITcOc1YJjNitYWbxUBtUXmk5MfAX0ulRzj+ky4GSX8PMMP6tin1mNwUIbgtZiL4AnhRDvIMhm/DSZs6ekqHL6cEHhioJ4VkDaRddHAwrv3fHL1zGpSvkr9DkAjwshBgB8R0o5nvyZp4PXI6VB08darPd75r7nWkkg39fbhCOH2rzPypnCB2Z2Pks5UHNUwcrmpbK0RFS7YsFCOMf3wjvXCsr6NZqhgnshxLcBnEedOzFQ/YQQ30IQxP85Kiin7+xoxMEDrdjVv43JE0dE7939ezc/4nAtpfHL1zE+cb3cVJzbECxQ/Ccpny6Rd3L7JFUNzJ8BuK/Y1+zf24wjh9oYUJI30s68Oqot+oLPA+DK1k7ZhO7riJLQ2dGI/R3NG4HC3PwaLly8hrPnV0plAfvUr6NCiF8gyNqfzuaMCahuLaJd/dtw8KFWZuFzprOjcWOHp1C4GF+RIP82IcRXpZT/kvnJEuVY7gJ6tYf8cQCPFfuagwdaMXiglY0KeYcl94WEECzLIbJMmME9eKAVS8vrePPiNZw+s1QquP82gG8LIW4HA/tUqbL6QVSwM1BfbxMGVSae/S1/hDtBhUH+yOgiTp9Zin7JHQAY0JO30uiL5yqgV/vIP4kie8gzkLdTJfPa68D50VRKwaqinHYTYCUH2SK6ts3S8jpOnVnC2fMrxRarCgP7rwL4lZTytWzPNr8igfx3UaKsvrWlAUcOteGe3dvZ1yIiykhuohshxEsAHtb93a7+bXjhqRvYuDiq1hXuaSvN/NRLJs6D7MZKDrJRGCweOdSG8YnrGBldLDZn92EADwshngfwM66MX7tKA/k9u7dj8EArF7EkIjLA+YBe7W/6HDSL3rW2NOClZ29kA0NUhJSy5ApUHiis4OACTURO2NW/Da+fuglz82s4NnK12GJ6jwH4v4UQz3BV/Oqo6YtPoEQgH1ZPsPKRiKhycx+x5L6AEOIYgKd0f3fkUBsOHmjN+IyoFil3BApWMPe505HGNhk5wOtDg5Uc5IrOjka8+NyNpQL7ZgAnVRn+Y8zWl6cWu/suikxfDCsloqudExGROc4G9MVK7Pt6m/DCT25gps0hn2/OLqDnlmRE1WMlB9kuDOwnp1Zx+Cef6qaN3AfgPwkhviOl/O8GTtF6ah2ihwDcqft7BvJERPVLYwtp56JeIcQfAXgVmu3oDh5oxZFDbZmfE6WH8+eTwz3otVhyH8NKDnJZX28Txl7pwNnzKzg2cjX+180A/l4I0S+l/L6B07OSEOLLAL6HIusQMZCnemgSKe26ryPyRRrrFDmVrhRC3ATgLcSC+daWBrz43I0M5olK4MrlWqzgIMqh/Xub8W+/+uNiO1c8JoT4h6zPyUaqvH4CRYL5I4fa8G+/+mMG81QzzUB5t+7riKh2zvReVTD/KmLbTHV2NOL1UzdxuymHpZwVbYu+4BxpotJYyUF5EQ72P31kh+6v7xNC/IPqW3hHCPEtIcRFACd1fx8OiHAtInLYYvRFka0uiTKXRoLNifrSYsE8t6Mjqlwaq2rmABfFi2ElB+XN/r3NuLWnCY/84JP49X0fgHYhxANSyo8NnV7mhBB/jWAHgC24DhERUbq8LLlXwfwoYsH8nt3b8eJzN7IDnmOcP08ZKCy5T3eBRiIypK+3CW+/0qELVO8A8KoQ4ksGTitTQoi7VFb+sfjftbY04IWnbsDrp25iME9E5BgXeq+jiM2Z37N7O1546gZDp0NJiw/K9P7wt4l8XyFEQZ2l74M/aYwIUv6wkoPyqrWlAa+fugl7dm+P/9UdAEbzXH6vtvkdg2YF+/17m/H2Kx2694XIZW3RF773Acken60kXwlp9dWttqZjME+16o++uLWnydR5WIFzoykLQohboq+Z7SObhJnoIkH9q3kL6oUQbWoBwKfifxcOcDx9ZAeDHSKijExOrRa8llJervd7WvsEF0L8BWKrru7ZvR3P6Be3IcfFO/29P/zt/2boVHKLc6O1OIc+JoGBn8KtAL/AgJ7s88JTN+hWbr8DQVVgLgghvgXgfWi2+Q2z8n29fg90ExHlgZW9VyHELgA/ix7r7GjEMxxFzi1Np5/bmiSMJfda3LYuhtcJ+eLpIzt0mfr7VHWg09TCd+cAdEaPR1f+Z3+KiCgfbH2a/zz6orWlAS8+ywXwqGqFmUKW/hIRUUSR8vuHVZWgk1SJ/WPx47v6t+HtVzq4zS9ligkbok2aatnFJL6vdRGyGlW+LXrsmSM7GIzlnKbsr1/3dVViOXXE+MT1+KFLJs6D7Baf2wVgwsR5EGWlSB/jZ6pa0BlCiC8JIf4ZmhL7I4fauDMQEVFOWfVkV/O9HoseO3iglSuvEqVASrklwvdQW/QFO7tE/ilRBfhz3dfbSAjxXwH8K2Jb/IYL3x080GrmxIiIaENaC1Rb03sVQrQBeC56rLOjEYNshLygmbvcrvs6qk1aJT6UP9y2jnwUrtMTc5va7s1q6hz/HkDBKn99vU1c+I6IyCJpLVBtTUAP4HuILd7ywk9uYMbME5pyxyTmWBVuW8dODVFZ8UXxpJQfGDoVokzt2b1dl8l+Sghxl4nzqYSaprhlS7r9e5vx+qmb2IciIvKAFU961VgWNEhHDrVxVNkjmk4HM/QJ4h70RETlDR5o1Q0w/5mJcylHrcb/WPz400d24Glu8UuWSClhU5IQouAG4MAW5Z0tV/hD0RedHY26/WEpxz7fzIA+TdyDfishxC3R11x4k1MziFpbGnTB8MNCiIMmzqcYFcw/HD/+4nM3sv9EFK/Q7GGCkOyQ1rRG4wG9Wgjv0egx7o/qH2boyYDCbQ23bq1DRB7a1b9Nt7XbQ7qvNUFtS1cQzIeL33FLOiIi/9gQNRc0kkUaUsq5lBbFY8CmcKEzqkR8/jx4nZCnNFn6O23I0qtgvmBbujCY5zRFIiI/GQ3oVXb+m9FjRw61GTkXIiIiIqDo1L+vmziXkC6Y7+xoxOunbuKUIbKWpgKzzcBpEFnhytRq/NBEEt/XdIb+9uiLPbu3c4TZU3zgp4uZV62COXZ89iSmoLqG06fIVZoV77+pEhGZU3PmGcwTEdEWxnpaamX7w9Fj3HPeb/FOSXzRshowsFC4yj1VIqGpGYVTXRhskKM6OxqxZ/f2+OHbdV+bJt0CeGEw73O7RkREAZMtwUD0RV9vEzNkntPMca93a5OCgF4zT5+IiKgoTaJhnxCiLaufr/aZZzBPTotfq/Ft5VLACjyy0mSeSu5VY1iwGB7nzpOJvUp9kdYDxHEc8Inh1AyiQn29TfG2qQPAvix+tgrmH4se6+xoxIvP3shgnpyi2TauX/d1RFQbUy3CAIDO8EVrSwNXtiduXUdZY2l4DKdmEG2lWRwv9bJ7IcRfIBbMt7Y04MVnb+SzioiICpgK6AsaQ86dJwC4dWtJVL0juG3RFz5nNK5MM0NP5S0xoCfaQjOPfiDNsnshxC4AP4sea21pwEsM5omInJZWfzzzCEc1ggXlaszOE6UrHqhJKa8aOhWyGEvuibbq7GjUld0PFPnyugghbgLw8/jxl569kfOAyVmaa5cl9+SltPrjJlKWAwgaQwBBQ8lGioBUFsUjKoW7IBBRRTIsux8FcFv0wAtP3cB+ElF1uEYOecXEFV7QCGoaSfJUknPo4yuo+hysacqoFw2cho0KG/xmf6+R0PjE9fihSybOg8g2mkrCO5L+Gbq95g8eaNWV/BNRaVwjh7xiogdb0Aiy3J5CmhHUehbFKyjn0qyw6g0udEa1klJuifCJfKTJkH9ZCPGFpL6/WgSvYHu6Pbu3cwcgyoUU1kgick6aCbZMA3rV+H05eoxlZBTSZNHbDJxG7nChs6JYch/BSg6i0jSZ8kSy9EKILyO2CF5nRyOeOZL2Vt1ERJQHWdegFDR+LCOjcoQQ25glpJRwjl06CqtjOGhLOXFrbxMuXLwWPdQP4NUEvvVz8QPca95uS8vr+Gx5HUvL65j7aA1z82v4bHm9YNrS3PyabqC0QGtLQ0E5+K09TRuv+3qb8PnmBrS2NGy0T7wmiEgn64CeHb0ELS2vY25+baMxeVN1NMLjOp0djRsNwq7+bfi8akw6v7C5iq/JBmNX/7b4PN47ALxVw7fi/Cll7iOuXE7lcWoGUWlprNQthPhrAHdGj73w1A1et1k2CftTV6ZXMX75OianV4v2r2r9/pNTm9tYRf9cTNiP29W/DZ0djRuDADYH+1z0mChdRgN6lttXZ0mN/r75zjWMT1wvO/KrE22ISjUcfb1N2NW/Dbf2NqGvpwmfb2nIpLFIcGE8llMTVYFTM+oXH0z9bGW96HP2ytSqbrCtog59XLwtDQdrW1sacGtP00aGj8/B+iQdlAghvgXgseix/XubWb1o0Nz8GsYnruPs+ZWa7sUshM8Y3fmFGX8T/TfLFCZ1tt67RLmS9RXOG6xKYRA/MrqY6KhwOZNTq1sai7BzuOdr2zdGhpOm+Z4cxa0TM69FtUVfeNjhoYSNT1zH4eOfZv5z48/qUoFIZ0cj+nqasGvnttSe43mlea9urnNa2JPx789F8LI1N7+GCxev4ez5lUz7WGkJM/66Z0BfbxPu2b3Zf2Ob559iicBi136pQelS4tNPsnJPlYOh4bSWYoq1jzbeO5m15EKIbQBujh5jR6K4peV1nDqzhNNnlkyfyoZwcCF6k3Z2NGLP7u24Z/f2RCouEl7pnqB9ULPknrbg1Aw/zM2vbQQxoT27t2P/fc3cdaYCSU0LU6X2hfvN/+QGKzuKeTM+cR1n31iJr4dQrUUEg+MLCJ6VM+rPlwD8QX3NjJTyaqlvorbYjSYu+iOv+xH0gcJfQB2LBesC/ayCfCZrzJmcWsX9gx+bPo1MmK6q0cVBYcUcoE2wJbY1cJYRNberq8DS8jpGRhdx9vxK2a+d+qsvpnYevT/8bUVfNze/htORgYe+3ibs39tcc+YnwYc+12ugotQAI1GirlhaolvOhYvXNoKbgwdaMXiglYFlEZ0djcBEwaGq2yhdqf3BA62chpiiyalVnDqzVEsQv4ggWJ9A0Pkel1J+kNR5qYA/GvRfLvdvhBC3ALgJQb+6G5uDAG3V/vx4kN/a0oB7dm/Hnq9t35iuQ27TTe2idOgGFMoMMryX1M/OMqDnImVlhOWapebGpxnEl/s5lQT5k1OrODYVtE2tLQ3Yv7cZ+/c2V/x5c+GU5GkeJhO6r/MMBxgpC2+j+P02AU0VhJSybIc+TgixM/LyjxBc32FWL5rlayv3vcIB2v17m3HkUBs79DEJrfOypdR+8EBrzedEemGl49nzK9WsOfQhgsD9PQBjUsoPUzvBGqkBhQ8A/Ev871TG/0sIngH92Lz/2yr53kvL6zh7fmUjqRRWYVbTj9MxsC0x11Ei270vpfxpUt8sy6iaN1cJI6OLRcvrswriy4mfR7kAf2l5faNzWEtwT0TZ0WSXOfBTJU3QcE5KOZr2z9UMAmzp6IdUdu8/AbgdQaf/Zt3XnT2/gjcvXsMzR3ZwkbYITbVXVSvdCyF+BJbap2pyahUjo4uVzuGNBvDnpJSLaZ5b2lTG/18QewYIIdoADGDzvq8oox+vwgyn5ziQvee2tMUtao4Vm2K3gNr6AvHpJ1kIq1aqEQ54FVMsqdhW5c+Jex/Ad+r8HgWYobfAsZGr2hJ7WwL5YqoJ8KPBfWdHIw4eaMU9u7dvaRA4zyp5nBtNlA0X1quIZPdOA4AQ4i4EHf2vIxZoLi2v4/DxT7F/bzOePrIj83PNGyHElwGcjB5jqX1yJqdW8eSzVyuZR/seNjPwb6d/ZuapgYrX1C8AtQX50ek5pfpyOq0tDQWDnkKIHeXWGKD6aQbrT0opT5g4lwz8yuQPj1XLAYUVc4Aa6JBSFh10r5WxDD1HywLF5svbHszrVBrgz82v4djIVRwbuYq+3iYcOdSWRskzd1RQ4kFGkvP/HMYtNGMSDEZ57zlEBTRvA/ixyh5/HbF90c+eX8Fny+t45sgO27Nyqauz5P7P4t+Lpfb1qzCQnwQwBuA9KeVrpb7QF0WC/LuwGeD3o0SAH+3LdXY0bmy5WCxhd2tPU7xqoh81LChJZKsiU+YSD9512NMyaHJqVVdm//7UX33xNt3XuyYa4BcL7ienVvHo459slOSzc0NkBvehr5/r1TBqPt9PVWBfkEkOs3IvPHWDgTOzh2aLo4oCet1CeBwgqU8YUJYprT+PIIhPbK5qnkUG+AAAQoiDKDM9Bwg+i5HRRYyMLm4MVJUK7okoWWxJDHry2S2VRrkJ5qN6jswKAIMAfgFAu3x/WJL/lXt/F/+rxLZ08JEmSFs0cBrkgM9WGNDXKy/VMCr46Ufs+Xvh4jWrtlJ1zHejL/p6m7g2QY2WltdxbOQqBh6cLxXMvwBgn5TyPgbztZNSnpZSPiyl7EZQnv8TBAF/0a2Ywt2aBh6cx1fu/R1On1nC3PyarhKuqvUnqtQWfeHzwBkXRvYDh84MmZtf091kzwA4Z+B0UielPA3gtBDiJwD2IRjx3VvBP611SwcuwkilcFvDmPjzqJbV1ik/pJS/FkI8AGAUwH3h8ZHRRWbeqqSynAXTGJ75AdckqMXk1Coe+cEnpVatfwEsq09FNHsvhLgZm325O1CkND8M7kdGF3V/zYQNUUIY5RgyOb0lmH/NhwZISvmhlPKnUsr7EIz2nkAwt03njTpG1rlmA9xYpIsoD/JYDSOl/BjAIQBz0eNFOudUXEF2fv/eZq7bUaUwK3//4MfFgvmXEWTkH/OhL2VarC93MzarMOdK/8sN76exMBiRrzjEbogvW0SpcnstzWJM4UjvJXDOG1Fm8hiMUjKklB8LIZ4BcCo8duHiNUxOrTIorYBum7qDXCumKnPza6UC+XcB/FJVAZIBanG9sAqzDZuZ+68B6NT8k8S37KLiNNNSWBmRQwzoyQrhYkymzyNvOC+6KK7ETlQhKeVpIcTXAXwzPPbmxWsM6MtQwU1Bdv7ggVZOV6jC2fMrODZSdGez56WU38/yfKi0EsF9NFmT6uCLEKJgPgunXBaSUpZcRZLclGWrUlDqqykFppwplZ3PQFv0ha8PdK5cTpX4jNdJ3Tx4D3+JSEB/9vwKjhxqM3YyjhhELEPJnVwqd2zkqnZbXwRZ+b9lab3dosF9xj+6cI2cHg48Uv5lGeUUdG40nR+vaBbhSnO1TyKiohIe+CmsfvAkG5n3wTMVPH0Yvl5aXvdyYL7SrQl12fkjh9q8HVyuxtLyOh59/JNiwfzLUsrdDOaJyuN0On9k2bIUzBHXrPDuFU2Jb8/0SJc0cS5pMJydJ8WXtRpq4GXQSVSnwnZ86+KutGlLdn7/3mZDp+KOcL68Zt7vCoBBKeUj2Z8VEZHdsgzoC0vut45ye0Uz9zB3+8+bIoS4JfqawRpRaZVmHak4T9arKAjoNQOGuVfFziEPRV8wO19eGMxr3uNLAP6UC98REell1rpIKT9ApNRjbn6t1D6iXsjrSrcWZOe54JmiqYRhhp4oBXkvuVcK/k8+tuGVrJUghPgWYoP0zM6XVmIl+zcA3C2l/I2B0yI3FUxh9XnxTm5d7I+sh4s5jz7int3bTZ8Cka/aoi98z5yx0acKeb+4bYWDpAXZ+YMHWr1/xpRSIph/WUr5DSnlH0ycFxGRK7JuYVh2H9HX25S7UXsLsvMA0B594XNHiqXUVAkPVmhPHd9DP5R7pqrs/Dejxzh4X1yZYP4RA6dEROScrCOdS9EX45e5FWJYdj/1V180fCa5wgXPlHgGTU198ZoQYmf0tc/leCFPysVT5UmVg/eDpRU8U2+PvtizezufMUUsLa/j0R98wmCeKCVM6vgj69b4vegLzSqm3unsaMQLT91g+jQSYUl2nqicgqDk883+BSVxCQejbdEXPgZ9Oeb1YKnmPvkw+kIIcTOAP48e477zxT05clX3njKYp3oVtvFsg8gDmV7lUsq3Afw+fD05terlojpxe1iORyng/qNElDC/A/ry2a4BABvz6Do7GpmdL2JkdBEXLl6LH2YwT0nw+jlFfjIxbDUefXGF+9jmgmXZ+YIVTm9lh4oKcQXcGM1zmLshVMmTHSW87ihX8Bl/PfoirzvZ1OvCxWs4fWYpfvgNBvNEyfJkKhjBTEBfMI/+wjtbRmiJKAF8kFOl4tUcUsqrhk6FLCWEaAPwpegx37YEvVIioBdC3IXYYni7+relf1KOmZtfw+Hjn8YPvw/gkIHTIco1LtbqDxMBfcE8+rPnV1h2/6+mT6A+lmXnicrh/Dqi6u0D0BG+6Oxo9C5DrykRjyYoBqJ/sWf3du/en0o8+oNPdIe/I6X8OOtzISLKi8x7smoe/bvRYyy7p4QVloV6lkUKfbbCkdkivC4bjktyrQUhhLcpSQ+mLRSs3p63LVfL0S2IJ6X8KPK68P25z6/3pxKnzyzp3sfvSSnHdV9PVCP2ARVWavrDVGrqneiLkdFFQ6dB9WJ23l7ciowMuCP6wqeS4zxPW1B7q387esy3xVw1u/JsZOdVuX1BQO/TtV+JyalVXV/vZSnl3xg4HSIvsB/oD1MBfUHZ/eTUqm6xGSKiNHi/l3YUR/CpAgXBal9vk3eVLZr1fqL9mIJye9+qFypx+Cdb5s3PAXgs+zMhIsofIy2ylPJtIcQLAA6Hx86eX8HTvTtMnI5ZDs+ftzg7z5JqlF7AyXPch56oQio7fzh67Jkf+NVWLy2v6zL0Y5E/Fwx47PmaX9UL5Vy4eE03cPi4lHLRwOkQeaOCrTZzRQhxC2J9PAA3IVY9qPRrvrZdc6xN/b6IoDLrPSnlT+s60RSYjHTeQyygP3ig1dvgyzUWB/NEVAWutVC/JNchsNCT0Rd9vU3ebfWoWR/hbSnlhwDL7ctZWl7HkyNbZp88L6V8zcT5kBeY1FE0A2mXhaiq+256AKC7yPG2LE8i8jP3AtgrhPiqlPIbBs6hKGNXuZTyNSHEuwDuDI+dPrOEp4+UGfmvJKP9p/WdG5XGYN4NnDtVFEvuI3idUDFCiJcA3BY95lt2HgDOvrESPxRd3d7rxQLLOXVmSfeM+XsT50JEVQfCX07jJHLgPiHEj2zK1Jvuyf4y+uLs+RXdaFL1/rXIL9vYeE750BZ94WvAxrnRRXHbOqIyhBB/DeDh6LGDB1q9y84vLa/rtquLzp8vKOVkuf2mpeV1nD6zFD/8hJTy1ybOh8gn3m8Jnr7by39JdozWoUgpTwshHkIkS39s5CpefO7GdH5gsQCaGf2KMTtPlC8Jr7XQH33hS/CXt8EzIcQxxBYs6+xoxOCBVjMnZNCbW4P582r7XQgh2gDsiv7lrT1+XPOVOLU1mH/fpowWEeVLZ0ejNol3j2ZXlr7epi1rKLW2NGxJ8oTfb2l5HV+593fRv9LNyzfGhoklv0QkoB+fuI7xievZzkFjGX9FXAjm1YIYG3yeO1VqmyXPtUVf+FrBQaSjgvmn4sdffPZGL+8VTYY5vrr958IXfb1NXr5HOnPza7r37pe6ryVKWFv0ha/3ZGtLA6be/WLBsWqz9olUTdehWB/exGf6meXTE41HOypL/1VESvuOjVzF66dususm1AX99QT5LLdPS+FiKF8wfolbQ0q5JcL3jRCCq1XF5C27TLVTc+Yfjh9//dRNXg6Ojk9cj98fKwDORV4XlFzqskC+0kxTYHaeyLBq4ypfquwqYft6Q7ZEzAULpMzNr+lKtexTbK6+rXP26+BCdp6oAgUlUlyN2v5GitInhDgohPhnaIL5F5+70dtO3cjoYvzQ34ar2yt8nmgsLa/r+nB/a+JciIh8YMWQu9qX/jgiZX6nzyzhnt3b3e5I5Cyod4SXc3jjcr6NFiWI29bVz9W9ftUe8/dCE8i3tjTghadu8DZInZxaxeTW9SU29p5X8+cLVoD2sYpB582L1+Jt0BwKKxucIYT4EYJKjDtQeoXwxSzOx3FtRY6/p36NhetT1IpVeJQW29t5a1ofKeXTQoj/C5Etch75wSd4+5UOu0rvPcTsPOUIt6yLiQctUsrLdXw77v/rACHEQQRByrd1f9/Z0YgXn73R68/vyWe37J3+QizY2LL3PJ8ngbPnt2zz97dSykUDp1IXIcQ/ALivwi9vS/FU8u529euoEOK4lPLpOr4Xq2bIS7a1Ps9EXywtr+PJkS2NKmXIwWCeAQXsX7zDIF4f6eKWgJZSZfUvCyFmAJxCkWB+/95mjL3S4fW9MT5xXZedfy/2ujBw2MnAAdBWNvweDmbnVWa+0mCekvOUEOIu0ydBFGf7ekNW9baklK8BeD567MLFa7p5bETFMKAA50VTZTg1Ixk2DqAJIe4SQhwXQowJIRawGcTfrPv6vt4mjL3SgaeP7Mj0PG10bGsi4XnVP4ni9C4NzTZ/p2LrDrjCqj2mPcP3nqxjYzsfZd0QvJTy+0KIbkRGRnMxn95BDmbnicphhp4SV27kPjYPFwg6Agvq68KvvQTg4/DvpZQflPqZaovOdgA3qe/bjiDI7EYV5b99vU145gc72L4qp88s6T7PX2m+lDuqaGjK7eOVDa4oqMD4t1/9cckpFdVuB+ajYu/f+MR1PPr4J9FD9ezvzWl1lArbE2W2tkCHAPyviM2nf/3UTei09pTzxeFgnp0scKGzEljBEWH7iHMeFJmH24YgUx5dVO1HsX+X2jm1tjRg/95m7N/bzEGtiLn5NV1F4In4Ql1CiC8gVunA9zEot491eic1lQ25xMCxdgkHShy0p1TYXnJv5ZUupfxYCPEMIvOulpbXcf/gx/i3Y39s8MyI3GD7SCLZIYXrhNmRCJvm4TKIL+/wTz6NH5oDcFLzpQUZxD3cfx6Attx+TPd1RFG2B0pELrC2VZdSviaEeB7AY+ExljRlw+HsPMDRWSqNFRzpKqyAaPYjoC8xMKJdeC4LnR2N2NW/DXu+th239jR5P7hSzukzS7qF8J4psjp7wfz5WzldAUCw5lGMq+X2lCFWipELxieuxw9dMnEexVjdm1Xz6duh2SOX0uF4ME8KR7ypErbvq+oK3f0mhNgBoC880NrSgLdf6QAQdGCXltcx99Haxr+NZjeXltd137NAZ0fjRpB+z+7taG1pwK09TQXHqTKTU6u6UvuXpZSni/wTDhzHzM2vxa/ZeV/K7ak+moG0iTq+HafVUSaklFsifJOsb4WklI+ouYQM6jMghLgrPl/QMW3RF752bDniXRRLwikTUsqrQohJqKA+DNL7ejez5dGF6A4eaDVynr5bWl4vVmr/WIl/xkqfGE32iuX2ZAIH2yhxLuwI5ERvVkr5CIA3TJ9H3vX+8LcAMCaEOGb6XGohhOBGwFQOR+8jWMmRuoKgRrMCOBn25MhV3X3weJFS+xCDhhhNlnXcxHmQe2wvZSZygUu92UPgTZ4aFcyHnhJCvGToVOpRsFDRrn7G90SlpFDJ4WUFRIldJQrmEJ89v8K1YCwyMrqom/et23N+gxo4bose8+U6L0UzWMX+GtXEtlJmIheqXp1phaSUHwN4wPR5eORhIcQ/CCH+yPSJUPUSnpOWJ23RF+yIJ87LCoj4/SalvKx+fw3Au9G/uzK95d4kA0ZGF3H6zFL88BtSyu+X+accOI7RVDh8KKX8dxPnQm5JoZTZy0FlSpcLO0c5daVLKT/u/eFvv2D6PHLnT4EXn7tR9zf3AfhXIcRdGZ9RrQpWHu7jysMUwSkZW3HgJxPvRF9oFl+jjJ09v6IL5t9HUAlYDsvtYya3DlLxOUKmeLnTCpFzV7rK1FNS/jT4bVf/Noy90qEbzbwNDs+rJ4pgZo1MKCi7n5xaLbuCPaXn7PkVHBu5Gj/8PoDvVNi/YAYw5goHBqlGXMeFXFBiWp012BLRhs6ORrz9SkexQMeFefXcG1jhdmRUCU35NzviCVO7hvwiekyzCBRl4PSZJV0wv4IgmK90ETe2MzE5XdSsLfqCAzdE/mLJPdntT7ceam1pwIvP3VhsC6WHhRD/kPZpUf3io95Syg8MnYpNOCUjJt5ISSm3RDtVaou+8KETXOEc0IIsvabcm1I2Mrqom+5QbTAPMEO/hWYNiX8xdCrkmBSSD5wSQ15iS+QrTTAfdeRQG1587kZdZ+U+tVjeTWmdWh24NzAR2WgMQfAIIBhw06xfQClYWl7H4eOf6gZRwmD+v1f5LTlHN0K3IJ6J8yAiSosLU0P8bol8VSaYD+3q34bXT92kDeoB/L9CiF0JnxlRmrxcgb2YFFYXpiKklB8C+LvosTe3bpdGCZubX8P9gx/rtqabA/BfagjmAWboC7hQilotLqCaHRcCJSJuW0fOC+fVa8qTbwPw/wgh/k8Dp1UMS63AQK0EXh8pYie4rC170lN6Lly8hoEH53UBw/sIgvl/rPFbc2AwIqfrtXAB1Yy4ECgRucDJlqjnyKwwfQ7OqjA7H9Xa0oCXnr0Re3Zvj/9VJ4CfWxbUE1EFUsiMeNkJrvR9VHvST4avl5bXWXafgrDE/vDxT3V//QaA/1zlnHkqgSvcUz1SqPBoi77wvYKGkuHCFr+80n1SQzAfam1pwAtP3aBbLK8TwK+EEH9Rx5klpS36gg9yiuEaC2TaWPQFs/TJGp+4jrsenNeV2APAy1LKbySw9W1b9IXv7UweS+4pOyy5J0qG3y0RVe3IoTYcOdSm+6ufmQzqWe5LVB0X9lXNoS1l95qAiKq0tLyORx//BI8+/kmx9/N7UspHMj4tL+Q0IOOOKBlJsh1iP5B8xhRVtYpluf8107OoXh3Z+bgwS6/ZAuhnQghIKf8muZ9WMS/LfXU4J60ozqGPYGYte1LK14QQ7wK4Mzx2ZXrV6+dVPZaW13H2/IquLQq9AeApKeWvszsrv1yZtr8Uleyl2fLwch3fjv1ASsX4xPX4oUsmzqMUv3u0SaokYLY96K/CwQOt6Oxo1M1TNBnUExiokTFeZrVqyDC9g0hAPzK6iNdP2bgLqN3CQL5EhcNxKeXTWZ6Tj+Lvv5TyqqFTISLKhJRyS4RvGgP6atSb5TaV3U8wOx+1Z/d2vPDUDbYE9V4GE1SVtugL3+e+cjGrZNQwgFZQdj85tYq5+TXvK0YqdeHiNTw5crVUIP8GgJ9JKd/O8LQoX1jNlQHuyEOUHL97tLb4U82vJL93isKgXuNnQoj/mu5PJ6oM59aRLVSg+YvoMU05H8WMT1zHV+79HQ4f/7RYMD8H4Am18B2D+QzkOCDj1oRu4kAMJc6V5xyfUrbSBfnVBucpB/OhEkH9z4UQu7I5i8IM/a3M0FMhzq0jmxRk6U+fWTJ1HtY7e34FX7n3d6UWvFsB8ASA26SUP8327IioViksqFgwEON7FR75hVe7ayoN8DMK5kNFgvpmZBvUE4C5j3K56jDZj4NqlRtDEIgCCDq23JN+09LyOkZGF/GVe3+HY6XL609ABfJSysXszpCIiHzgykLTrEepVMYBcsUsOq89u7fj6SM7cGykYE2c2xAE9f85gf1/S+HILJXCNRYoFbVkmaSUHwoh/g7A4fDYmxeveX9dzs2vYWR0sdg+8lEnAJzj6vWUksLS7S+wq5yGFLZO5VQJSpwrC03zaqdE7d/bvLGtXcRtAEZT/tGFD/JmXtpElL46Ru+37EnvqwsXr2HgwXkMPDhfKphfQRDID0gpf8xgnshtKQRKnENP3uLVTok7cqgNwJZ5ofcJIV6SUj6S0o9lhp5KYTl4TAqdKd6DVVB70k8C6AOCz2N84ro36zvMza/h9JmlSgYyJgGcB3BKSvlh+mdGREQUSKGSJBUM6CthUVm7K44casPc/Fo82/KwEGJBSvn9FH4kS62IqpD2gkSskqnIeaiAHgAuvHPNm4D+/sGPS82NB4L35j0udEcGMNObgRTaIKLEseQ+R3wuhazHM0d26BrCx4QQf2HifMhrnBNJNhqLvjh7fqVckJsbg1unZoV+AWBQSnmfpcH8YvSFL58XUdJSWGyM7Tx5iwF9Gb0//C2OjVzFyOii6VNxTmtLA1589kZd6e3PhBBfTvjHtcV/tq846q3FcnBKhWZ1+olK/63aL/3d6DFf9qTfs3u77vA+KeXDUsrTWZ8PVU/zHG0zcBrkKFcyn+Q3V1a5Z6+2QqfPLOHw8U85Gl+lzo5GvPTsjbq/Op7UzxBC+FGjWiFXHj4Z45SM9HHQpDb/FH1xypM96Ts7GnVB/e0mzqVKBc9TzfPWazlpj9uiL/gsSweTD+QCV65TPqVK6P3hbwtq7S9cvIZHfvAJg/oq9fU26faov08I8dcJ/Yg7oi98mYNKVWmLvmAHLRUcNKlNQdn95NSqrgORS5qy+z8XQtxs4lyqUBDQ+94f0LS3d+i+jigDHFQmb/FqL+0/A3g/emByahV3PTjvTYcrKXt2b9dlYx4TQnzLxPmQP3KSMUqcKyu35p3afu0X0WMV7MOeC329TfF1VpoB7DN0OkQQQtwSfc0F8dJzZbr26UpFcFCZvMWrvQQp5TiCoP6N6PGl5XXcP/ixbu4klVBkkbznhBBtdX5rrkhLpbCCQyP+/JJSXjZ0KuTxnvQHt2bpbS+7Lyi3nPvI78H9vq1bgPbrvs4hXFgtI/HqFinlVUOnQlRUPevkZIkBfRE9R2YFAEgpP5ZSfgNFgnpfFjBKQmtLA174yZbS+07UP5+eZVZUCgd8stEWfeHLfahpAy7V8G3OAZgPX8zNr3kzYHzP1sqtvZZXbhUG9J5X62mep926ryPKQFv0hS9tEBHAfegrJqX8hhDiJQAPR48/+vgnOHKoTZdlII2+3iYcOdQW3zXgMSHEv0gpXzN0WpRvDOgpM1LKqkd5pZSLQohzAA6Hx968eE2X/cyd1pYG7Nm9PT7N4HYAtrYHXBQvIocBPduLDGjWnlg0cBqUEFfXEsnToA+fVBphdj5OSvmIEGIBwGPR4yOji5ibX8PTR3ZkcXrOO3igFWfPr8QzG0+i9g5cQYnfrR50gkvR/P9dL4GsFztoKeM6BYl4D5GA/uz5FRw51GbubDI0eKA1HtD/uRDiBSnlh6bOqYSCcktfKimK0ZSkux7Qs+KPciEeZMerieY+Wtt6bH5Nt7YB5ubXnA3aU1BLFV7q2LOtkpTy+yqofyp6/Oz5FXy2vI5njuxgA1CBF35yA+4f/Dh66DYhxI+klD81dU6UW5wTGZNCdoTrFNRJSvmaEGISQB8QfEbjE9e9eC/DxfEinctwcTwb24OCgF7X+fWJZoD0ZiFEm5Ry0cDpkCOS3l5XCLEz+tqH6iadufk1DDw4X/4LqVYv1lKFlwVGnjHFsvNRUsqnAdwLYC56/MLFa7h/8GOOYlWgr7dJN03hpBDiyzV8O46oUym8PsgV56MvLrzjx2r3gHZxvIdMnEc5auGuxfD10vK6922+ZtDJ9oUNS+FK6RnQ3DP17rJS+Lk1+/m5+f4sStklAN8xfRLFOHnFT490SdPnIKX8RwQr4BeUXszNr3FbuwoNHmjVBVe1bFnEBzmVUrCvNUvuKSkpVDoU7El/9vyKNx00zeJ4t1m8OB7n0Ufs2pmrveg5RYuoeouO/qrEewBOSCn/o5TyDxX+m8zxSRVRSXY+Skr5GyHEAwBGAdwXHg9XwH/p2Ru9LfupRGtLA545sgOHj38aPXxUCDEmpXzb1Hm5TjNI0q77Oh+wDE8v6XJHxNZp4PtcGynl20KIdwHcGR4bn7iOPVuD3dxpbWnAwQOtOH1mKXrY1sXxZhAZKJz7aM3rwC+HW9dRyj5bSbwN4kCM3mLkzzOxv5spcky3LdsMtxW0G6/4OkkpPwbwDSHEP0AT1L/w1A1edMZqtWf39vjcSQAYAFBNQM+S6ghNhYK3AT2AXdEXt/Yw0ARSKXek5PwTIgH9qTNL3rQh9+zeHg/oDwshzls4wDsD4K7wxdz8mtchrOa5usvhefSXAGxUhoyMLuJU4TUJIJ3FEF8/dZM3g6Fpl9z72g+c+2hLdfCYlLKWyldyjJ9XfArUXvUvx48fPv5pvINCMZrdAb4rhLhZ97VFcM4bFVO4WNvW0lAi2xSU3U9OrXozhauvt0kX0AyYOJcyuNJ9RGtLQ/xz+xzs/Nwq8V70xdz8GianVrf8IiKyCSOfBEkpHwHwfPz4yOgijo2wUqWYXf3b4qOp4QrHVIMc7gtcD65wr5FCuSO3jkyIlPLXAH4RPRbb0i3XNFv1PSSE2HLQMK50H6NZA8HJhfHU/fek6fPIO80gZbz0u1psg8hrDOiVaufPFyOl/D6A78WPnz2/gkcf/8SbBY6qpenEOdkZIOt8KfqC8+oCLLlPRgqd0lBBlvDs+ZWEvq39NAO8nbBsgFdKeRnA78PXk1Or3rftmpXu91k4EFMRKeV/QxDUZ7r/l0/tUwrruBBSbZPIcgzoUyCl/BtotrUbn7jObe2K0Izu7xVC3KX7Wo226Atf506FNP//NiGEd7Xm6vr5XPi6r7fJ+2uDnHEOkWAiLPv1xeDWLey+buI8yvhN9IUv0yKK6ettigekHbBsIKYaUsr/JqX8XwD8bwC+Ev8lpRT1/kL9u2IQFeBAib+c692msWVdUtn5qFLb2t0/+LH3jX9ca0uDbuEnZulrpMmWuLyNUK0Krh/Ne+KtK1uDQ92qttXg1IYEqcXEzkWPvelR2b2mLfimhVvYFWS+NItReWf/3ub4IRsHYqoipfxASnk5/sv0eblOM0DJNoioDs4F9C6RUv4GwN0A3ogeZ1Cvt/++LZ0BH4PQRHAbIQBcEI/c5m3ZfWdHowsDvAWD9eOXr5s6D2s4MhBjk7boC1aQUb04nc5ffHqkTEr5B7UCfkFQv7S8jkd/wDn1UZqtb+6qcrV7UnxfGE+V2xdM2eCWdZs4z85+UsrXAEyGr5eW1zE+4U/QqCm7/3PL2oOCARefKiiKcWQghvKJ29aBbbvP/LziI9Iot9fRbWsXZuoZ1AdaWxp0ZdElOwNCiII973x9iMf5HtAjdt3s2b2d10ZECqP4heWOHi3ulLLz0Rdn3/AnS6+Zk23V7idqNfQPw9dLy+usuoN2IOZwFevheMPHdW2iNIOTl3RfVwVuX0xe4xWfIbWt3ZagfmR00cj52GjP17aM7pcruy/cqoRZWADa+WO+BfT3R19opnN4TTPfl6P4NcjgfSzYk/7CxWteDQAf3BocPmTiPEoo3I+e29fpBmIAd/ekT1PhlDDP13iRUvpTfkSUAqcC+qQXxMsqOx+lgvqC8vuz51e82me4FE1A7uPc77ppOlQ3CyH+g4lzyZqas3lb9BgHegrFM4lSyg8MnQqVIKV8G7EsvU+l3ZrdT26zbE4259FrPH1kR/zQUWbpKWVt0Re+VuSlUPlAjvDzijdMld+/Gz325MhVrzIvxWgC0S/pvo7K06w47MsigwXl9gcPtHrbuOtonjOLCXzbtugLvt+J8nZxvNaWBtuz9JxHr7Grf5uuLf8zE+dC9kmpDSINVj74g70ucx6PvlhaXmfpPYIOXGyF9s8JIXaaOh+XaVa632XiPLKkskCHo8c0WT6vcZ9a55wD8PvwxeTUqldztTX3rzUrp3MefXGaLP3DQoiDJs7FUgXVh5r2mirEtZSIPA7oTZTbR6mOwBPRY2fPr7AzAJbdJ0UzJ+9+y1aJTkPBXM2+3iZ2lGKSXhAvPuDG9ztZUsoPEduT3qcpWn29TbavnF5Q0urTZ1PKrv5tujboOQ/aIMoe11ICKx98521AbwMp5U8RK733qZyyGK7QnozOjkbdKtG5XZxICPFlAEejx44cajNzMhb7bCXxDH3h6sLN/jQrGVY7eFt2D1i/hR3L7ovQZOmbATyf/ZmQTbi1GlHynOl5JbkgnunsfMwvoy9866jpMKBPjuXzT5NWsKVVZ0ej9ysH66SwZZ23MuyYngMwH/25k1P+rKheZAu7QUOnE+f1lIhSOjsadUH9fUKIvzZxPpbhVp/J4fQF8p4zAX1eSSlPA5gMXy8tr3vVUaN0aQLaO/M4j1HNnWd2vgJXtj5fJnRfVwV2plImpVxErOzet0ywbnBSCNFm4FQK6D4bzUrT3tq/t1k3ZeIxBvXcN52SxfVx/Jb4E0QIcZcQ4rgQYkz9zq1KyvtN9IVmb2OvcA/15HR2NOpWu89jlv670RedHY26TiSB5Y4O87rsfv/e5vhiV52wJ0vv9WdTzjNHdugWKntMCHHMxPmQWZo+br1tEAdHwOo73yV21Qshdgkh/ieAMQA/AXCX+n1MCPGyLVlBy8rtQwUPM5brVaXwvfN8MERHk9m6UwjxIxPnkgYhxF8A+Gb0mKbMk5TJ6cQz9CwdzYCU8jXEqrl8ywRr5tLbMjg5BpbdF9Xa0oCXnr1R91dPeRzUFwShXJm9LmyDyHtJPkF+DuC2In/3bQCnhBCXhBB/qRavypylwTwQG0XTlM1QEVLKD6Kv2YnaqkiW/qSp+zBJ6v/ws+ixPbu3c+58CfF7JH4P1YDZkeycj7648I5fZfea59htNiQLdDsR+DbYUk5fbxNeP3WT7q+e8rT83tvFRIkoeYk8QYQQX0XxYD7qdgTzXCdsytoT5d2RQ226DMBxE+eSsOeiL1pbGjh3vgTNgNeHuq8ja41FX5w9v6Irs8yt1pYGXcXR102ci0ZB2f3pM0umzsNafb1NePE5bab+MSHESxmfDhmSwrSvwgz91mmbXkhhKgM5JKkhwTuiLw4eaMWLz91YbnGkirP2Saxwb3F2HmCGq16L0Rc+dXAr1drSgGf0qw2/ZOB0EiGE+AcAd0aPPXNkB8vtSkipwfe2M6VZwLTe6QslSSnfRmyr0ytbp1DkmiZL/00hxLdMnEvMGICNyfO+7URQqV3924oF9Q8LIS56tO6StyX3XLyNKHlJPUEKbsal5XXs6t+G10/dhLFXOnQNcFQ0a/+GEOJHNqxcm7E90RdcJbpqnLJQgT27t+sWinvYxaBeBfP3RY8VWU2ZIrggXi68E31x+pd+ZYKLLHh5u4lziVJl938XPebbTgSVCvuHmiD2TgTrLvkwr56JnOR4OzhCFErqqi+6qFu4D+nUu1/EC0/dUC57thfASQDv+1KSrxb0KpiucGuP3wH9ZytVj95uGVAivSIZ7IdVgOwEXTDf2dHIUvsKpJRRZmcqWwWl3eMT171bO0SzON5hSzK7W8ru2R7phXPqi/QJn1LZ+tz3AX2UwmrsHBwBB+x9l9RVfyn6othiMHt2b8fYKx2VZO07sVmSX/cFaWu5vRDivyK2oNfBA63ed4hreNhzpfsKtbY04MVnb9RdY/cJIf7ZktJVLSHEt4QQ/wxNMF8k20MxmmfzJd3XVYmdqQypsvtfRI/5tgBbX2+TrpJtwMS5RKmdCN6PHmOWvrjw2V2kP3gngj7gSza3S1S9FALPtugLX/sCnMrgt0SueinldVQxj7nKrP3NvT/8LXp/+Nuazs3iYP4YgL+PHy8z0OGFGh723PavCiUC4DsAnBNC/LVtK+CrVZDPIbZeB4P5yi0tr8fvjUUp5b8n8K3boi/4WWTC+33PNRU53xVC3GzgVOJ+GX3BxfFKa21pwNNHduDF57QDzQDwMIJ26fmcBfZt0Rd8bhKZJ4TYIYTYGft1rxDiZOzXmBBiIvJrIfZLCiFmsqw2T3L1ogVEHlCfLa9X9IAK5/UuLa/j7PkVnCpRohYP6qf+6ot1nbAJ6oO9F7EsI4BKBje8UMMoY0HZ8BUuRFRWZ0cj3n6lA4/84BNdGfZjCFYdPgFgTGUEjRBC/AjBXtNbdtHo623CS/pqA9LQLJ6W6gJulKpw3/PPAZv7nvvUfuzq34bOjsboIFUzgEEAPzZ3VgCCgccnEZzPxuJ4XBuntF392/D2Kx0YGV0sNkB1GMHUivMA3pNS/jTbM6Sk1DCtsighxM7oa95n2Yq//xX6IwTJmfZyXxj52nLaK/x+bRV8TVJuVr++LYT4qpTykTR/WNIB/cboeLXzxsLtaA4eaMXc/BrOnl8puyVPuQDfluy8ynYOIFi4Z6/ua54+soMLeik1zPOtaMoHFWptacDrp27CsZGrxTpQRwEcDTtQAM6phZ9Spe6XfQi2o9Juh7l/bzOe3rpqP5Uwfjn5cnshxC3R1z4FlECyHdNqSCk/FEKcQzA1DQBw4eI13ZZuuXbwQCuOjVyNHnpICHFSSrlo6JTCz+bvEASgAIAnn71abA92igiz9QcPtOLwTz4ttkvAXgB7hRDfRjCw9Z6a6uCMeCWJb4PS8c9VSnm5jm9XOOWr2a/3Mkpzv/ylEOIvTZwLbfGwEOJfpJSn0/oBSV75ic1jDhe4+rdf/THGXunAkUNtFXUUw9L88Fek5GFMlUjcK4TIJAoQQtwlhDguhBhDEJCehCaYb21pwIvP3chS+4hq5/lKKT9CZMrH0vI6FyKqwtNHdpRanAgoXKxyTF3XiS5ApblfjkITzIeDEAzmq3dh61ze93RfVyVvt6wDEu+YVsv7svv9e5vjwVAngiy9aQWfzeTUKrewq0I4ler1UzeVyrj2IRg0ORctbbVxl6Ro+6bWhSroL/u+EHKdCtsgzwaVySmp7saSdIZ+Q1Jbh3V2NG5k7peW1zE+cR1n31ipJgsbljzcBeBHACCEAIIAMHyoXgLwB/X7x0DpjpkaFAgfIt0A+tXv4a+2Sk5sz+7teObIDu9GZ0vRBOKLao2GcmYAbMz7nptfY+lVFfp6mzD2SgcuXLyGJ0euFhsQaUZwH90FAEKIRQT3/QyCIDy8fxaklB/E/3HkvrkJm+VW4b3TVu4cDx5oxSAXjazJ3PxafP78fEJTKbjCvTnnAPwEQAfgb2n34IFWjIwuRg89BMBoObaU8jUhxAuIZOlPnVnCC0/dYPCs3BOuhD85tYqR0cVS/b6N0lYAPxVCLCBoj95DMG0s9coyYKNi6X9H0HG/A1X0B6lmbIMoMa0tDdpBoXtiFdR9vU0F1SDxf9Pa0oC5+TUMPDgfPVzJ1IGaJRnQp74wWWtLQ8Fe2nPza0GAf36lltHvNmwGgOHvPwr/UgX9qdize3vFVQe+qWP10wlEAvor0/51bJMQ3l/jE9cxMrpY7r5qU78KBsyAZO8fBvL103SExxL61syOGCKlXFRl9xtB4/jEde+ee/v3NscD+tuEEAfTLG2s0HuIfDYXLl7zcsAlCX29TXjxuRuxtLyOU2eWyk3HbMNmu/RtoGDweQFBXyEM+MsmcNS/D+cJR+f+hgPS4Z/bavrPeUaXtKnzW3KXFUWzTk7qan2e7erfVvFntat/W9mvaW1pqOj7ZdmPTGF7xpKcCujjOjsasb+jeaNcfW5+DXMfrWH88nVcuHjNqtXOw2kEu/q3MTApoY6Fuy4B2FhJ8sI71ziNoQ67+rfh9VM3YWl5HW9evIbTZ5YyvZ/C+4XrSiRDU46dRLk9wM6UaQVB49nzK97Now/X34mtJv8QAKMBvcrS/w8A3wyPjYwu4sXnbjR2Tq5rbWnAkUNtOHKoDZNTqzh7fgVvXrxWyRS7NmwG+ZkmcIrZ1b8Ne762fWNxR6oZB5WVf/vVH5s+BTIotZJ7E3OYOzsa0dnRiF392za2tAmD/MmpVbypgvwszq2zoxF7dm/Hrp3bcGtPE4P4CtWwIF6oIEDhwnjJaG1pwP69waDZ0vI6rkyvbkx5SfI+am1pwK7+bdh/XzPvl4SFpdgRvwcz9HkxBmAenpfd79/bHA/o7xRCfMuCxdJ+iUhAPz5x3cvPJw19vU14uncHnj6yA3Pza7hw8RrOnl+xKpETivYHO7/QyOckkQc0a8lVWnFckySfKlauNB4N8qOZi+iezOG5vhlZNKpUqXF0jkXnFxpxa29T8HPUg5rBSO00mcSKVuJWKwv/GpGye3ackhUG3WH509LyOj5bXt8YMBu/fB2frazr9jvf+PfhfXPP7u1obWnArT1NvGdSpnkWZ7JbAaVPV3b/5sVr3j33OjsasX9vc7z9uB2A0YBeZelfBPBoeIwr3icvvtbSZ2q9pQvvXMOV6dXMEkxhP3DXzm0bmXe2bYXqmFZZjNcLsxKFErvypZTX1TyltvDYUoV70ZvQ2tKw0ekJf/etVNE2mkGUX0sp/72Kb3EJkYDex45tllpbGjaC9PiAGdkjlrkEkiu3B9iZssGWsvuwQs0nmoD+sBDChi3N/gmRgH5yahXjE9crmhdK1Qvbpeh0zDDID6vMlpbXNwaggdIJHKBwnnA49zcckA7n7tra1yUiM67UXnFcE/a+yBrVblensWURIh87tkShyanVeEZkBcmV23sthcWdaqKywJMItvHC0vK6l9VJfb1N6OttigdntmTpnwfwWHjs8PFP8fYrHQwCM9IaCbiZwMkdTvsiQrL70AMGFsaj/Kh34S6VidnYI0Izd5jIK6e2Zuf/LuFye3am7FAwSBOdPuaTZ36wI37osBDiLhPnEvOr6Iul5XVde0eUe2FVRESqK38TmZLC9JKSODxMVtDtk43aMonnoi9sWcuBKGvhQlExSZbbkz0KPldfg8U+tZ5NzICJc4mSUr4N4Hj02MjoIpMe5J0UtvJqi75g1QvZIutt69LN0G9d4Y9ISxN4jEkpF2v4VgUdW02GksgLmqDuf6Qwn7gt+oKdKTPU5zoZvg7L7n309JEtWfrvCiFuNnEuMT8DMBc98OgPPjF0KkTuE0IU3Oxsf8gmWVejJH31F5zsZwa2riM3JbhP9hginaYltdotkU+Wltd1i+H9U5I/QwhxS/Q1y+2NY9k9gkXLYh37ZgD7DJ3OBjVA/Uz02Nz8mrfVFEQJ6I++uLXHr3VDyG7xQXUp5eU0fx7n0JNxmoW75hErna+U6jT9MnpsZHSx1lMjcpKmMuV9KeXphH8MV7i3C8vuFc1iqN8VQmw5mDV1D74cPXZs5Cr7SuSNhFf+bo++YIaefJZqhj6rvT/JbZrg41yN5fahgkzV5NSqt+Wn5J+5+TVddv6Xuq+tExfEswjL7jfds3t7/FAnLMjSK08h2G1iw6M/+IT9JaLqsQ0iK5nYBYcZejJqcmo18YW71AJEL0SP+ZytIr9oKlLel1L+NIUf5XV2RDOlzIbVmgsGM32dbtTa0qDL0j9k4FS2ULtMPB49Nje/xvVeiKpX0AZ93rM2iCiKi+KRUSku3LWl/JQDTJR34xPXdQNkf5vSj/M6O5L1CrYVKnju+TqPHgD2bM3S3ymE+JaJc4nTld6fPrOku3eJciXh56bXbRDZK+st64CEA3op5QfR1wygqJQiCwIlUhqsBgXejR47NnI1iW9NZKWl5XXdNf4/Upg7H2J2xD5jAH4fvtCsT+KNzo5G7N/bHD9sRZYeAKSUjwB4P3rsSc6np5wzEegQ+SCNHthi9AXnhVExmnm+7ya8rVbB4MD4xHVvS1Ap/06dWdJ1ltLKzgNcFM86au2Rf4wem5z2cx49AF1A/01bsvTKd6IvlpbXOZ+eqHJsg4gUplTIiMmp1dSy8yFdWePh45+ys0S5Mz5xXTdAdlytJ0F+uRR9MX7Z30HMvt4mXen97SbORUdKOQ7ge9Fjc/NreJLVZESV8HodF7KXZsq5WyX3ChfGo7KefHZLh+XdlEqD/z76Yml5nYsPUa7Mza/h8PFP44ffl1I+nfKP5vxFO21ZP8TnQczBA63xQ4eFEHeZOBcdKeXfIDbwfOHiNW63SrmUcKDDaV9ECq9+ytyFi9d02ymlUhqsMpTHo8e4+BDlybGRq7qA7XHd11L+SSl/jdj6IVc8Lrvv621CX29T/PCAiXMpRs2nfyN67PSZJQb1lDvxJF987S2iPHB+UTylYMXKz1b8zQzQVkvL67pywucTnjtfQGUqufgQ5c7I6KJuXYisSu3boi9Y7miVd6IvfC67B6Dbwu67QoibDZxKKYcQa6c4+ExUUlv0BdsgsoWJbW1TD+h9LvWjrZ7UZxP/Xve1CePiQ5QrFy5e082bfzmDUnsIIW6Jvma5vXW2lN37bFf/tvg12gxgn6HT0ZJSfoygnSoI6g8f/5RBPVGMEGJn9LWmCofIK5xDT5m5cPGarmPyhCoRTVWxxYe4SB656MLFa9p58wiyfFng6sIWUxUaH4avl5bXvW+LD26dS/9dIUSbgVMpSrVT34kfZ1BPeaDpay3W8e0K5883MztP9tBMK55I+2emX3LPYIlQdOGuN6SUP83qHHSLD41PXOeKwuSU8YnrunsJAL4jpfxDRqfh/YJ4JlaxrVLhaveeb9l5z+7t8ZLcTgCDhk6nKN3gMxAE9b5XWhBF9EdfMENPvmPJPaUuLG/XeCrrc9EtPlQk20lknQsXr+HRx7X30vdUIJAVbhdkP5bdR7S2NOhWvH/IxLmUowaftwT1x0au6qbZEBGRRbhtHeVSkQXovpdFqX0RD0AT1D/6OOfUk73Onl8pNvD0PRUAZKkgO3IrsyM2GgPw+/DF5NSq98+3/Xub44duE0IcNHEu5RQL6kdGF3GMVWVEbIPIWiZ2c2BahVI1Mrqom/v3soEAZIMqSz4ETUnqI1wojyx0+sxSsU78cZP3EtlLSvkhgIKqDZ+3rwOCLL1mLv3XTZxLJdS9/WcACsorzp5fwf2DH7OtIqeY2MqLyBdpBPSct0cAiq7C/YYqezdKrSj8AGLX6+TUKu56cJ6VJWSFpeV1HD7+abH9qL+XxYr2RXBRPDcUPN8uvMOF1TRZ+m8KIb5l4lwqIaX87wD+C4C56PGwrdIsvkTkA7ZBZKWEF3+sWOIBvZSSETzZsAp3WSqovxux8vul5XUMPDjPwSgyam5+DfcPfqyrcFkB8GeGM/OcQ+8GzqOP6exoxJ7d2+OHbzdxLpWSUv4jgP+M2ADN0vI67h/8mJ8rEZHn0uqFLUZfsCzMLyUWmfuOCqKtIaX8g5TyG4gF9QDw6OOfFMuMEqVqfOI67h/8WFcpMgfgv6isnUmFWwYxoLeS2r6uIKjnQCV0i+MdFkLcZeJcKiWl/I2U8j9C01YdG7nKNWDIN97vtEJ20uzutqD7uqSxF0aJKrNwV5arcFdFBfUvx4+fPrNULLAiStzS8nqpzvkbAP5UZetMa4u+YIbeaoUB/WUG9H29TbptrgZMnEu1VFv1fPz4+MR13MXKMrLYZytmAh2iLGn6bk4H9NyL3kMlFu4ysQp31dTc/uPx45NTqxh4cF5X+kyUmHBObJHy2ZellN+wocJFCLEj+prBvPXGoi/4HAscOdQWP3RUCPFlA6dSNSnl96FZLG9peR2PPv4Js/VkpYQDnbboC7ZD5LtMAno2LPlWwcJd1gfzIbXI2ACC+f4FDh//lCsLU+LCrHyJa+u4DQtJRhRuF9TD7YJspsru58PXc/NrrDgCsKt/m65Md5+Jc6mFmnZzGzQl+GG2noM3lEdCiJ3R15pqGyLvcEiL6mL5wl01kVK+LaX8E2hK8CenVvGVe3+nW72fqGoXLl4rlZV/F8CAwZXsi+HcRZibJ1ejgiw9y7IDmiz9d4UQNxs4lZpIKT9UJfhbKsvCgfb7Bz/mSviUN4VruDQzlCF7zH1kZnvGtO6CgpPX/OcoBxxYuKsuKiv6Pd3fjYwu4iv3/o4dJapJOBB2+PinxbLyz0spd6vsqm24wj2c21OZq91r7Nm9PX79NsOhLH0oUlm2JVs/ObWK+wc/xqOPf8LKDMqLgioxZuiJmKGnGji0cFfdVIVBPzQdpXDLIC6aR5UKs2YDxfePfhfAPjVH1laFJffsTLlgDMDvwxeTU6ucOqRosvQPGTiNuqnKsm8AeEL39+MT1zHw4HypQUSiVDlW1URUk7ytcs9F8XLKlYW7kiSl/HWkozQX//tw0TwuRETFLC2vb1R1lJjX+oTKyr+W5blR/kkpPwRQsMvIlWlWFwHAPVv3pL9NCPEtE+eSBCnlTxEMuj2v+/sLF6/hK/f+DoePf8qBaMpUglVNHFQma5mq3sum5J6NhvMcXLgrcaqjdBuKdJTGJ66zo0QFooF8iXUXXgbQr64vFxTOof+Cn3PoHXQp+uLCO1wwDQimjBzcui+9k1n6kBqE/j6C6QNb1oIBgsB+4MF5zrEnIsoBltxTWWfPr7i4cFcqpJSLlXaUOGfRXxUG8m8AGJRSPiKl/HWGp1cvzqF3E+fRF6HJ0n/T5Sx9SEr5mhpoH4Rm2hiwOcf+K/f+jtcEuYKDymStvO1Dzwx9DoQruh8bueriwl2pqqSjFM5ZHHhwnqtKe2Jufg2Hj39aLpB/H0F5/TeklKczPL2kFK4wzIDeCeo5XRDU87kU6Ottwp6tQf3tJs4lDVLK05FpY+d1XxNW4fXe+VscG7nKfhvZjIPKZK28ldxzH3qHhSP2JcrrXVi4KxOVdJTm5tfw6OOf4Cv3/g4jo4u8H3IorMoYKL33cxjI/4lD5fU6bdEX7Ew5pTCgv8yAPjS4tez+z13awq4SUsqfSinvQzAQ/YtiX3f2/AoGHpzfGJhkm0WW4aAyUQzvAtoQDeSLzKlbARfu0qqko7S0vI7TZ5bwlXt/h/sHP2Z2zHGTU6s4fPxT9N7523LrJuQlkIcQ4pboa1/3oHdYwX70LLHe1NfbFL+endzCrhJqIPphBP+/FxC07VtEpw4NqGl3DO6pVgmWIrdFX3BQmQgQUsrkv6kQ2xDZIgcApt79YuI/h5Jx4eI1PFm8rD70PICfqdWSqQwhxEEEJZvfLve1+/c2Y//eZu6l6oC5+TWcPb9Sacf2PID3XA/io4QQdwP4/8LXu/q34cXnbjR4RuaMjC7Gp1X8WEp5wtT5VEoIMQNgI/M89koHB2aUs+dXcGzkavTQ+1LKPzF1PllRlQiDCNqsslMNOjsasX9vM/bs3s5rh7SWltfx2fI6JqdXMX75OsYnrusGvfuklP9ezfdlfEG2673zt/FDn5NSpp7BS+VJLKW8Pj3Shd4fbv6nBh6cx67+bejrbcKu/m34fEsDR9UMmptfw+kzS5VkaF5AEJQwI18FNTf6tBDiFwAGAOwF0Kf72jBABIA9u7dj8EArg3uLTE6t4uz5Fbx58Vql2alfILhnXJwfX07BdkG8Tp10CZGA/sLFa7pV3r10z+7t8YD+NiHEt/Le/qmB+h8DBYPRXwPQqfv6ufk1jIwuYmR0Ea0tDbhn93bs+dp23NrTxH6dZ8LAfe6jtY3AvcJdE96tNphX7oi+2NW/rYZvQZSdLIJ5IKWAfnqka0vaf25+DWfnVwpmGbe2NKCzoxH37N6Ovt4mNgYpW1pex5sXr+H0maVKFrxhIJ8AtRDV2wB+LIT4EYKO0t5iX3/h4rWNOdh9vU3Yv7cZu/q3MQuSobn5NYxPXMeFd65VMy3iPfXrnGMr1leLcxfd9x4ilUNvMqDfEG5hF6u8uB2AN+1gZDC6DZtZ+68hmIKwxdLyesGgdGdHI/bs3o5dO7exT5cj0Yz7lanVagJ3nUsAvlPjv+WCeEQaaUcJlxAbTYtaWl7H5NTqlodCZ0cj+nqacKvK5nd2NPKmrdHc/BouXLyGs+dXKl21loF8SlTp9U+FEHchyNqXLG+cnFrFsakgW9Ta0oBd/dtwz9e2o69ny1xPqkONATwATCKYk+zT/VK4XVAF16GLc25z3t6cQ/Cc/xwQPGfm5tfKfpYufo465T7be3Zvjwf0RfsweSalXAQQtlk3I5hvfzuC96Ot2L8Lq//C95BtlzvCoH1peR3jE9dxZWoVk9OrSe54MA/gF1LKH9fxPapug3Ty8jyj9NTSD9BcV4tJnEslEp9DH2bne47MCgAQQvwlgmxAR73fO57R7/xCI0v3Y+bm1zA5vYo337lWarXtOF+yi9ZRex2HnaQvV/Nv+3qbcM/u7Rz0qlA8w3Dh4rVaOiofIhiozGtJfUlCiO8hCAZpq9ullP9i+iQqIYR4GRWs70EAgBeklI+ZPglbqMx9NLiveieAzo7GjSmYt6ogn+1X+sJgY25+DXMfrQWD2Zevb/w5YYsIFr2bwGabWXf/UgjxVcR26yCy2Hm1YHbqEg3o48F8wQ8S4j8gePjvUr+3o8Qob7U6OxrR+YVG7NoZNBKfb27IfSOxtLyOufk1vHnxWi3lTysAXoengYmN6gnuQ2GQ7/OAV3RO3+TUKt5UgXsdI/K/xmaHxJdMvJYQ4ssIOmhUyKnF09Q86VOmz8MR+3y/70tRFWdhu9WPOvp18UC/taXByzasWmHbFmbXwwB9bn4NV1SGPcWM9CKCwH0Gm+3k22n9MAAQQvxPALel+TOIEvJEVgsjp7LKfcU/XIgd2Azw+1FnY1BKGODcqram6fxCoxONRXRE9cp0MD2hyGqhlViEeuAiyMZzxXpLqRLHsCy/pixIVPT6jw54Ae6VF0fLAq9Mr26sDREOcCVgIwsPYIz3SSEhxF8A+Jnp87DI+wC+I6UcN30i1RBCvATgYdPnYbnnpZTfN30SLkkywI+KJm1aWxpyHfDHA3QAG9PBwr4ggHrmsNdiEZsZ9wkAl0xVJAkhdgH4ORjUk93ekFJ+I6sfZjSgL0btddyPzWC/GykF+lHRjP49u7cDwEbDEf2aqGobkvgoaRiAhCOqn6m5SykFJ+fUvDhyjMqMRjtJdQX4ceF0FgAFu1CUuvbDf1eL+H0Q7bh8trK+0VG5MrWKuY/WkrwfdBjAV0ldj2HZbbltrhZTP6HktVXwNe8hyEbVMx/UqMiK5pUMGi6mfkLZaCvz96zISVDabVdUtB0r1ocLBwHi/65WxTLf0TYNKGzXgM22LfweKbZv1VhEELQvILgHxgFMSCk/MHlSxagpvRVttaixmOzZUA611fBvFrHZfmS6ZbGVAX0xmox+NxIu3c+BD5HwnCWyj5rHGM3gZzLo5bhFWJJhICLyVWQKZliZyfYrG4vq95nIr0sAfmNr0E5ElXEqoC9FZfW/hM1Goh35byQWUThvidkEj6kgP5oJ8XXAaxGbc/rCwa1xKeXVUv+IiIjM0QT67fCzDavWovo9zK5HA/YJADNs/4jyLTcBfTlCiJ0IApww0AmDHdsbi0X1e/hgDjOL/27sjMg5ses/OuAF2H396yxis+Mygc3yQGYZiIhyKJa0aUe+A/5F9XvYzgFBG/cHbPYFIaW8nPmZEZGVvAnoK6EajHYAN2Fz79mw4Qh1x/5ZW5U/ZjH2eiby+ww2g5OPGZxQVtR0lm4Af4TNDlO5ax+ovSO1GHsd7biEgTrU7zMAFng/EBFRMZF2rFQfLmzbotrq+LGLRY5H27TwdXSHkLBtA9i+EVGdGNATEREREREROShfe30QEREREREReYIBPREREREREZGDGNATEREREREROYgBPREREREREZGDGNATEREREREROYgBPREREREREZGDGNATEREREREROYgBPREREREREZGDGNATEREREREROYgBPREREREREZGDGNATEREREREROYgBPREREREREZGDGNATEREREREROYgBPREREREREZGDGNATEREREREROYgBPREREREREZGDGNATEREREREROYgBPREREREREZGDGNATEREREREROYgBPREREREREZGDGNATEREREREROYgBPREREREREZGDGNATEREREREROYgBPREREREREZGDGNATEREREREROYgBPREREREREZGDGNATEREREREROYgBPREREREREZGDGNATEREREREROYgBPREREREREZGDGNATEREREREROYgBPREREREREZGDGNATEREREREROYgBPREREREREZGDGNATEREREREROYgBPREREREREZGDGNATEREREREROYgBPREREREREZGDGNATEREREREROYgBPREREREREZGDGNATEREREREROYgBPREREREREZGDGNATEREREREROYgBPREREREREZGDGk2fQF4MTXe1A+gGMKB+71d/1R35svYKvtWC5nV4bCLyegwAhntmJ2o8ZSIiIiJCKv24hcivCfVrhv02ouoVuT/bsXlPVnJvAlvjrJnIn52Ns4SU0vQ5OGdouqsfwQU1gM0LyrTwAp3BZuMxA2DClYuRiIhItbHFDKC+Nvdc+Ae2jf6yoB+3ANVHQ3BNTgz3zMYDDSJvDU13DQDYh81nvulYKz5At4Dg3l0Y7pmdKfUPs8CAvgLqohpE8NDvLvPlNloY7pndkcQ3GpruuorSN1USDVKp7z8x3DO7M4GfkSh1jbxVxT+p5X0q9zA7Odwze7SG72utoemuUQT3XjlpdIScuw6rNTTddQLAExV8aVodzUoaaCve66HprrcQdCxKSbtDXu79Suy9GpruegLAidjhJP9/pjtnUQXB1XDP7JjJkyny3sfV81lU8t4fHe6ZPVnHz7CKCuAHsZnds1EYKJxDcB3mJsAfmu66jM2Kh2KybscB4BYbgrGoMu9Vre9RyX57UjFCvYamu/Yh6JOUu1Zsc7fpdoMl9xqqrGNQ/bL1wW+rtDtpVj1465DG+5Sbxh/YuA/3VfjlWQcH/UPTXe056HBV+nwzGXzZ8gyupINhU5Cahrz+/9oRfL79AAaHpruAILA6Odwze67UPzQo7c/C9Wcbhqa7wn6cK8FBOzarBkaHprtmEAT3p2wLOlNi4vkyCuBuAz+3VrnrO6q+3gkE/T1X2xjj582AXsl5EG/8QvOADY2t8x2wmCdg97X7BIBcVURYyvg1oCpwjJ9HBWx4DuVFP4BXh6a7FhAE9rnJVlfIyWvJ4QyfTjeC/8sTKrg/hSC4z1tbb9LA0HTXgOnsqmFGricVd42i8sSNzYzHjd6vcj803dWvSimvIhghMv6hUElWdjIsGT234RySVEmpvUnlyq9d4EKQGgbUJuWhw0G1aQdwYmi666rK+PrCmaBxaLqrfWi6a1RNCXwV+Qjm47oR9FGvDk13vTU03cW+anJGTZ+Ab9R0v6tg25oYbwP6oemugaHprg8AXEY+Oua+cKaTQbVTD3vbg83+HHSqbH+PQ6Y76GwjqB1BGfRllVlKk/F2zoUFA1VC5jKCwGAQ7jzP6jUA4AN1LZp+NuZBt2WDdVlfx5klg9Q9exWVrd1DVfAuoI8E8m+B2XgXGe/o2CpnJWM2Na6luHKerjPWaVWDNq60FdYHYTnQjyCYSjOzlLdqq0RFAvlKFlrLs34AlzMaZMq7cotQZimXn6VK1FxGPv9/xp9D3gT0Q9Nd3aoBYCDvNnZ0ck6t8OzKA9/1cjFXnoUmz9P1z5iS145gfn1es0xWDpwzkC+qH0Ep/qsM7GvWrgJOH6Xer1ZTm/P6vLSCFwH90HTXqwA+gMcNQI7KsqzsaFggT++LSw/97hzdWzYzGdCz3J6KOeFxEJAZNUf+VTCQL2cfguoRPrNqM+jpgEiq/Uc1CMdrMmW5DuhVeT0XXQjk4iHlwrw+qp1j2fkQy+7T126wo+VSR4TPx+w9kcNMvTWVcGpu8wdgP65S7QDeUgMgVJ1w1XXfpBbQq2Deh0E449WOuQ3o1cPsLbgXHBDVIi8Zehc7xi53NF16Pmb+Plu2UBLZ60TKc+q9o7LylxEEWC49p2yxb2i664McLNyatX0evmepDOCpOMyHYN4KuQvo1Vx5jubmU16C1jQ4/944mp0HguyxS1lcV5noGLAdoUqN5igQMNqeqOep19MkE9KNYNE8Pseq42OWPlFqMNyn68543zVXAX2kNCsvjWqS2DCS7VzMzoecO3cHByFMPMNce26y5N6cdgR7oOeBsYBerUnA6srkhAs4cq2Hyg34tDZO0jskqYFN364348+r3AT06mHFUbV8s2ZeX5wFwZHTGXqHs/Mhbxp/gzJ9j9UAsVPX5HDPrNPPgRzoz8k0jcyvI1Viz5Ww0/PE0HQX+8iV43tVO06TMSAXAT0bASK3A3q4f/+2O9iRd67BzXjgzLXPk+yQh8xUpoPnasFLroSdvkEullcxk4NzWbbNifYd1Xvm431svD/lfEDP7RAqlocMoutBK2nkIDsfcm2+mItTkzJ5j1WA4dozk89HO7QnsOp9Hp6HFVHluZfh5vPIRfsMBfUuXtOuJxpM8PY9M73lodMBvUfbIVCAHdbiXJ47m5cGgAOL6cvqeZ+Xa5LMqDezZzq4zaQ9UcH8WzD///WNiaDexYC+O4dbUsYlVo2jFl/0+V42Go86G9AzmK+aiw9Tyjm19kVurk3HGn8X3/esnvkcnKF6dPu0qFYtVDaLwbw5+xxrr0x5wnTm1SG+X09Gn2VOBvTc27AmST2QTD7YrF0UzwKuVi/kbZ6yS2X3Tnak057XqAIxti9UL5c7t6m2tZE5804+g3LkBLe0K6sd+VgXo5hE+o6OTlNLGkvuq6FGFPkA8pPNQavpB5lzgx15y84r/RzNT13a2XNXB5mcewbknLNVHsM9s2lfS8zM22NUTX2g4gZz/B4l1a92td1MEjP0lVIjiXkeKUsTgwyyhgp689oAuPL/crWDkvbgGQeMKQntLLvfSg3k8n2xRzuALObTu94HzWQbO4cHDpwdwEyQ0Wu80eQPr4a6yF3fF3JG/ZoAMIZgZGym2N7Bsc5A2MnsR3DRdKO6i8f1hyng9sJvqRrumR0zfQ5VymN2PrQPwEnTJ5Fj3UPTXe1p7LmuBo3zel3abgHBMz58zs9E/rxQLGusBge71a8B9cuWTvEA3Gu3UquEU/eXa1MRwutwo98WvxY112A/qu+jmdQ/NN11Yrhn9qjpE7HYwNB0V/9wz2za93PWz66k/j+2PHPjZhDct2MI4q2C/2/k3m3H1nu32vvX6HvgTECPYATRlYdjaAbAOQCnailhi1142psucjHuw+aFaOuNRRQOzrmSxa5F/9B0V3cGZas+2wfgVArf1+XrMulALOt2ZGy4Z/aBav+RGtgJA65zwMZg+Ksw3xYyE62ovoorSZkxACcrHSjXXYNAQVs3CPv7r08MTXfV1Ff1yCiAnaZPwjaROMQWCwCODvfMlu0jRO5dILjvN0TWBdgHuwaKtZwI6NW8eVcaxhkEHc1TaWSQ4mINyQbVkITZijDQp3yyeW0BnaynzYwh+4GuQQC2ZztcfiYkHtCrxtvlssGknwO2ByBFqcHwW1R5t8mMsCv9lqi02hPbkzIVBwGVUsHxUQBH1SDTKOy+Jl4FA9ZS+oemuwYcrIgsJYkBHFuu6UTvYRVfhdn9sI+wD0H/Tvd/Zoa+FBWYulCiNQHgUAblOBVRDckpJNjpNT0f0PKHqC0PNKup+znrOcpHsZklyco+2B/QuyyN+83l7HweJN52DvfMHjX0zAnZHMAWk9ZUFlsHyxYQ9N3Olf3KOqi+4U51Pdq6U1P/0HTXYJKDGoDT88J1RgHcYvokEpTE/W7DtTwDYGeaiVT1vTfiqsgUIhv+/04sijcKuxvFCQQX0U5bgvkU2fw5kBuyLrmcUPdlGuXZpbiwD7XL93MaC45xMbwcUmX8pqqYar3HbH92VMvWxYxPDvfM7kg7mI8a7pmdGe6Z3QngbthZXZdGAi1PAX132lunUtUWANydRVV01HDP7Dl1L++ABQkcqwP6oemusGTcRuEF5EMgT3ZzYs6bCsCyvp9PAhvZkazfJzb66UosAFcZJNeDKCeeAyWk2RnLekBvgwMDe3GJXkdqyqRtAV2YzTPWCVcVh7cgNm/XAt3qM6Pi0hygyvpesXFQqVrnTK79MNwzuzDcM3tyuGd2h6lzACwP6GHvqO4YgFssLwHPmzw8dHyXdXZ+JpZ5yXrgzdbByLxI8v3NQwfW9Wdkmh2yzDKwGi5XwtRFzTm17d4aQxDMG0/EqEDgbhgccCqCg9Gltav1OVL53il9Xy0b7oMEMBaDxQG9mptg48j20eGe2cxLO8h6Jjtt1l+Lqtom6/s53kli2b2iPg/XJZnJyMP7kTTbsqo1y0mn1UVPwK4BjXM29t+Ge2YPwa6tTrtVH5yKG1QDVmSeVfezKdYG9LBvVHcBwAPDPbM2PXTJHgzoS8s6O78Qv1dVRU3W75Vtz7E8aU9iYEJ1XHMTvDos7ZJJF56TNkhy8MOmTO+5WrZFzIoq/7epf5lk22XlwHadXNqGMW2mp3ux/YalAb3Katn0AAjny5ss27OByZvG9AODaqQWkMn62imWjc+6NMvWzG/aA1ALyCaASiKLlGbQkWVm2OmAlftf54uah21LBtPqYD6kgnpb+pn9OVudPg37HH+PkmozTD+7be1nZcrKgB52zZ0Pg3mW7NnTOFMh0w/TcrLOUi+geKYj685Su6Wli2l3QhaQzXWZxMBvmoPH55BdoG37c4Aq53KQELIlOz/hQjAfcQj23Mu2fIY28z5Lb0F8NMDpDxYG9OpDsWm0xZq95clqLLnXMLTC8blicyRVlU3W75ePnSInAnpVPZLmvWvbYle2SvWeVP0KI89oBxfPrbu/o6osbRiUWADgUjAf7nV9yPR5KDYORttmIOE1aWyqTq6GyUEoTn+AhQE97JpzepJl9lQh70cHizBxP5ebh5j5avcWjh5nkaHP5H2uswIi1XJ72xbfqpINAVlSGJhky5Yqy5MuTuVQg0A29D27E2q78vQs0XE1mEzy3jA9cLlPDdB7y8aA3pbs/ITJPUotZTIoca5RzpCVFSRqW5esr5mxCjpwJrKmtjU0Wcyhz+q6rKnNUB3VtMvtyQ6m7j+XB3TqYUOWccLxRYzzlKW3bUA7ad2+B5OwoxrtRE528KmJVQG9WlzChobAuTKtjOR9lJUSooIlEw1c2U6QobJ72zKEqQf0GZYa19pmpH19Zh3Quzzomdr9aLhf4eJnUtdAnOpQ2xDA2RIQ10RV99gwKGhb22Urm6qLM6emJpt+3rUDeNXxhQprZlVAD3seHKdcLNMio2zowNjE1ux8KOuqBttWDE77s5mJ/Z6mWoO1NNubiazbEMfbrDQH2F5N8XuXU+tnYuxZkcA0ERsylWM5WfvIhirRJK5FH/pH3WrNIJck/dy1YQCqHcBltY6HV2wL6G0olZhhqT25xLZFlwxm56u5b000PK419vUIOwpZzaOvqu3IoNzeqnvSV6qDbbJj5+N1YENH2unsfEgN0pkemHAtoDc5zeKJBNYcyPK9SjSgV7GTDdOM2gG8ZekOQ6lpNH0CMTY0BC7PuUqbyQzjvqHpLmnw51PlTCwQM1FNRma4Z/aUgTn+NgxYhtK+l8PM5BiyqbwaQHXBU9qDKzbMJ6yX01k1dX+bHkSzIWOVGRXMmK5Eyrw6JmWnYHjRtaHprgHbEgcljCGIJUy0t+0IqhPrGVBy+rmLIIayYVHMsPz+qONraVTMmgy9Ko8wfSHPDPfM5qEjRmSEKis3MSpaSwOadeaj26MFW8L3NqtOYLXva5qfw0zOAoosJJbVGZruah+a7noL5oP5GQd3Oaj3fG3IiOWq825Jn7TeZFvWfXuTVbaDlk2vy5QKnm1q/04MTXe5ugtBVawJ6GFHQ+DVaDrlgm0dRuuz8xE+l92n2sEKAxkV2GbRuFfcgcpgkTS2I9Wr+zmmAvkTAD6AHdUw9VwHppMbtTL9vi/kdKth02X3TgX0qj9gsqLAlQAyrevq7pS+b60Gh6a7Llu4fXCibCq5Z7k9kcNUlY2JDl1No/Gq7D7rhtd0hxcZNGrx4GwG6Zfhtg9Nd3VXmBlPe/DYREBh28BezdT1+QGCzuaY+rUl262eN90I7qkBmC/1jrMhs5o105+BK2Xh1QrLyE1xKRAK24BDCJ4jJgwMTXf152RhxqoN98zODE13HYUdpfehfgAfDE133Z3Xz8WmDL3xhsDB8rismf6MaCubrllT2fl6OnGZdwAtWAk37Y5h/Jq0rew+zYB+Jq+dhayodngBwed5AsBlAFeHprtk9Jc6/iqCBThta5tcncddb3ti+nPIa0Bv+pniTEAf3nfqd5PVGrX2h5x5r0tRpfe2VcuEK+DbsBNH4mwK6E1fxLZdeESVsCKgV3PDTWQQ6q2qMXHfm55elHWGPqv3uGxAz9XtK2OgNNHUIFBaXK32q7c9MdqPs2S+eeIsmEZQ70CNqevC5Fz6/hoDxyzfq1QHHYd7Zh+A+cEondGh6S6T25mmwoqAXnUeGNATuctEadVEvR0dQx1A03vSp/2zC4ICy+bRpz0yr7ueTLdttch6cC5+fbjcHs/U81xydeFMC87bxYqIalgxeO8S1faYHOQxXY1XThbX1N2w897cNzTd9UGe5tVbEdDD/Px5F1ejJbKCGoU2cQ8n1VCbyAaaLPnKOkMP2BPQp726vY3ZCOeoaTSutsmuZufrZbrcPu/3nsmgqOY2I+PBa90zw+Te6N0WTLEzSsVWO2FnUN+NYF696cHIRDCgD+S9IUhKbkaycsSGh6SJBivJLSZNBPQmy+6z2oM+Kov3uF0tlFZKmg2362XitrHh2VYt17e+rSfwMd0/YD/OTkYHelRAaXKQ7QmLs8CZDHSoz8DWTH07gLfyMPBiS0BvGhsCohqoh6CJBjvJBtpEB7y7guDTVbpOgvF59BkshGOyTDzpjpLpbCvgZrt8yPQJ1KmeDr7p55mL10s1bAyGnKAWaDOVpW9HdUmPzIL/LCvK1PQHWzP1QLBf/VsWD76UZUtAz4aAyE2uZ+fD0WMTzwBTW7pkOoce2GjMs+hQlWpL0qyKWKhztwXbmF4UD3Cv4uFcQteA6f6Qq2wNFHxnS4BkcoG8QZcDxaREyu9tjbkGEKyCb8OAdtVsCehNs/XiskZe5pjkkLFrd2i66wTMNNZpZNRNZFfz2nEv1rHO4lot9Z5ydXt7bblmLFjZuxozcD877zRHtwn0gek59AA2FsA11V9qh5ltfa0z3DO7MNwzuxP2tpndCIJ607sRVY0BPTZGjYioQmq02cTCbjOqfC5pJsru2w3th5p5hl7JogHX/t/UgGSag0/a68fhgVBbskkuBGkLAO7OST+inv+DyaxWHt57ql+568DkoNs+yzK/Ru+Z4Z7Zu2F2B4JS2gG86tq8+kbTJ6CwISByi6nsfPfQdJc08HPTMgh7G7WalJiXl8mI/NB0V7/mHFhuXx1bOp4TsOdcijmUcHbY5P/XhQEUcostg4MY7pmdGJruGkO6i6OWMopgcTitHK+rozXcM3toaLprBuamH5ZzYmi6q324Z9bkdI2KMUNPlbLmoUwFMh+QUtl558qRLNVvYG6dkXtZBdlZXK+6zlqaHThO2UqP7QMlR1OYGsC2lnRcTXzZNiBnMks/UKZqy7t7X1VcPgB7k6tPDE13OTFdggE9Vcq2hzIFTGRURuFhw5OizMq6Mhg8KNcoZz6PXpU5pvn8sqHCwtbOUL1snkd/NKXpP0Q6bHPLK/scVNU0Jp8rtgSH1lTjqEHRu2FvOzY4NN31qumTKIcBPRFVTAVHzM4nK8v303RJXxYBfTx4T7vc3oagM+mOUKYDuMWmLKh56dZ0PCMeSDGYZ+BWPR/eM5P/RxvvQZ1Kn4OHqvjapHUbWjvHaqqC7xbYe63tsz2otyWgNzkq40NDQJQUW0aX8yTLPelNP++yCH7jwajJcntWNtXPpg7eAoCdKQ/imLxH6xlws+lzyhU1kG762V0r656BaqDQZHVNsTnj1r1XWXJgW7t9ancnKzGgp0q52pjkXWadKBV0urpqt+2yKrtPu8NQ8nrMaB59e2yAJM1rtlxgx+dm/Wzp3I0BuKXEoo9kkMM7SlTC9P8td4M1qsLG1P+rvUhgmGV7YWXc5cC2dk/Yuvq9LQG9UTlvCJLi9cihrTLee9fakckcyOoZZEOAmdk8+rRLG9Xexnlkw3USMt2xC7ely8vWdGkx/d6Ynk6UJtN9VFcC+mrP02SWftDAgrhRpu/XktS2drauUXLCxn3qbQnoTV9YeW4IiOqmBr1MdyryLKs96W0YmMsioB+I/Z4G04FmmqwJ6A1uCbiAYEu6HRmfgw33aC1MB3157seZ/r/V88zO8nquKpZQA7KmKm7awSRJSWq7OJO7EpQyanhAZgtbAno2BER2Y8OTvjwslFPJszzLefRpPtttWAwvDyrphGfZR5hBsOjdjhxXYKTBdGLG1YGQkjLYpaMSeR68fMDgz45n6U1/ztZRz2AbV8BvB/CW6ZOIajR9AgoDevuZfNDcbTBLU5LKXFt1UydNZY55j6Svf2i6qz3lsl7jHYbhntmJoemuBaSbBe5OuyNcYbCX1fuddBtqVeYBwf8vzfdyAUHQcjTjaUxWqbOdNf2+5bWNMj3Qu5DnqSbDPbMzQ9Nd52Bu954T2MxCZ/ncdWYtkOGe2bGh6a6dAC7Drrapf2i664SqJDCOGfpAt22lE0QVyKqRtXIBkJzy5b1O+5nfjnQ7wpUGPlm1K7ntcCtpdD5nEMzRvEVl4x+wJJh3si9iw6B7TrcDMz3Vrd57L8vrudb71+Q2doNq8JlKUM9mG7e1e8KWz8+KgN6SVWPz2BAkyclOBtVHdZCseFh5Iu3OW9qfZaXP8iye+Wk+01lunyGVAdkJ4CiAcN7rAkp3wsO/n1FffwpBee0twz2zYrhn9pbhnlmvM/IpMP1eWrdQVT3Ubh2mKw9s6J9Xqqag3OJt7Cgisq2d8cHDGCv2p7el5B5Iv6SunH2wd0VFGzCg9xMbmmz1D0139VsyyJmmLP5/qT2z8jy32tZqNXVP5P2+cJ3pShHTwW/SbGh/bQueUjHcM3vSYAJjn4G1EkwPvtVEBfV3D013jcKeRGz/0HTXgOkqJSsy9Irpi6vflrIJ2sJ0J6EUKzu/SVB7beb2/2exNBuptD/Piu5VxwPivHdwsw6KbH6+ZyoHW+iaHnBpt3WP6Gqp/qjp62GhniDFwevZ5Fzo0Yx/ntPP3eGe2UOwKwlrfPCNAX2hrG8olxgL7CzPVuZyEEhl6XLRMXKQy2Wj1TzHbXjm16KacvtcPh8S5nTHMkeS+BxsaKttydrVy3iAADs+z2rUdb7DPbPnYG7AdgBMoFTFsm3tjCeFbQrobch6DJj+QIiqkGZAdAJsXExpH5ruSjyotzBb4lpnEYDz1QVkN6efuZbcG92uL46n+qE2DOw6tVZIQqvxmwwQs4w/cjGQqp45JrcejDL63LEmoFcjYzawYnEDm1gYCFCKVHbehs6Ez1ztkFbTSXAxoLdh4Fknyc5Z3uYhuyQPCQUbKm9syG7Xw4p+aAIDNM49S9QimTYMTKXK8srXqqj40Yat44z2m60J6BUbGoL+vMzBIqrRKBzPFOXAQAqLk6Xeuaqyk2DLIG41bD1nG9pOIsCOe6R9aLrLiqC4Wqr/aUMgbOvgZerU/OxcZLB9MdwzexLmr1mW3EfY0BAAFu0raAm+F8XZ0PAmxqJSP3I3S18RlQlxqtNkSUkx5VceBlJt6cftS2PqUppU+2tLdYFrz7qk2xIbMr5UHePz6U1WNDOg12sH8Jat2/cYYPJ9cKrDnwNcGNIeSXdG0x58quVedSmzXMvov4uDobkapHSMi9dLAVWlY8t9PepKckb1N98yfR7KTELTYJ19lqjB29yUpcfksl+tkgTeZumtCugtawi6AVxmUA8gH1kDKsOSbXJok/FVUzNguvGthi0DznljS5vvuyQ7+bbcK04kZ9T5XYY9AzquZefTYstia1Q5030KY8+aRlM/uIRzsGe7rDCo35nQ6pmusqWRoXSZzs6PDffM3m34HAoMTXedgNnn0RNIrozMxvvYmQwIy+0pA3mphjsF9uMqYmEwv6DmI3tvuGd2Zmi66xRyPv0tZ5zpUyTNqgy9YlunKWwMbHnYkl1MXheJZbbUvB/T2Xnj8580THdsTH8m1aj6erRod5NyTI/6Z8nqbGbO5eK9t6T0NaobwAdD011WlYCrfqVNwTyQbB88D9fzUeSvRD3PVVF5uOZqYl1ArxoC20ZYwsbA11E6mxobSofphXjG1L1vFZXRMfk86k5wYSdb72PrPneNWgceXOxcuHjOZB/bFhVrR5CcsaJyQPUnbQvmF4Z7ZpP83LJ8lqQSdKs+gG3XslFD011vDU13vWppotOqQbssWRfQK7bePKND012cV5+tvI2MWkd1LEw/BG3MzodMVw3lfSDRtgFcHVcqCchtNnaQa6LWRLLx3j4xNN1lLFs/NN3VPjTddRl2bg9ruiKtHqn1FXO+QF6t9iFIdH4wNN31hEVxken+krGYxcqAfrhndgz23jz9AK4OTXeNWnQBF1ANxqAaRbuawDYKeZnXlwYrr4Eqmc5YWJmdD6nG3OR1mFTZfdrXaq2foU2luToTNs69jVJtZlLy8EwjO9g6UBtOpcx0wTy1JstVmB9A15lJYe58np4ltl7Ltai3PYv++3Crxasq4TloKjYamu56FeavOWN9WRsXxQsdhT1beOgMAhgcmu46B+CoyYBEjTQPIBgx60bsgk6gs2f6BrGZ0++Nys6bzgq50FBOwOB89qHpridyvFCR7QG9b9n5rJ9ptg7eU52Ge2YnVB/J1v3gBxAEImMI+nGJX4squDmB4D2wub+QRjts8/+3Kg5cy9WoN6CfgP596EdQeTI6NN01g6C68Vza8VFky0fjA2UJD65XxdqAfrhndkw9ZG1fFGofgH1D010LCDp+p9JoFICNi7Zb/cx+9avcA9PazCdZgXPnK3MKZp9F+1BHOWQCVTqpUSsJL8Dezl9NUy5sreAiq+XxmjmE4Nlp8/9tAEHGPuzHnaynXVL3/j4EiR/jQUYFzpkMRBziwrWchUrujTBzf0LdVxMIBu/HkoqRVDLzBOyJE432Za0N6JVDCBYNceHmacdm1h4IPthwgb8J9eeFYo2EWlwi/H+GD4wwYA8zqLW8D0lcYC68/6Y4+96oxYFMn7+t62UUGO6ZPWc46Owfmu7qtnzwo55G2mgFRAn1lNu70JEnCqW2qNjQdNdRmN8WtRLRftwCCvtwEwjK0gvep0jfLUy0dMN81Vs1ZpBelZzp/kWi1LV8EuYTIaZV+6xoR9C+DwCAipHC+yv8FVbC6e6xMA7qRnCPDUBTjWwBBvTFqMyNqzdPePEVdFLVhZwlljPSFuoBaXru/ERa1SwpOQezC64MovYBENuDS1sDet/K7QH7OklesKCKJtVFxdT/z6Vy5TCpUvDsNNCHS9sDtq8RYpPhntmTlkxVrEdd/S5VQV3vOcTvr43+qMP3mNH+gpWL4kWpeaMsBapdXSNGee5keM6G7LwLc+ejTK92b3tnuJ571dZnvOnPnCgvDoFTAG2TyroBHnCt75IG9s1j1ALKxlgf0CsPgA1BrVzPMFn70LBgsKMmKjtvemsP17Lz4TZMJp9D3XVstZRFhr7m98bS+Zv1rm5vesCsapbuK+wL566Xaqh76W5Y3KZ75lyaC60aeJZk1jar9srGNovMMX49OBHQsyGo2UICpVTs4OXPCZjvPLq6Yrvph7aL048qZdugbb2DoS4+O10857zI/Xuv1gBhdtO8ieGe2QdS/hl5v54Pwe+YxLb22jTj60E5EdADbAhqxAXx0mW6waq6MVGj5jZk512tHDFdgl1rpj2LazWJrXBsYvqzNsHEM822z51SpJ79aQeTVNwMggQZ1UHFJK62EXzmJsuKilNnAnqADUENGNCny/R7U8vna8NKw642gjaU3berBXmsk0CDZrr6IarecntXmX6m+cz0AHFmVF/OeEbLQzMAdmb0bLN9Ida6DffMHoW/mWpf/986VjzLnAroAQb1VUrihvOmk5F3Kjtvet7/jOmFQxJgOvCsJaB34T62qWojiXNxMTh28Zzzwqv3Xs3ftqIj7Iksg3mfuDp9kJIxZssaQM4F9EBBUM8HU2nGS0ASYPP/wbURaGbnk2H6/9Bfw4JDaQcLdT+LVUfTllH/JD5jFwZR4lw8Z3KUCuqZoEnfBLIP5l3rH9VEJSisCOgyZnPfPCsLsGgquJMBPbAR1HOhvNKSeMiwg5cDanV009n5hTRX1c2KBWX3QBVZerWrgStMv6+Av+X2ZJaXbS37cqkbG+6ZZWY+XdYEdZSpk2otBSs4G9ADGx3rW8CRIp0kVrin0lzqgDE7nyzTI/LV7EnvUqbEhme5TaX/WXPpmUY5oUpWb4EdA3p5cnK4Z9bUAnhZP0uMtR2OL5BXKxvaapNS3faxFk4H9EBQpjncM7sT/t1M5SQVzLuU3SMNtYiaDUGdVQ+/Opl+3lSzJ73Ve9DHmB4oAZL7bBkcUzVMt7VGg2nVl7sFdjwDXLcA4G61aJsppq/nrB0Fq0x8kcW2j1VzPqAPDffMHgLLtqKSapx9eyhXw5X3xoa9y0/lqWLEkrL7Sj9XV67TMFNn8jrxvdzemWslh0y/91Zc9yqj7Pse3/WYAHCLBQt1mb6eM6XaDVeSFklk133N0Fu77WNuAnqgoGzL9IPMBqaDjaTY3Khb32ANTXedgB3n6UpDVw3TDdpAhfPjXcsUm3x2+VxuD9jxrCDPqYXGOJ2yOgsADlk0X967Z4kqwba+753E9WHJNZY1E4tLVixXAT2wUbZ1N5itT6ohNP1QtvnhaPq9KUmthP6E6fNAsCiPzZ9jrWwI/ir5fF0L6E124pOcSmH186EIF885L/jeR0SmU/rel6vEOQRZedNTwSifyQtyYHHJ3AX0oeGe2bHhntkd8HdeSx4DKKqODQvhATnda1itzmz62VLJ4niuBQqmAvqky+1de9+JrMO+XEljAHYM98w+YFOgMTTdZXpHHWPUoIovlSXWXHMpO2pwccmK5TagD6kSmFvg2ahZEvOnfH4ol2P7e6POz4ZznFDzzfPK9P+tksXxXAssTVU+2FBxYUwViyxSwmxvT2wQ68v5EkgUM4YgI3+3TYE8bchlEsNDMwjuMyfix9wH9MBG6dZRAL6M8ub9/0fl2ZKdd+JBWAcb1usotzheFgF9Ys8c1UE1UWGUdLmqawMprp0veSbsy6mMvW8L5y0geEbtUIG8zVWYJgYHTQ+ub1AJNRv6Bmmz+RqsR7gexS2W32cFGk2fQJYiq1CeHJru2odg/mkesxJJNXKuzb3NkrXXzdB01xOw47ObUWXpeXYK5ncRGBia7mrXZWoyzLom3bGeQbbXsO+r2wN2PDN8xfe+Sqq0+ZRaK+YEgoq0PA5KjSHYJcaltjSPn0O1jgK4bPokqCoLCO41JyssvAroo9TD8ZxaJXpQ/cpLo5qnLeusGXWNseG92UJdzzYshAeY36s9dcM9swtD011ZB586T0Bf5mfldVqBMWQ7ZSTRznKFuw/YxsVzzgu+9zVSGbQHgI2pC4NwO7hfQNDvcS2IjzLdHho33DM7MTTdlXU7VokkB67zMgg+A+Ck64tKehvQh2JZ+3YEN98gggysyw1CEir9/1fz86p6Ty3OmlXTYKX2/mhUs01dLe9txd/blXlHCRhD8MyoRFrvebFOQ7kMfaXnk/WzsJJyxSTvq6Qb8qTe91AW73/Szw1X208Tqn2vsmxTnBEtdVaZ+30Ino029+fCKUbnAJxzqcS3hEreaxufgUk7BOCDKr4+if5uZu/TcM/s3aoKMLzHutUvFz6rGQTPipM5uecgpJSmz8FakQA//NUOey7UhcivCfX7OQSBVC4uTiIiIqJ6xfpzYfCRdX8u7LONIei3nbM4aUFUMzWg1o5gUK078gswE0fNoHDgLHf3HQP6GqgRqbBBCEd+o8F+rZmOhcixMFCH+n0GDNaJiIiIEqECj24EgX40wxjtx5Xr0y3E/hxNtkwgWE/G1umDRJmLBPxhsjQa8McrYKu5/2awee+NIbj3vIibGNATEREREREROciLbeuIiIiIiIiI8oYBPREREREREZGDGNATEREREREROYgBPREREREREZGDGNATEREREREROYgBPREREREREZGDGNATEREREREROYgBPREREREREZGDGNATEREREREROYgBPREREREREZGDGNATEREREREROYgBPREREREREZGDGNATEREREREROYgBPREREREREZGDGNATEREREREROYgBPREREREREZGDGNATEREREREROYgBPREREREREZGDGNATEREREREROYgBPREREREREZGDGNATEREREREROYgBPREREREREZGDGNATEREREREROYgBPREREREREZGDGNATEREREREROYgBPREREREREZGDGNATEREREREROYgBPREREREREZGD/n+CAxGF1V9hPwAAAA5lWElmTU0AKgAAAAgAAAAAAAAA0lOTAAAAAElFTkSuQmCC" vertex="1" parent="1">
          <mxGeometry x="224" y="780" width="402.9" height="170" as="geometry" />
        </mxCell>
        <mxCell id="uIATgTCMKuDsSCNxfTma-17" value="" style="rounded=0;whiteSpace=wrap;html=1;" vertex="1" parent="1">
          <mxGeometry x="310" y="980" width="230" height="160" as="geometry" />
        </mxCell>
      </root>
    </mxGraphModel>
  </diagram>
</mxfile>
